<ttFont>
    <TTGlyph name="A" xMin="5" yMin="0" xMax="720" yMax="700">
      <contour>
        <pt x="5" y="0" on="1"/>
        <pt x="5" y="60" on="1"/>
        <pt x="87" y="79" on="1"/>
        <pt x="315" y="695" on="1"/>
        <pt x="415" y="700" on="1"/>
        <pt x="637" y="79" on="1"/>
        <pt x="720" y="60" on="1"/>
        <pt x="720" y="0" on="1"/>
        <pt x="430" y="0" on="1"/>
        <pt x="430" y="60" on="1"/>
        <pt x="523" y="79" on="1"/>
        <pt x="485" y="190" on="1"/>
        <pt x="225" y="190" on="1"/>
        <pt x="186" y="79" on="1"/>
        <pt x="280" y="60" on="1"/>
        <pt x="280" y="0" on="1"/>
      </contour>
      <contour>
        <pt x="357" y="571" on="1"/>
        <pt x="252" y="270" on="1"/>
        <pt x="458" y="270" on="1"/>
      </contour>
    </TTGlyph>
    <TTGlyph name="AE" xMin="5" yMin="0" xMax="899" yMax="700">
      <contour>
        <pt x="390" y="0" on="1"/>
        <pt x="390" y="60" on="1"/>
        <pt x="480" y="80" on="1"/>
        <pt x="480" y="205" on="1"/>
        <pt x="260" y="205" on="1"/>
        <pt x="197" y="77" on="1"/>
        <pt x="275" y="60" on="1"/>
        <pt x="275" y="0" on="1"/>
        <pt x="5" y="0" on="1"/>
        <pt x="5" y="60" on="1"/>
        <pt x="94" y="80" on="1"/>
        <pt x="371" y="620" on="1"/>
        <pt x="286" y="640" on="1"/>
        <pt x="286" y="695" on="1"/>
        <pt x="412" y="700" on="1"/>
        <pt x="889" y="700" on="1"/>
        <pt x="889" y="530" on="1"/>
        <pt x="824" y="530" on="1"/>
        <pt x="799" y="620" on="1"/>
        <pt x="585" y="620" on="1"/>
        <pt x="585" y="405" on="1"/>
        <pt x="814" y="405" on="1"/>
        <pt x="814" y="325" on="1"/>
        <pt x="585" y="325" on="1"/>
        <pt x="585" y="80" on="1"/>
        <pt x="814" y="80" on="1"/>
        <pt x="834" y="180" on="1"/>
        <pt x="899" y="180" on="1"/>
        <pt x="899" y="0" on="1"/>
      </contour>
      <contour>
        <pt x="300" y="285" on="1"/>
        <pt x="480" y="285" on="1"/>
        <pt x="480" y="620" on="1"/>
        <pt x="465" y="620" on="1"/>
      </contour>
    </TTGlyph>
    <TTGlyph name="Aacute" xMin="5" yMin="0" xMax="720" yMax="935">
      <component glyphName="A" x="0" y="0" flags="0x204"/>
      <component glyphName="acute" x="219" y="100" flags="0x4"/>
    </TTGlyph>
    <TTGlyph name="Acircumflex" xMin="5" yMin="0" xMax="720" yMax="920">
      <component glyphName="A" x="0" y="0" flags="0x204"/>
      <component glyphName="circumflex" x="100" y="100" flags="0x4"/>
    </TTGlyph>
    <TTGlyph name="Adieresis" xMin="5" yMin="0" xMax="720" yMax="885">
      <component glyphName="A" x="0" y="0" flags="0x204"/>
      <component glyphName="dieresis" x="110" y="125" flags="0x4"/>
    </TTGlyph>
    <TTGlyph name="Agrave" xMin="5" yMin="0" xMax="720" yMax="935">
      <component glyphName="A" x="0" y="0" flags="0x204"/>
      <component glyphName="grave" x="150" y="100" flags="0x4"/>
    </TTGlyph>
    <TTGlyph name="Aring" xMin="5" yMin="0" xMax="720" yMax="910">
      <contour>
        <pt x="250" y="795" on="1"/>
        <pt x="250" y="846" on="0"/>
        <pt x="320" y="910" on="0"/>
        <pt x="365" y="910" on="1"/>
        <pt x="411" y="910" on="0"/>
        <pt x="480" y="851" on="0"/>
        <pt x="480" y="808" on="1"/>
        <pt x="480" y="726" on="0"/>
        <pt x="416" y="697" on="1"/>
        <pt x="637" y="79" on="1"/>
        <pt x="720" y="60" on="1"/>
        <pt x="720" y="0" on="1"/>
        <pt x="430" y="0" on="1"/>
        <pt x="430" y="60" on="1"/>
        <pt x="523" y="79" on="1"/>
        <pt x="485" y="190" on="1"/>
        <pt x="225" y="190" on="1"/>
        <pt x="186" y="79" on="1"/>
        <pt x="280" y="60" on="1"/>
        <pt x="280" y="0" on="1"/>
        <pt x="5" y="0" on="1"/>
        <pt x="5" y="60" on="1"/>
        <pt x="87" y="79" on="1"/>
        <pt x="315" y="695" on="1"/>
        <pt x="250" y="723" on="0"/>
      </contour>
      <contour>
        <pt x="357" y="571" on="1"/>
        <pt x="252" y="270" on="1"/>
        <pt x="458" y="270" on="1"/>
      </contour>
      <contour>
        <pt x="310" y="797" on="1"/>
        <pt x="310" y="735" on="0"/>
        <pt x="365" y="735" on="1"/>
        <pt x="389" y="735" on="0"/>
        <pt x="420" y="769" on="0"/>
        <pt x="420" y="798" on="1"/>
        <pt x="420" y="860" on="0"/>
        <pt x="365" y="860" on="1"/>
        <pt x="341" y="860" on="0"/>
        <pt x="310" y="826" on="0"/>
      </contour>
    </TTGlyph>
    <TTGlyph name="Atilde" xMin="5" yMin="0" xMax="720" yMax="934">
      <component glyphName="A" x="0" y="0" flags="0x204"/>
      <component glyphName="tilde" x="112" y="170" flags="0x4"/>
    </TTGlyph>
    <TTGlyph name="B" xMin="40" yMin="0" xMax="580" yMax="700">
      <contour>
        <pt x="40" y="0" on="1"/>
        <pt x="40" y="60" on="1"/>
        <pt x="125" y="80" on="1"/>
        <pt x="125" y="620" on="1"/>
        <pt x="40" y="640" on="1"/>
        <pt x="40" y="695" on="1"/>
        <pt x="225" y="700" on="1"/>
        <pt x="340" y="700" on="1"/>
        <pt x="438" y="700" on="0"/>
        <pt x="555" y="612" on="0"/>
        <pt x="555" y="525" on="1"/>
        <pt x="555" y="396" on="0"/>
        <pt x="425" y="363" on="1"/>
        <pt x="503" y="345" on="0"/>
        <pt x="580" y="261" on="0"/>
        <pt x="580" y="200" on="1"/>
        <pt x="580" y="0" on="0"/>
        <pt x="325" y="0" on="1"/>
      </contour>
      <contour>
        <pt x="225" y="325" on="1"/>
        <pt x="225" y="80" on="1"/>
        <pt x="330" y="80" on="1"/>
        <pt x="475" y="80" on="0"/>
        <pt x="475" y="195" on="1"/>
        <pt x="475" y="267" on="0"/>
        <pt x="388" y="325" on="0"/>
        <pt x="300" y="325" on="1"/>
      </contour>
      <contour>
        <pt x="225" y="620" on="1"/>
        <pt x="225" y="400" on="1"/>
        <pt x="300" y="400" on="1"/>
        <pt x="370" y="400" on="0"/>
        <pt x="450" y="457" on="0"/>
        <pt x="450" y="511" on="1"/>
        <pt x="450" y="566" on="0"/>
        <pt x="386" y="620" on="0"/>
        <pt x="335" y="620" on="1"/>
      </contour>
    </TTGlyph>
    <TTGlyph name="C" xMin="40" yMin="-10" xMax="610" yMax="710">
      <contour>
        <pt x="520" y="491" on="1"/>
        <pt x="493" y="605" on="1"/>
        <pt x="439" y="625" on="0"/>
        <pt x="365" y="625" on="1"/>
        <pt x="263" y="625" on="0"/>
        <pt x="155" y="477" on="0"/>
        <pt x="155" y="344" on="1"/>
        <pt x="155" y="210" on="0"/>
        <pt x="272" y="80" on="0"/>
        <pt x="370" y="80" on="1"/>
        <pt x="392" y="80" on="0"/>
        <pt x="443" y="90" on="0"/>
        <pt x="491" y="109" on="0"/>
        <pt x="531" y="130" on="0"/>
        <pt x="544" y="140" on="1"/>
        <pt x="570" y="160" on="1"/>
        <pt x="610" y="95" on="1"/>
        <pt x="588" y="73" on="0"/>
        <pt x="531" y="35" on="0"/>
        <pt x="466" y="6" on="0"/>
        <pt x="396" y="-10" on="0"/>
        <pt x="360" y="-10" on="1"/>
        <pt x="207" y="-10" on="0"/>
        <pt x="40" y="167" on="0"/>
        <pt x="40" y="337" on="1"/>
        <pt x="40" y="422" on="0"/>
        <pt x="87" y="560" on="0"/>
        <pt x="175" y="657" on="0"/>
        <pt x="298" y="710" on="0"/>
        <pt x="375" y="710" on="1"/>
        <pt x="398" y="710" on="0"/>
        <pt x="453" y="703" on="0"/>
        <pt x="506" y="691" on="0"/>
        <pt x="553" y="678" on="0"/>
        <pt x="568" y="672" on="1"/>
        <pt x="600" y="660" on="1"/>
        <pt x="595" y="491" on="1"/>
      </contour>
    </TTGlyph>
    <TTGlyph name="Ccedilla" xMin="40" yMin="-221" xMax="610" yMax="710">
      <contour>
        <pt x="595" y="491" on="1"/>
        <pt x="520" y="491" on="1"/>
        <pt x="493" y="605" on="1"/>
        <pt x="439" y="625" on="0"/>
        <pt x="365" y="625" on="1"/>
        <pt x="263" y="625" on="0"/>
        <pt x="155" y="479" on="0"/>
        <pt x="155" y="344" on="1"/>
        <pt x="155" y="210" on="0"/>
        <pt x="272" y="80" on="0"/>
        <pt x="370" y="80" on="1"/>
        <pt x="392" y="80" on="0"/>
        <pt x="443" y="92" on="0"/>
        <pt x="491" y="109" on="0"/>
        <pt x="531" y="130" on="0"/>
        <pt x="544" y="140" on="1"/>
        <pt x="570" y="160" on="1"/>
        <pt x="610" y="95" on="1"/>
        <pt x="592" y="77" on="0"/>
        <pt x="546" y="44" on="0"/>
        <pt x="493" y="16" on="0"/>
        <pt x="435" y="-3" on="0"/>
        <pt x="405" y="-7" on="1"/>
        <pt x="405" y="-44" on="1"/>
        <pt x="490" y="-59" on="0"/>
        <pt x="490" y="-133" on="1"/>
        <pt x="490" y="-153" on="0"/>
        <pt x="472" y="-185" on="0"/>
        <pt x="442" y="-207" on="0"/>
        <pt x="406" y="-220" on="0"/>
        <pt x="388" y="-220" on="1"/>
        <pt x="356" y="-221" on="0"/>
        <pt x="301" y="-207" on="0"/>
        <pt x="278" y="-196" on="1"/>
        <pt x="263" y="-189" on="1"/>
        <pt x="289" y="-147" on="1"/>
        <pt x="337" y="-170" on="0"/>
        <pt x="364" y="-170" on="1"/>
        <pt x="420" y="-170" on="0"/>
        <pt x="420" y="-130" on="1"/>
        <pt x="420" y="-107" on="0"/>
        <pt x="377" y="-80" on="0"/>
        <pt x="340" y="-80" on="1"/>
        <pt x="340" y="-9" on="1"/>
        <pt x="196" y="-3" on="0"/>
        <pt x="40" y="172" on="0"/>
        <pt x="40" y="340" on="1"/>
        <pt x="40" y="424" on="0"/>
        <pt x="87" y="560" on="0"/>
        <pt x="175" y="657" on="0"/>
        <pt x="298" y="710" on="0"/>
        <pt x="375" y="710" on="1"/>
        <pt x="398" y="710" on="0"/>
        <pt x="453" y="703" on="0"/>
        <pt x="506" y="691" on="0"/>
        <pt x="553" y="678" on="0"/>
        <pt x="568" y="672" on="1"/>
        <pt x="600" y="660" on="1"/>
      </contour>
    </TTGlyph>
    <TTGlyph name="D" xMin="60" yMin="0" xMax="690" yMax="700">
      <contour>
        <pt x="250" y="80" on="1"/>
        <pt x="365" y="80" on="1"/>
        <pt x="464" y="80" on="0"/>
        <pt x="575" y="216" on="0"/>
        <pt x="575" y="353" on="1"/>
        <pt x="575" y="491" on="0"/>
        <pt x="467" y="620" on="0"/>
        <pt x="370" y="620" on="1"/>
        <pt x="250" y="620" on="1"/>
      </contour>
      <contour>
        <pt x="60" y="0" on="1"/>
        <pt x="60" y="60" on="1"/>
        <pt x="145" y="80" on="1"/>
        <pt x="145" y="620" on="1"/>
        <pt x="60" y="640" on="1"/>
        <pt x="60" y="695" on="1"/>
        <pt x="250" y="700" on="1"/>
        <pt x="375" y="700" on="1"/>
        <pt x="449" y="700" on="0"/>
        <pt x="566" y="655" on="0"/>
        <pt x="647" y="568" on="0"/>
        <pt x="690" y="441" on="0"/>
        <pt x="690" y="359" on="1"/>
        <pt x="690" y="277" on="0"/>
        <pt x="643" y="145" on="0"/>
        <pt x="557" y="51" on="0"/>
        <pt x="435" y="0" on="0"/>
        <pt x="360" y="0" on="1"/>
      </contour>
    </TTGlyph>
    <TTGlyph name="E" xMin="60" yMin="0" xMax="565" yMax="700">
      <contour>
        <pt x="465" y="620" on="1"/>
        <pt x="250" y="620" on="1"/>
        <pt x="250" y="405" on="1"/>
        <pt x="480" y="405" on="1"/>
        <pt x="480" y="325" on="1"/>
        <pt x="250" y="325" on="1"/>
        <pt x="250" y="80" on="1"/>
        <pt x="480" y="80" on="1"/>
        <pt x="500" y="180" on="1"/>
        <pt x="565" y="180" on="1"/>
        <pt x="565" y="0" on="1"/>
        <pt x="60" y="0" on="1"/>
        <pt x="60" y="60" on="1"/>
        <pt x="145" y="80" on="1"/>
        <pt x="145" y="620" on="1"/>
        <pt x="60" y="640" on="1"/>
        <pt x="60" y="695" on="1"/>
        <pt x="250" y="700" on="1"/>
        <pt x="555" y="700" on="1"/>
        <pt x="555" y="530" on="1"/>
        <pt x="490" y="530" on="1"/>
      </contour>
    </TTGlyph>
    <TTGlyph name="Eacute" xMin="60" yMin="0" xMax="565" yMax="935">
      <component glyphName="E" x="0" y="0" flags="0x204"/>
      <component glyphName="acute" x="150" y="100" flags="0x4"/>
    </TTGlyph>
    <TTGlyph name="Ecircumflex" xMin="60" yMin="0" xMax="565" yMax="920">
      <component glyphName="E" x="0" y="0" flags="0x204"/>
      <component glyphName="circumflex" x="60" y="100" flags="0x4"/>
    </TTGlyph>
    <TTGlyph name="Edieresis" xMin="60" yMin="0" xMax="565" yMax="885">
      <component glyphName="E" x="0" y="0" flags="0x204"/>
      <component glyphName="dieresis" x="60" y="125" flags="0x4"/>
    </TTGlyph>
    <TTGlyph name="Egrave" xMin="60" yMin="0" xMax="565" yMax="935">
      <component glyphName="E" x="0" y="0" flags="0x204"/>
      <component glyphName="grave" x="79" y="100" flags="0x4"/>
    </TTGlyph>
    <TTGlyph name="Eth" xMin="60" yMin="0" xMax="693" yMax="700">
      <contour>
        <pt x="60" y="330" on="1"/>
        <pt x="60" y="409" on="1"/>
        <pt x="145" y="409" on="1"/>
        <pt x="145" y="620" on="1"/>
        <pt x="60" y="640" on="1"/>
        <pt x="60" y="695" on="1"/>
        <pt x="250" y="700" on="1"/>
        <pt x="378" y="700" on="1"/>
        <pt x="452" y="700" on="0"/>
        <pt x="569" y="655" on="0"/>
        <pt x="650" y="568" on="0"/>
        <pt x="693" y="441" on="0"/>
        <pt x="693" y="359" on="1"/>
        <pt x="693" y="277" on="0"/>
        <pt x="646" y="145" on="0"/>
        <pt x="560" y="51" on="0"/>
        <pt x="438" y="0" on="0"/>
        <pt x="363" y="0" on="1"/>
        <pt x="60" y="0" on="1"/>
        <pt x="60" y="60" on="1"/>
        <pt x="145" y="80" on="1"/>
        <pt x="145" y="330" on="1"/>
      </contour>
      <contour>
        <pt x="249" y="620" on="1"/>
        <pt x="249" y="409" on="1"/>
        <pt x="405" y="409" on="1"/>
        <pt x="405" y="330" on="1"/>
        <pt x="249" y="330" on="1"/>
        <pt x="249" y="80" on="1"/>
        <pt x="368" y="80" on="1"/>
        <pt x="467" y="80" on="0"/>
        <pt x="578" y="216" on="0"/>
        <pt x="578" y="353" on="1"/>
        <pt x="578" y="491" on="0"/>
        <pt x="470" y="620" on="0"/>
        <pt x="373" y="620" on="1"/>
      </contour>
    </TTGlyph>
    <TTGlyph name="Euro" xMin="15" yMin="-10" xMax="588" yMax="710">
      <contour>
        <pt x="15" y="380" on="1"/>
        <pt x="15" y="450" on="1"/>
        <pt x="86" y="450" on="1"/>
        <pt x="97" y="507" on="0"/>
        <pt x="140" y="603" on="0"/>
        <pt x="204" y="667" on="0"/>
        <pt x="302" y="710" on="0"/>
        <pt x="364" y="710" on="1"/>
        <pt x="419" y="710" on="0"/>
        <pt x="515" y="690" on="0"/>
        <pt x="539" y="680" on="1"/>
        <pt x="563" y="670" on="1"/>
        <pt x="558" y="531" on="1"/>
        <pt x="493" y="531" on="1"/>
        <pt x="480" y="611" on="1"/>
        <pt x="432" y="630" on="0"/>
        <pt x="355" y="630" on="1"/>
        <pt x="317" y="630" on="0"/>
        <pt x="262" y="599" on="0"/>
        <pt x="226" y="548" on="0"/>
        <pt x="204" y="483" on="0"/>
        <pt x="199" y="450" on="1"/>
        <pt x="445" y="450" on="1"/>
        <pt x="445" y="380" on="1"/>
      </contour>
      <contour>
        <pt x="15" y="310" on="1"/>
        <pt x="15" y="240" on="1"/>
        <pt x="90" y="240" on="1"/>
        <pt x="91" y="230" on="0"/>
        <pt x="100" y="175" on="0"/>
        <pt x="129" y="106" on="0"/>
        <pt x="187" y="37" on="0"/>
        <pt x="238" y="13" on="1"/>
        <pt x="263" y="1" on="0"/>
        <pt x="316" y="-10" on="0"/>
        <pt x="342" y="-10" on="1"/>
        <pt x="393" y="-10" on="0"/>
        <pt x="470" y="8" on="0"/>
        <pt x="528" y="37" on="0"/>
        <pt x="578" y="75" on="1"/>
        <pt x="588" y="85" on="1"/>
        <pt x="548" y="145" on="1"/>
        <pt x="522" y="124" on="0"/>
        <pt x="474" y="101" on="0"/>
        <pt x="408" y="77" on="0"/>
        <pt x="369" y="77" on="1"/>
        <pt x="321" y="78" on="0"/>
        <pt x="258" y="113" on="0"/>
        <pt x="224" y="162" on="0"/>
        <pt x="204" y="217" on="0"/>
        <pt x="201" y="240" on="1"/>
        <pt x="445" y="240" on="1"/>
        <pt x="445" y="310" on="1"/>
      </contour>
    </TTGlyph>
    <TTGlyph name="F" xMin="40" yMin="0" xMax="535" yMax="700">
      <contour>
        <pt x="445" y="620" on="1"/>
        <pt x="230" y="620" on="1"/>
        <pt x="230" y="395" on="1"/>
        <pt x="460" y="395" on="1"/>
        <pt x="460" y="315" on="1"/>
        <pt x="230" y="315" on="1"/>
        <pt x="230" y="80" on="1"/>
        <pt x="330" y="60" on="1"/>
        <pt x="330" y="0" on="1"/>
        <pt x="40" y="0" on="1"/>
        <pt x="40" y="60" on="1"/>
        <pt x="125" y="80" on="1"/>
        <pt x="125" y="620" on="1"/>
        <pt x="40" y="640" on="1"/>
        <pt x="40" y="695" on="1"/>
        <pt x="230" y="700" on="1"/>
        <pt x="535" y="700" on="1"/>
        <pt x="535" y="535" on="1"/>
        <pt x="470" y="535" on="1"/>
      </contour>
    </TTGlyph>
    <TTGlyph name="G" xMin="60" yMin="-10" xMax="710" yMax="710">
      <contour>
        <pt x="635" y="264" on="1"/>
        <pt x="635" y="50" on="1"/>
        <pt x="634" y="50" on="0"/>
        <pt x="600" y="31" on="0"/>
        <pt x="535" y="8" on="0"/>
        <pt x="440" y="-10" on="0"/>
        <pt x="380" y="-10" on="1"/>
        <pt x="227" y="-10" on="0"/>
        <pt x="60" y="167" on="0"/>
        <pt x="60" y="337" on="1"/>
        <pt x="60" y="422" on="0"/>
        <pt x="107" y="560" on="0"/>
        <pt x="195" y="657" on="0"/>
        <pt x="318" y="710" on="0"/>
        <pt x="395" y="710" on="1"/>
        <pt x="418" y="710" on="0"/>
        <pt x="473" y="703" on="0"/>
        <pt x="526" y="691" on="0"/>
        <pt x="573" y="678" on="0"/>
        <pt x="588" y="672" on="1"/>
        <pt x="620" y="660" on="1"/>
        <pt x="615" y="495" on="1"/>
        <pt x="550" y="495" on="1"/>
        <pt x="520" y="605" on="1"/>
        <pt x="458" y="625" on="0"/>
        <pt x="385" y="625" on="1"/>
        <pt x="283" y="625" on="0"/>
        <pt x="175" y="479" on="0"/>
        <pt x="175" y="343" on="1"/>
        <pt x="175" y="208" on="0"/>
        <pt x="293" y="75" on="0"/>
        <pt x="395" y="75" on="1"/>
        <pt x="456" y="75" on="0"/>
        <pt x="516" y="94" on="1"/>
        <pt x="535" y="100" on="1"/>
        <pt x="535" y="264" on="1"/>
        <pt x="450" y="284" on="1"/>
        <pt x="450" y="339" on="1"/>
        <pt x="710" y="344" on="1"/>
        <pt x="710" y="284" on="1"/>
      </contour>
    </TTGlyph>
    <TTGlyph name="H" xMin="40" yMin="0" xMax="755" yMax="700">
      <contour>
        <pt x="325" y="60" on="1"/>
        <pt x="325" y="0" on="1"/>
        <pt x="40" y="0" on="1"/>
        <pt x="40" y="60" on="1"/>
        <pt x="125" y="80" on="1"/>
        <pt x="125" y="620" on="1"/>
        <pt x="40" y="640" on="1"/>
        <pt x="40" y="695" on="1"/>
        <pt x="325" y="700" on="1"/>
        <pt x="325" y="640" on="1"/>
        <pt x="230" y="620" on="1"/>
        <pt x="230" y="400" on="1"/>
        <pt x="565" y="400" on="1"/>
        <pt x="565" y="620" on="1"/>
        <pt x="470" y="640" on="1"/>
        <pt x="470" y="695" on="1"/>
        <pt x="755" y="700" on="1"/>
        <pt x="755" y="640" on="1"/>
        <pt x="670" y="620" on="1"/>
        <pt x="670" y="80" on="1"/>
        <pt x="755" y="60" on="1"/>
        <pt x="755" y="0" on="1"/>
        <pt x="470" y="0" on="1"/>
        <pt x="470" y="60" on="1"/>
        <pt x="565" y="80" on="1"/>
        <pt x="565" y="320" on="1"/>
        <pt x="230" y="320" on="1"/>
        <pt x="230" y="80" on="1"/>
      </contour>
    </TTGlyph>
    <TTGlyph name="I" xMin="40" yMin="0" xMax="315" yMax="700">
      <contour>
        <pt x="315" y="60" on="1"/>
        <pt x="315" y="0" on="1"/>
        <pt x="40" y="0" on="1"/>
        <pt x="40" y="60" on="1"/>
        <pt x="125" y="80" on="1"/>
        <pt x="125" y="620" on="1"/>
        <pt x="40" y="640" on="1"/>
        <pt x="40" y="695" on="1"/>
        <pt x="315" y="700" on="1"/>
        <pt x="315" y="640" on="1"/>
        <pt x="230" y="620" on="1"/>
        <pt x="230" y="80" on="1"/>
      </contour>
    </TTGlyph>
    <TTGlyph name="Iacute" xMin="40" yMin="0" xMax="330" yMax="935">
      <component glyphName="I" x="0" y="0" flags="0x204"/>
      <component glyphName="acute" x="5" y="100" flags="0x4"/>
    </TTGlyph>
    <TTGlyph name="Icircumflex" xMin="9" yMin="0" xMax="345" yMax="920">
      <contour>
        <pt x="305" y="750" on="1"/>
        <pt x="179" y="843" on="1"/>
        <pt x="49" y="750" on="1"/>
        <pt x="9" y="795" on="1"/>
        <pt x="147" y="915" on="1"/>
        <pt x="207" y="920" on="1"/>
        <pt x="345" y="795" on="1"/>
      </contour>
      <contour>
        <pt x="317" y="60" on="1"/>
        <pt x="317" y="0" on="1"/>
        <pt x="42" y="0" on="1"/>
        <pt x="42" y="60" on="1"/>
        <pt x="127" y="80" on="1"/>
        <pt x="127" y="620" on="1"/>
        <pt x="42" y="640" on="1"/>
        <pt x="42" y="695" on="1"/>
        <pt x="317" y="700" on="1"/>
        <pt x="317" y="640" on="1"/>
        <pt x="232" y="620" on="1"/>
        <pt x="232" y="80" on="1"/>
      </contour>
    </TTGlyph>
    <TTGlyph name="Idieresis" xMin="21" yMin="0" xMax="336" yMax="885">
      <component glyphName="I" x="0" y="0" flags="0x204"/>
      <component glyphName="dieresis" x="-79" y="125" flags="0x4"/>
    </TTGlyph>
    <TTGlyph name="Igrave" xMin="20" yMin="0" xMax="315" yMax="935">
      <component glyphName="I" x="0" y="0" flags="0x204"/>
      <component glyphName="grave" x="-75" y="100" flags="0x4"/>
    </TTGlyph>
    <TTGlyph name="J" xMin="-20" yMin="-150" xMax="319" yMax="700">
      <contour>
        <pt x="44" y="695" on="1"/>
        <pt x="319" y="700" on="1"/>
        <pt x="319" y="640" on="1"/>
        <pt x="234" y="620" on="1"/>
        <pt x="234" y="45" on="1"/>
        <pt x="234" y="-46" on="0"/>
        <pt x="133" y="-150" on="0"/>
        <pt x="44" y="-150" on="1"/>
        <pt x="-20" y="-145" on="1"/>
        <pt x="-11" y="-70" on="1"/>
        <pt x="39" y="-70" on="1"/>
        <pt x="129" y="-70" on="0"/>
        <pt x="129" y="25" on="1"/>
        <pt x="129" y="620" on="1"/>
        <pt x="44" y="640" on="1"/>
      </contour>
    </TTGlyph>
    <TTGlyph name="K" xMin="40" yMin="0" xMax="700" yMax="700">
      <contour>
        <pt x="325" y="60" on="1"/>
        <pt x="325" y="0" on="1"/>
        <pt x="40" y="0" on="1"/>
        <pt x="40" y="60" on="1"/>
        <pt x="125" y="80" on="1"/>
        <pt x="125" y="620" on="1"/>
        <pt x="40" y="640" on="1"/>
        <pt x="40" y="695" on="1"/>
        <pt x="325" y="700" on="1"/>
        <pt x="325" y="640" on="1"/>
        <pt x="230" y="620" on="1"/>
        <pt x="230" y="400" on="1"/>
        <pt x="322" y="400" on="1"/>
        <pt x="495" y="695" on="1"/>
        <pt x="660" y="700" on="1"/>
        <pt x="660" y="640" on="1"/>
        <pt x="561" y="620" on="1"/>
        <pt x="409" y="367" on="1"/>
        <pt x="615" y="80" on="1"/>
        <pt x="700" y="60" on="1"/>
        <pt x="700" y="0" on="1"/>
        <pt x="415" y="0" on="1"/>
        <pt x="415" y="60" on="1"/>
        <pt x="500" y="80" on="1"/>
        <pt x="328" y="320" on="1"/>
        <pt x="230" y="320" on="1"/>
        <pt x="230" y="80" on="1"/>
      </contour>
    </TTGlyph>
    <TTGlyph name="L" xMin="35" yMin="0" xMax="520" yMax="700">
      <contour>
        <pt x="225" y="620" on="1"/>
        <pt x="225" y="80" on="1"/>
        <pt x="430" y="80" on="1"/>
        <pt x="450" y="195" on="1"/>
        <pt x="520" y="195" on="1"/>
        <pt x="520" y="0" on="1"/>
        <pt x="35" y="0" on="1"/>
        <pt x="35" y="60" on="1"/>
        <pt x="120" y="80" on="1"/>
        <pt x="120" y="620" on="1"/>
        <pt x="35" y="640" on="1"/>
        <pt x="35" y="695" on="1"/>
        <pt x="310" y="700" on="1"/>
        <pt x="310" y="640" on="1"/>
      </contour>
    </TTGlyph>
    <TTGlyph name="Lslash" xMin="25" yMin="0" xMax="530" yMax="700">
      <contour>
        <pt x="235" y="620" on="1"/>
        <pt x="235" y="402" on="1"/>
        <pt x="380" y="472" on="1"/>
        <pt x="401" y="397" on="1"/>
        <pt x="235" y="317" on="1"/>
        <pt x="235" y="80" on="1"/>
        <pt x="440" y="80" on="1"/>
        <pt x="460" y="195" on="1"/>
        <pt x="530" y="195" on="1"/>
        <pt x="530" y="0" on="1"/>
        <pt x="45" y="0" on="1"/>
        <pt x="45" y="60" on="1"/>
        <pt x="130" y="80" on="1"/>
        <pt x="130" y="273" on="1"/>
        <pt x="46" y="233" on="1"/>
        <pt x="25" y="308" on="1"/>
        <pt x="130" y="358" on="1"/>
        <pt x="130" y="620" on="1"/>
        <pt x="45" y="640" on="1"/>
        <pt x="45" y="695" on="1"/>
        <pt x="320" y="700" on="1"/>
        <pt x="320" y="640" on="1"/>
      </contour>
    </TTGlyph>
    <TTGlyph name="M" xMin="40" yMin="0" xMax="845" yMax="700">
      <contour>
        <pt x="565" y="0" on="1"/>
        <pt x="565" y="60" on="1"/>
        <pt x="660" y="80" on="1"/>
        <pt x="660" y="580" on="1"/>
        <pt x="630" y="505" on="1"/>
        <pt x="475" y="190" on="1"/>
        <pt x="395" y="185" on="1"/>
        <pt x="240" y="510" on="1"/>
        <pt x="215" y="580" on="1"/>
        <pt x="215" y="80" on="1"/>
        <pt x="310" y="60" on="1"/>
        <pt x="310" y="0" on="1"/>
        <pt x="40" y="0" on="1"/>
        <pt x="40" y="60" on="1"/>
        <pt x="125" y="80" on="1"/>
        <pt x="125" y="620" on="1"/>
        <pt x="40" y="640" on="1"/>
        <pt x="40" y="695" on="1"/>
        <pt x="265" y="700" on="1"/>
        <pt x="446" y="300" on="1"/>
        <pt x="635" y="695" on="1"/>
        <pt x="845" y="700" on="1"/>
        <pt x="845" y="640" on="1"/>
        <pt x="760" y="620" on="1"/>
        <pt x="760" y="80" on="1"/>
        <pt x="845" y="60" on="1"/>
        <pt x="845" y="0" on="1"/>
      </contour>
    </TTGlyph>
    <TTGlyph name="N" xMin="40" yMin="0" xMax="755" yMax="700">
      <contour>
        <pt x="545" y="0" on="1"/>
        <pt x="215" y="551" on="1"/>
        <pt x="215" y="80" on="1"/>
        <pt x="310" y="60" on="1"/>
        <pt x="310" y="0" on="1"/>
        <pt x="40" y="0" on="1"/>
        <pt x="40" y="60" on="1"/>
        <pt x="125" y="80" on="1"/>
        <pt x="125" y="620" on="1"/>
        <pt x="40" y="640" on="1"/>
        <pt x="40" y="695" on="1"/>
        <pt x="250" y="700" on="1"/>
        <pt x="580" y="141" on="1"/>
        <pt x="580" y="620" on="1"/>
        <pt x="495" y="640" on="1"/>
        <pt x="495" y="695" on="1"/>
        <pt x="755" y="700" on="1"/>
        <pt x="755" y="640" on="1"/>
        <pt x="670" y="620" on="1"/>
        <pt x="670" y="0" on="1"/>
      </contour>
    </TTGlyph>
    <TTGlyph name="Ntilde" xMin="40" yMin="0" xMax="755" yMax="895">
      <component glyphName="N" x="0" y="0" flags="0x204"/>
      <component glyphName="tilde" x="106" y="131" flags="0x4"/>
    </TTGlyph>
    <TTGlyph name="O" xMin="60" yMin="-10" xMax="695" yMax="710">
      <contour>
        <pt x="60" y="342" on="1"/>
        <pt x="60" y="426" on="0"/>
        <pt x="105" y="562" on="0"/>
        <pt x="191" y="659" on="0"/>
        <pt x="310" y="710" on="0"/>
        <pt x="383" y="710" on="1"/>
        <pt x="456" y="710" on="0"/>
        <pt x="572" y="661" on="0"/>
        <pt x="653" y="569" on="0"/>
        <pt x="695" y="439" on="0"/>
        <pt x="695" y="358" on="1"/>
        <pt x="695" y="277" on="0"/>
        <pt x="647" y="142" on="0"/>
        <pt x="560" y="45" on="0"/>
        <pt x="438" y="-10" on="0"/>
        <pt x="364" y="-10" on="1"/>
        <pt x="217" y="-10" on="0"/>
        <pt x="60" y="172" on="0"/>
      </contour>
      <contour>
        <pt x="380" y="625" on="1"/>
        <pt x="175" y="625" on="0"/>
        <pt x="175" y="350" on="1"/>
        <pt x="175" y="75" on="0"/>
        <pt x="370" y="75" on="1"/>
        <pt x="470" y="75" on="0"/>
        <pt x="580" y="215" on="0"/>
        <pt x="580" y="355" on="1"/>
        <pt x="580" y="625" on="0"/>
      </contour>
    </TTGlyph>
    <TTGlyph name="OE" xMin="60" yMin="-5" xMax="875" yMax="705">
      <contour>
        <pt x="385" y="705" on="1"/>
        <pt x="535" y="700" on="1"/>
        <pt x="865" y="705" on="1"/>
        <pt x="865" y="530" on="1"/>
        <pt x="800" y="530" on="1"/>
        <pt x="775" y="620" on="1"/>
        <pt x="560" y="620" on="1"/>
        <pt x="560" y="405" on="1"/>
        <pt x="790" y="405" on="1"/>
        <pt x="790" y="325" on="1"/>
        <pt x="560" y="325" on="1"/>
        <pt x="560" y="80" on="1"/>
        <pt x="790" y="80" on="1"/>
        <pt x="810" y="180" on="1"/>
        <pt x="875" y="180" on="1"/>
        <pt x="875" y="0" on="1"/>
        <pt x="525" y="0" on="1"/>
        <pt x="365" y="-5" on="1"/>
        <pt x="217" y="-5" on="0"/>
        <pt x="60" y="173" on="0"/>
        <pt x="60" y="342" on="1"/>
        <pt x="60" y="426" on="0"/>
        <pt x="106" y="560" on="0"/>
        <pt x="190" y="655" on="0"/>
        <pt x="310" y="705" on="0"/>
      </contour>
      <contour>
        <pt x="455" y="620" on="1"/>
        <pt x="432" y="622" on="0"/>
        <pt x="395" y="625" on="0"/>
        <pt x="380" y="625" on="1"/>
        <pt x="175" y="625" on="0"/>
        <pt x="175" y="350" on="1"/>
        <pt x="175" y="75" on="0"/>
        <pt x="370" y="75" on="1"/>
        <pt x="455" y="80" on="1"/>
      </contour>
    </TTGlyph>
    <TTGlyph name="Oacute" xMin="60" yMin="-10" xMax="695" yMax="935">
      <component glyphName="O" x="0" y="0" flags="0x204"/>
      <component glyphName="acute" x="185" y="100" flags="0x4"/>
    </TTGlyph>
    <TTGlyph name="Ocircumflex" xMin="60" yMin="-10" xMax="695" yMax="920">
      <component glyphName="O" x="0" y="0" flags="0x204"/>
      <component glyphName="circumflex" x="113" y="100" flags="0x4"/>
    </TTGlyph>
    <TTGlyph name="Odieresis" xMin="60" yMin="-10" xMax="695" yMax="885">
      <component glyphName="O" x="0" y="0" flags="0x204"/>
      <component glyphName="dieresis" x="120" y="125" flags="0x4"/>
    </TTGlyph>
    <TTGlyph name="Ograve" xMin="60" yMin="-10" xMax="695" yMax="935">
      <component glyphName="O" x="0" y="0" flags="0x204"/>
      <component glyphName="grave" x="140" y="100" flags="0x4"/>
    </TTGlyph>
    <TTGlyph name="Oslash" xMin="60" yMin="-105" xMax="695" yMax="785">
      <contour>
        <pt x="595" y="785" on="1"/>
        <pt x="660" y="750" on="1"/>
        <pt x="592" y="637" on="1"/>
        <pt x="695" y="543" on="0"/>
        <pt x="695" y="368" on="1"/>
        <pt x="695" y="282" on="0"/>
        <pt x="647" y="143" on="0"/>
        <pt x="560" y="44" on="0"/>
        <pt x="438" y="-10" on="0"/>
        <pt x="365" y="-10" on="1"/>
        <pt x="281" y="-10" on="0"/>
        <pt x="220" y="20" on="1"/>
        <pt x="145" y="-105" on="1"/>
        <pt x="80" y="-70" on="1"/>
        <pt x="159" y="61" on="1"/>
        <pt x="60" y="151" on="0"/>
        <pt x="60" y="345" on="1"/>
        <pt x="60" y="428" on="0"/>
        <pt x="106" y="563" on="0"/>
        <pt x="191" y="658" on="0"/>
        <pt x="311" y="710" on="0"/>
        <pt x="385" y="710" on="1"/>
        <pt x="465" y="710" on="0"/>
        <pt x="531" y="678" on="1"/>
      </contour>
      <contour>
        <pt x="537" y="546" on="1"/>
        <pt x="269" y="101" on="1"/>
        <pt x="310" y="75" on="0"/>
        <pt x="370" y="75" on="1"/>
        <pt x="471" y="75" on="0"/>
        <pt x="580" y="215" on="0"/>
        <pt x="580" y="346" on="1"/>
        <pt x="580" y="478" on="0"/>
      </contour>
      <contour>
        <pt x="483" y="599" on="1"/>
        <pt x="439" y="625" on="0"/>
        <pt x="380" y="625" on="1"/>
        <pt x="175" y="625" on="0"/>
        <pt x="175" y="350" on="1"/>
        <pt x="175" y="227" on="0"/>
        <pt x="216" y="156" on="1"/>
      </contour>
    </TTGlyph>
    <TTGlyph name="Otilde" xMin="60" yMin="-10" xMax="695" yMax="934">
      <component glyphName="O" x="0" y="0" flags="0x204"/>
      <component glyphName="tilde" x="93" y="170" flags="0x4"/>
    </TTGlyph>
    <TTGlyph name="P" xMin="40" yMin="0" xMax="565" yMax="700">
      <contour>
        <pt x="40" y="0" on="1"/>
        <pt x="40" y="60" on="1"/>
        <pt x="125" y="80" on="1"/>
        <pt x="125" y="620" on="1"/>
        <pt x="40" y="640" on="1"/>
        <pt x="40" y="695" on="1"/>
        <pt x="230" y="700" on="1"/>
        <pt x="335" y="700" on="1"/>
        <pt x="446" y="700" on="0"/>
        <pt x="565" y="590" on="0"/>
        <pt x="565" y="495" on="1"/>
        <pt x="565" y="380" on="0"/>
        <pt x="424" y="260" on="0"/>
        <pt x="295" y="260" on="1"/>
        <pt x="230" y="260" on="1"/>
        <pt x="230" y="80" on="1"/>
        <pt x="315" y="60" on="1"/>
        <pt x="315" y="0" on="1"/>
      </contour>
      <contour>
        <pt x="230" y="620" on="1"/>
        <pt x="230" y="340" on="1"/>
        <pt x="295" y="340" on="1"/>
        <pt x="460" y="340" on="0"/>
        <pt x="460" y="480" on="1"/>
        <pt x="460" y="542" on="0"/>
        <pt x="392" y="620" on="0"/>
        <pt x="330" y="620" on="1"/>
      </contour>
    </TTGlyph>
    <TTGlyph name="Q" xMin="60" yMin="-185" xMax="825" yMax="710">
      <contour>
        <pt x="785" y="-65" on="1"/>
        <pt x="825" y="-125" on="1"/>
        <pt x="724" y="-185" on="0"/>
        <pt x="670" y="-185" on="1"/>
        <pt x="631" y="-185" on="0"/>
        <pt x="540" y="-130" on="1"/>
        <pt x="341" y="-8" on="1"/>
        <pt x="204" y="3" on="0"/>
        <pt x="60" y="182" on="0"/>
        <pt x="60" y="346" on="1"/>
        <pt x="60" y="428" on="0"/>
        <pt x="109" y="562" on="0"/>
        <pt x="197" y="658" on="0"/>
        <pt x="320" y="710" on="0"/>
        <pt x="394" y="710" on="1"/>
        <pt x="468" y="710" on="0"/>
        <pt x="584" y="662" on="0"/>
        <pt x="663" y="571" on="0"/>
        <pt x="705" y="441" on="0"/>
        <pt x="705" y="360" on="1"/>
        <pt x="705" y="292" on="0"/>
        <pt x="673" y="177" on="0"/>
        <pt x="614" y="85" on="0"/>
        <pt x="530" y="21" on="0"/>
        <pt x="477" y="5" on="1"/>
        <pt x="585" y="-60" on="1"/>
        <pt x="652" y="-100" on="0"/>
        <pt x="690" y="-100" on="1"/>
        <pt x="719" y="-100" on="0"/>
        <pt x="769" y="-74" on="1"/>
      </contour>
      <contour>
        <pt x="390" y="625" on="1"/>
        <pt x="283" y="625" on="0"/>
        <pt x="170" y="489" on="0"/>
        <pt x="170" y="352" on="1"/>
        <pt x="170" y="216" on="0"/>
        <pt x="275" y="75" on="0"/>
        <pt x="380" y="75" on="1"/>
        <pt x="486" y="75" on="0"/>
        <pt x="595" y="216" on="0"/>
        <pt x="595" y="355" on="1"/>
        <pt x="595" y="625" on="0"/>
      </contour>
    </TTGlyph>
    <TTGlyph name="R" xMin="40" yMin="0" xMax="645" yMax="700">
      <contour>
        <pt x="40" y="0" on="1"/>
        <pt x="40" y="60" on="1"/>
        <pt x="125" y="80" on="1"/>
        <pt x="125" y="620" on="1"/>
        <pt x="40" y="640" on="1"/>
        <pt x="40" y="695" on="1"/>
        <pt x="230" y="700" on="1"/>
        <pt x="340" y="700" on="1"/>
        <pt x="446" y="700" on="0"/>
        <pt x="565" y="604" on="0"/>
        <pt x="565" y="520" on="1"/>
        <pt x="565" y="373" on="0"/>
        <pt x="435" y="325" on="1"/>
        <pt x="459" y="304" on="0"/>
        <pt x="495" y="235" on="1"/>
        <pt x="574" y="76" on="1"/>
        <pt x="645" y="60" on="1"/>
        <pt x="645" y="0" on="1"/>
        <pt x="495" y="0" on="1"/>
        <pt x="410" y="185" on="1"/>
        <pt x="375" y="260" on="0"/>
        <pt x="324" y="305" on="0"/>
        <pt x="275" y="305" on="1"/>
        <pt x="230" y="305" on="1"/>
        <pt x="230" y="80" on="1"/>
        <pt x="315" y="60" on="1"/>
        <pt x="315" y="0" on="1"/>
      </contour>
      <contour>
        <pt x="230" y="620" on="1"/>
        <pt x="230" y="380" on="1"/>
        <pt x="305" y="380" on="1"/>
        <pt x="378" y="380" on="0"/>
        <pt x="460" y="446" on="0"/>
        <pt x="460" y="500" on="1"/>
        <pt x="460" y="555" on="0"/>
        <pt x="390" y="620" on="0"/>
        <pt x="335" y="620" on="1"/>
      </contour>
    </TTGlyph>
    <TTGlyph name="S" xMin="70" yMin="-11" xMax="537" yMax="710">
      <contour>
        <pt x="150" y="205" on="1"/>
        <pt x="170" y="100" on="1"/>
        <pt x="188" y="90" on="0"/>
        <pt x="250" y="75" on="0"/>
        <pt x="280" y="75" on="1"/>
        <pt x="310" y="75" on="0"/>
        <pt x="366" y="90" on="0"/>
        <pt x="408" y="118" on="0"/>
        <pt x="433" y="157" on="0"/>
        <pt x="433" y="182" on="1"/>
        <pt x="433" y="211" on="0"/>
        <pt x="401" y="250" on="0"/>
        <pt x="350" y="279" on="0"/>
        <pt x="286" y="301" on="0"/>
        <pt x="253" y="313" on="1"/>
        <pt x="218" y="328" on="0"/>
        <pt x="153" y="359" on="0"/>
        <pt x="102" y="404" on="0"/>
        <pt x="72" y="468" on="0"/>
        <pt x="72" y="515" on="1"/>
        <pt x="72" y="565" on="0"/>
        <pt x="111" y="639" on="0"/>
        <pt x="176" y="687" on="0"/>
        <pt x="263" y="710" on="0"/>
        <pt x="311" y="710" on="1"/>
        <pt x="333" y="710" on="0"/>
        <pt x="383" y="704" on="0"/>
        <pt x="431" y="695" on="0"/>
        <pt x="473" y="684" on="0"/>
        <pt x="488" y="680" on="1"/>
        <pt x="520" y="670" on="1"/>
        <pt x="515" y="500" on="1"/>
        <pt x="450" y="500" on="1"/>
        <pt x="416" y="607" on="1"/>
        <pt x="388" y="616" on="0"/>
        <pt x="333" y="624" on="0"/>
        <pt x="304" y="624" on="1"/>
        <pt x="275" y="624" on="0"/>
        <pt x="228" y="609" on="0"/>
        <pt x="195" y="583" on="0"/>
        <pt x="177" y="551" on="0"/>
        <pt x="177" y="534" on="1"/>
        <pt x="178" y="492" on="0"/>
        <pt x="232" y="444" on="0"/>
        <pt x="312" y="410" on="0"/>
        <pt x="405" y="380" on="0"/>
        <pt x="484" y="335" on="0"/>
        <pt x="537" y="263" on="0"/>
        <pt x="537" y="205" on="1"/>
        <pt x="537" y="153" on="0"/>
        <pt x="497" y="73" on="0"/>
        <pt x="427" y="18" on="0"/>
        <pt x="331" y="-11" on="0"/>
        <pt x="276" y="-11" on="1"/>
        <pt x="254" y="-11" on="0"/>
        <pt x="203" y="-5" on="0"/>
        <pt x="154" y="4" on="0"/>
        <pt x="112" y="15" on="0"/>
        <pt x="98" y="20" on="1"/>
        <pt x="70" y="30" on="1"/>
        <pt x="70" y="205" on="1"/>
      </contour>
    </TTGlyph>
    <TTGlyph name="Scaron" xMin="70" yMin="-11" xMax="537" yMax="930">
      <component glyphName="S" x="0" y="0" flags="0x4"/>
      <component glyphName="caron" x="33" y="110" flags="0x4"/>
    </TTGlyph>
    <TTGlyph name="T" xMin="10" yMin="0" xMax="555" yMax="700">
      <contour>
        <pt x="435" y="60" on="1"/>
        <pt x="435" y="0" on="1"/>
        <pt x="130" y="0" on="1"/>
        <pt x="130" y="60" on="1"/>
        <pt x="230" y="80" on="1"/>
        <pt x="230" y="620" on="1"/>
        <pt x="100" y="620" on="1"/>
        <pt x="75" y="520" on="1"/>
        <pt x="10" y="520" on="1"/>
        <pt x="10" y="700" on="1"/>
        <pt x="555" y="700" on="1"/>
        <pt x="555" y="520" on="1"/>
        <pt x="490" y="520" on="1"/>
        <pt x="465" y="620" on="1"/>
        <pt x="335" y="620" on="1"/>
        <pt x="335" y="80" on="1"/>
      </contour>
    </TTGlyph>
    <TTGlyph name="Thorn" xMin="40" yMin="0" xMax="565" yMax="700">
      <contour>
        <pt x="230" y="620" on="1"/>
        <pt x="230" y="565" on="1"/>
        <pt x="335" y="565" on="1"/>
        <pt x="443" y="565" on="0"/>
        <pt x="565" y="467" on="0"/>
        <pt x="565" y="380" on="1"/>
        <pt x="565" y="271" on="0"/>
        <pt x="428" y="155" on="0"/>
        <pt x="300" y="155" on="1"/>
        <pt x="230" y="155" on="1"/>
        <pt x="230" y="80" on="1"/>
        <pt x="315" y="60" on="1"/>
        <pt x="315" y="0" on="1"/>
        <pt x="40" y="0" on="1"/>
        <pt x="40" y="60" on="1"/>
        <pt x="125" y="80" on="1"/>
        <pt x="125" y="620" on="1"/>
        <pt x="40" y="640" on="1"/>
        <pt x="40" y="695" on="1"/>
        <pt x="315" y="700" on="1"/>
        <pt x="315" y="640" on="1"/>
      </contour>
      <contour>
        <pt x="230" y="485" on="1"/>
        <pt x="230" y="235" on="1"/>
        <pt x="300" y="235" on="1"/>
        <pt x="379" y="235" on="0"/>
        <pt x="465" y="302" on="0"/>
        <pt x="465" y="360" on="1"/>
        <pt x="465" y="419" on="0"/>
        <pt x="393" y="485" on="0"/>
        <pt x="330" y="485" on="1"/>
      </contour>
    </TTGlyph>
    <TTGlyph name="U" xMin="40" yMin="-10" xMax="750" yMax="700">
      <contour>
        <pt x="665" y="620" on="1"/>
        <pt x="665" y="285" on="1"/>
        <pt x="665" y="138" on="0"/>
        <pt x="541" y="-10" on="0"/>
        <pt x="394" y="-10" on="1"/>
        <pt x="247" y="-10" on="0"/>
        <pt x="125" y="127" on="0"/>
        <pt x="125" y="270" on="1"/>
        <pt x="125" y="620" on="1"/>
        <pt x="40" y="640" on="1"/>
        <pt x="40" y="695" on="1"/>
        <pt x="325" y="700" on="1"/>
        <pt x="325" y="640" on="1"/>
        <pt x="230" y="620" on="1"/>
        <pt x="230" y="270" on="1"/>
        <pt x="230" y="160" on="0"/>
        <pt x="306" y="75" on="0"/>
        <pt x="397" y="75" on="1"/>
        <pt x="488" y="75" on="0"/>
        <pt x="560" y="168" on="0"/>
        <pt x="560" y="285" on="1"/>
        <pt x="560" y="620" on="1"/>
        <pt x="465" y="640" on="1"/>
        <pt x="465" y="695" on="1"/>
        <pt x="750" y="700" on="1"/>
        <pt x="750" y="640" on="1"/>
      </contour>
    </TTGlyph>
    <TTGlyph name="Uacute" xMin="40" yMin="-10" xMax="750" yMax="935">
      <component glyphName="U" x="0" y="0" flags="0x204"/>
      <component glyphName="acute" x="229" y="100" flags="0x4"/>
    </TTGlyph>
    <TTGlyph name="Ucircumflex" xMin="40" yMin="-10" xMax="750" yMax="920">
      <component glyphName="U" x="0" y="0" flags="0x204"/>
      <component glyphName="circumflex" x="134" y="100" flags="0x4"/>
    </TTGlyph>
    <TTGlyph name="Udieresis" xMin="40" yMin="-10" xMax="750" yMax="885">
      <component glyphName="U" x="0" y="0" flags="0x204"/>
      <component glyphName="dieresis" x="130" y="125" flags="0x4"/>
    </TTGlyph>
    <TTGlyph name="Ugrave" xMin="40" yMin="-10" xMax="750" yMax="935">
      <component glyphName="U" x="0" y="0" flags="0x204"/>
      <component glyphName="grave" x="140" y="100" flags="0x4"/>
    </TTGlyph>
    <TTGlyph name="V" xMin="5" yMin="0" xMax="695" yMax="700">
      <contour>
        <pt x="295" y="0" on="1"/>
        <pt x="82" y="620" on="1"/>
        <pt x="5" y="640" on="1"/>
        <pt x="5" y="695" on="1"/>
        <pt x="285" y="700" on="1"/>
        <pt x="285" y="640" on="1"/>
        <pt x="194" y="621" on="1"/>
        <pt x="351" y="135" on="1"/>
        <pt x="518" y="620" on="1"/>
        <pt x="425" y="640" on="1"/>
        <pt x="425" y="695" on="1"/>
        <pt x="695" y="700" on="1"/>
        <pt x="695" y="640" on="1"/>
        <pt x="617" y="620" on="1"/>
        <pt x="395" y="0" on="1"/>
      </contour>
    </TTGlyph>
    <TTGlyph name="W" xMin="5" yMin="0" xMax="1030" yMax="700">
      <contour>
        <pt x="250" y="0" on="1"/>
        <pt x="83" y="620" on="1"/>
        <pt x="5" y="640" on="1"/>
        <pt x="5" y="695" on="1"/>
        <pt x="285" y="700" on="1"/>
        <pt x="285" y="640" on="1"/>
        <pt x="198" y="620" on="1"/>
        <pt x="305" y="167" on="1"/>
        <pt x="470" y="695" on="1"/>
        <pt x="565" y="700" on="1"/>
        <pt x="727" y="156" on="1"/>
        <pt x="851" y="620" on="1"/>
        <pt x="760" y="640" on="1"/>
        <pt x="760" y="695" on="1"/>
        <pt x="1030" y="700" on="1"/>
        <pt x="1030" y="640" on="1"/>
        <pt x="951" y="620" on="1"/>
        <pt x="775" y="0" on="1"/>
        <pt x="665" y="0" on="1"/>
        <pt x="516" y="568" on="1"/>
        <pt x="485" y="455" on="1"/>
        <pt x="350" y="0" on="1"/>
      </contour>
    </TTGlyph>
    <TTGlyph name="X" xMin="10" yMin="0" xMax="690" yMax="700">
      <contour>
        <pt x="10" y="0" on="1"/>
        <pt x="10" y="60" on="1"/>
        <pt x="75" y="75" on="1"/>
        <pt x="285" y="355" on="1"/>
        <pt x="100" y="620" on="1"/>
        <pt x="25" y="640" on="1"/>
        <pt x="25" y="695" on="1"/>
        <pt x="290" y="700" on="1"/>
        <pt x="290" y="640" on="1"/>
        <pt x="225" y="620" on="1"/>
        <pt x="355" y="430" on="1"/>
        <pt x="485" y="620" on="1"/>
        <pt x="415" y="640" on="1"/>
        <pt x="415" y="695" on="1"/>
        <pt x="680" y="700" on="1"/>
        <pt x="680" y="640" on="1"/>
        <pt x="590" y="620" on="1"/>
        <pt x="410" y="360" on="1"/>
        <pt x="605" y="80" on="1"/>
        <pt x="690" y="60" on="1"/>
        <pt x="690" y="0" on="1"/>
        <pt x="420" y="0" on="1"/>
        <pt x="420" y="60" on="1"/>
        <pt x="480" y="75" on="1"/>
        <pt x="340" y="280" on="1"/>
        <pt x="190" y="80" on="1"/>
        <pt x="275" y="60" on="1"/>
        <pt x="275" y="0" on="1"/>
      </contour>
    </TTGlyph>
    <TTGlyph name="Y" xMin="10" yMin="0" xMax="635" yMax="700">
      <contour>
        <pt x="185" y="0" on="1"/>
        <pt x="185" y="60" on="1"/>
        <pt x="270" y="80" on="1"/>
        <pt x="270" y="259" on="1"/>
        <pt x="77" y="621" on="1"/>
        <pt x="10" y="640" on="1"/>
        <pt x="10" y="695" on="1"/>
        <pt x="260" y="700" on="1"/>
        <pt x="260" y="640" on="1"/>
        <pt x="192" y="620" on="1"/>
        <pt x="325" y="340" on="1"/>
        <pt x="472" y="620" on="1"/>
        <pt x="395" y="640" on="1"/>
        <pt x="395" y="695" on="1"/>
        <pt x="635" y="700" on="1"/>
        <pt x="635" y="640" on="1"/>
        <pt x="573" y="622" on="1"/>
        <pt x="375" y="261" on="1"/>
        <pt x="375" y="80" on="1"/>
        <pt x="460" y="60" on="1"/>
        <pt x="460" y="0" on="1"/>
      </contour>
    </TTGlyph>
    <TTGlyph name="Yacute" xMin="10" yMin="0" xMax="635" yMax="935">
      <component glyphName="Y" x="0" y="0" flags="0x204"/>
      <component glyphName="acute" x="180" y="100" flags="0x4"/>
    </TTGlyph>
    <TTGlyph name="Ydieresis" xMin="10" yMin="0" xMax="635" yMax="885">
      <component glyphName="Y" x="0" y="0" flags="0x204"/>
      <component glyphName="dieresis" x="60" y="125" flags="0x4"/>
    </TTGlyph>
    <TTGlyph name="Z" xMin="40" yMin="0" xMax="575" yMax="700">
      <contour>
        <pt x="70" y="700" on="1"/>
        <pt x="575" y="700" on="1"/>
        <pt x="575" y="630" on="1"/>
        <pt x="175" y="80" on="1"/>
        <pt x="485" y="80" on="1"/>
        <pt x="505" y="180" on="1"/>
        <pt x="570" y="180" on="1"/>
        <pt x="570" y="0" on="1"/>
        <pt x="40" y="0" on="1"/>
        <pt x="40" y="70" on="1"/>
        <pt x="440" y="620" on="1"/>
        <pt x="160" y="620" on="1"/>
        <pt x="135" y="520" on="1"/>
        <pt x="70" y="520" on="1"/>
      </contour>
    </TTGlyph>
    <TTGlyph name="Zcaron" xMin="40" yMin="0" xMax="575" yMax="930">
      <component glyphName="Z" x="0" y="0" flags="0x204"/>
      <component glyphName="caron" x="43" y="110" flags="0x4"/>
    </TTGlyph>
    <TTGlyph name="a" xMin="45" yMin="-10" xMax="535" yMax="540">
      <contour>
        <pt x="75" y="500" on="1"/>
        <pt x="183" y="540" on="0"/>
        <pt x="273" y="540" on="1"/>
        <pt x="361" y="540" on="0"/>
        <pt x="455" y="469" on="0"/>
        <pt x="455" y="385" on="1"/>
        <pt x="455" y="80" on="1"/>
        <pt x="535" y="60" on="1"/>
        <pt x="535" y="5" on="1"/>
        <pt x="380" y="0" on="1"/>
        <pt x="359" y="70" on="1"/>
        <pt x="279" y="-10" on="0"/>
        <pt x="201" y="-10" on="1"/>
        <pt x="123" y="-10" on="0"/>
        <pt x="45" y="68" on="0"/>
        <pt x="45" y="140" on="1"/>
        <pt x="45" y="295" on="0"/>
        <pt x="275" y="295" on="1"/>
        <pt x="355" y="295" on="1"/>
        <pt x="355" y="375" on="1"/>
        <pt x="355" y="465" on="0"/>
        <pt x="260" y="465" on="1"/>
        <pt x="206" y="465" on="0"/>
        <pt x="171" y="454" on="1"/>
        <pt x="159" y="450" on="1"/>
        <pt x="145" y="375" on="1"/>
        <pt x="80" y="375" on="1"/>
      </contour>
      <contour>
        <pt x="355" y="230" on="1"/>
        <pt x="285" y="230" on="1"/>
        <pt x="210" y="230" on="0"/>
        <pt x="147" y="191" on="0"/>
        <pt x="147" y="150" on="1"/>
        <pt x="147" y="111" on="0"/>
        <pt x="184" y="70" on="0"/>
        <pt x="219" y="70" on="1"/>
        <pt x="236" y="70" on="0"/>
        <pt x="271" y="82" on="0"/>
        <pt x="304" y="100" on="0"/>
        <pt x="330" y="121" on="0"/>
        <pt x="338" y="130" on="1"/>
        <pt x="355" y="150" on="1"/>
      </contour>
    </TTGlyph>
    <TTGlyph name="aacute" xMin="45" yMin="-10" xMax="535" yMax="801">
      <component glyphName="a" x="0" y="0" flags="0x204"/>
      <component glyphName="acute.x" x="129" y="-4" flags="0x4"/>
    </TTGlyph>
    <TTGlyph name="acircumflex" xMin="45" yMin="-10" xMax="535" yMax="787">
      <component glyphName="a" x="0" y="0" flags="0x204"/>
      <component glyphName="circumflex.x" x="0" y="-33" flags="0x4"/>
    </TTGlyph>
    <TTGlyph name="acute" xMin="90" yMin="635" xMax="325" yMax="835">
      <contour>
        <pt x="325" y="760" on="1"/>
        <pt x="130" y="635" on="1"/>
        <pt x="90" y="690" on="1"/>
        <pt x="275" y="835" on="1"/>
      </contour>
    </TTGlyph>
    <TTGlyph name="acute.x" xMin="30" yMin="600" xMax="275" yMax="805">
      <contour>
        <pt x="275" y="730" on="1"/>
        <pt x="65" y="600" on="1"/>
        <pt x="30" y="650" on="1"/>
        <pt x="225" y="805" on="1"/>
      </contour>
    </TTGlyph>
    <TTGlyph name="adieresis" xMin="45" yMin="-10" xMax="535" yMax="760">
      <component glyphName="a" x="0" y="0" flags="0x204"/>
      <component glyphName="dieresis" x="5" y="0" flags="0x4"/>
    </TTGlyph>
    <TTGlyph name="ae" xMin="45" yMin="-10" xMax="800" yMax="540">
      <contour>
        <pt x="800" y="305" on="1"/>
        <pt x="795" y="252" on="1"/>
        <pt x="450" y="250" on="1"/>
        <pt x="450" y="168" on="0"/>
        <pt x="529" y="70" on="0"/>
        <pt x="595" y="70" on="1"/>
        <pt x="617" y="70" on="0"/>
        <pt x="661" y="78" on="0"/>
        <pt x="700" y="90" on="0"/>
        <pt x="732" y="105" on="0"/>
        <pt x="743" y="112" on="1"/>
        <pt x="763" y="125" on="1"/>
        <pt x="798" y="73" on="1"/>
        <pt x="764" y="46" on="0"/>
        <pt x="707" y="18" on="0"/>
        <pt x="630" y="-10" on="0"/>
        <pt x="585" y="-10" on="1"/>
        <pt x="443" y="-10" on="0"/>
        <pt x="388" y="96" on="1"/>
        <pt x="381" y="87" on="0"/>
        <pt x="348" y="51" on="0"/>
        <pt x="298" y="16" on="0"/>
        <pt x="234" y="-10" on="0"/>
        <pt x="195" y="-10" on="1"/>
        <pt x="123" y="-10" on="0"/>
        <pt x="45" y="68" on="0"/>
        <pt x="45" y="140" on="1"/>
        <pt x="45" y="295" on="0"/>
        <pt x="275" y="295" on="1"/>
        <pt x="355" y="295" on="1"/>
        <pt x="355" y="375" on="1"/>
        <pt x="355" y="465" on="0"/>
        <pt x="260" y="465" on="1"/>
        <pt x="206" y="465" on="0"/>
        <pt x="171" y="454" on="1"/>
        <pt x="159" y="450" on="1"/>
        <pt x="145" y="375" on="1"/>
        <pt x="80" y="375" on="1"/>
        <pt x="75" y="500" on="1"/>
        <pt x="183" y="540" on="0"/>
        <pt x="270" y="540" on="1"/>
        <pt x="390" y="540" on="0"/>
        <pt x="426" y="470" on="1"/>
        <pt x="490" y="540" on="0"/>
        <pt x="590" y="540" on="1"/>
        <pt x="800" y="540" on="0"/>
      </contour>
      <contour>
        <pt x="355" y="230" on="1"/>
        <pt x="285" y="230" on="1"/>
        <pt x="210" y="230" on="0"/>
        <pt x="145" y="192" on="0"/>
        <pt x="145" y="150" on="1"/>
        <pt x="145" y="106" on="0"/>
        <pt x="190" y="70" on="0"/>
        <pt x="217" y="70" on="1"/>
        <pt x="242" y="70" on="0"/>
        <pt x="286" y="88" on="0"/>
        <pt x="319" y="113" on="0"/>
        <pt x="342" y="138" on="0"/>
        <pt x="348" y="146" on="1"/>
        <pt x="355" y="155" on="1"/>
      </contour>
      <contour>
        <pt x="454" y="325" on="1"/>
        <pt x="694" y="325" on="1"/>
        <pt x="694" y="386" on="0"/>
        <pt x="642" y="462" on="0"/>
        <pt x="584" y="462" on="1"/>
        <pt x="527" y="462" on="0"/>
        <pt x="459" y="385" on="0"/>
      </contour>
    </TTGlyph>
    <TTGlyph name="agrave" xMin="45" yMin="-10" xMax="535" yMax="801">
      <component glyphName="a" x="0" y="0" flags="0x204"/>
      <component glyphName="grave.x" x="90" y="-4" flags="0x4"/>
    </TTGlyph>
    <TTGlyph name="ampersand" xMin="70" yMin="-10" xMax="630" yMax="710">
      <contour>
        <pt x="550" y="330" on="1"/>
        <pt x="550" y="210" on="1"/>
        <pt x="550" y="105" on="0"/>
        <pt x="420" y="-10" on="0"/>
        <pt x="302" y="-10" on="1"/>
        <pt x="185" y="-10" on="0"/>
        <pt x="70" y="99" on="0"/>
        <pt x="70" y="195" on="1"/>
        <pt x="70" y="229" on="0"/>
        <pt x="96" y="286" on="0"/>
        <pt x="134" y="331" on="0"/>
        <pt x="176" y="363" on="0"/>
        <pt x="191" y="372" on="1"/>
        <pt x="205" y="380" on="1"/>
        <pt x="188" y="384" on="0"/>
        <pt x="147" y="407" on="0"/>
        <pt x="111" y="443" on="0"/>
        <pt x="87" y="495" on="0"/>
        <pt x="87" y="530" on="1"/>
        <pt x="87" y="621" on="0"/>
        <pt x="209" y="710" on="0"/>
        <pt x="320" y="710" on="1"/>
        <pt x="339" y="710" on="0"/>
        <pt x="384" y="704" on="0"/>
        <pt x="429" y="695" on="0"/>
        <pt x="469" y="684" on="0"/>
        <pt x="482" y="680" on="1"/>
        <pt x="510" y="670" on="1"/>
        <pt x="505" y="530" on="1"/>
        <pt x="441" y="530" on="1"/>
        <pt x="420" y="610" on="1"/>
        <pt x="379" y="625" on="0"/>
        <pt x="315" y="625" on="1"/>
        <pt x="190" y="625" on="0"/>
        <pt x="190" y="522" on="1"/>
        <pt x="190" y="498" on="0"/>
        <pt x="210" y="457" on="0"/>
        <pt x="246" y="427" on="0"/>
        <pt x="293" y="410" on="0"/>
        <pt x="320" y="410" on="1"/>
        <pt x="630" y="410" on="1"/>
        <pt x="630" y="350" on="1"/>
      </contour>
      <contour>
        <pt x="450" y="205" on="1"/>
        <pt x="450" y="330" on="1"/>
        <pt x="315" y="330" on="1"/>
        <pt x="287" y="330" on="0"/>
        <pt x="237" y="310" on="0"/>
        <pt x="198" y="275" on="0"/>
        <pt x="175" y="226" on="0"/>
        <pt x="175" y="196" on="1"/>
        <pt x="175" y="136" on="0"/>
        <pt x="249" y="75" on="0"/>
        <pt x="314" y="75" on="1"/>
        <pt x="380" y="75" on="0"/>
        <pt x="450" y="142" on="0"/>
      </contour>
    </TTGlyph>
    <TTGlyph name="aogonek" xMin="45" yMin="-220" xMax="535" yMax="540">
      <contour>
        <pt x="535" y="60" on="1"/>
        <pt x="535" y="5" on="1"/>
        <pt x="506" y="-7" on="0"/>
        <pt x="462" y="-39" on="0"/>
        <pt x="431" y="-73" on="0"/>
        <pt x="415" y="-104" on="0"/>
        <pt x="415" y="-115" on="1"/>
        <pt x="415" y="-137" on="0"/>
        <pt x="440" y="-160" on="0"/>
        <pt x="460" y="-160" on="1"/>
        <pt x="505" y="-153" on="1"/>
        <pt x="515" y="-200" on="1"/>
        <pt x="497" y="-211" on="0"/>
        <pt x="459" y="-220" on="0"/>
        <pt x="440" y="-220" on="1"/>
        <pt x="397" y="-220" on="0"/>
        <pt x="335" y="-173" on="0"/>
        <pt x="335" y="-130" on="1"/>
        <pt x="335" y="-100" on="0"/>
        <pt x="360" y="-54" on="0"/>
        <pt x="394" y="-22" on="0"/>
        <pt x="429" y="-3" on="0"/>
        <pt x="438" y="2" on="1"/>
        <pt x="380" y="0" on="1"/>
        <pt x="359" y="70" on="1"/>
        <pt x="279" y="-10" on="0"/>
        <pt x="201" y="-10" on="1"/>
        <pt x="123" y="-10" on="0"/>
        <pt x="45" y="68" on="0"/>
        <pt x="45" y="140" on="1"/>
        <pt x="45" y="295" on="0"/>
        <pt x="275" y="295" on="1"/>
        <pt x="355" y="295" on="1"/>
        <pt x="355" y="375" on="1"/>
        <pt x="355" y="465" on="0"/>
        <pt x="260" y="465" on="1"/>
        <pt x="206" y="465" on="0"/>
        <pt x="171" y="454" on="1"/>
        <pt x="159" y="450" on="1"/>
        <pt x="145" y="375" on="1"/>
        <pt x="80" y="375" on="1"/>
        <pt x="75" y="500" on="1"/>
        <pt x="183" y="540" on="0"/>
        <pt x="273" y="540" on="1"/>
        <pt x="361" y="540" on="0"/>
        <pt x="455" y="469" on="0"/>
        <pt x="455" y="385" on="1"/>
        <pt x="455" y="80" on="1"/>
      </contour>
      <contour>
        <pt x="338" y="130" on="1"/>
        <pt x="355" y="150" on="1"/>
        <pt x="355" y="230" on="1"/>
        <pt x="285" y="230" on="1"/>
        <pt x="210" y="230" on="0"/>
        <pt x="147" y="191" on="0"/>
        <pt x="147" y="150" on="1"/>
        <pt x="147" y="111" on="0"/>
        <pt x="184" y="70" on="0"/>
        <pt x="219" y="70" on="1"/>
        <pt x="236" y="70" on="0"/>
        <pt x="271" y="82" on="0"/>
        <pt x="304" y="100" on="0"/>
        <pt x="330" y="121" on="0"/>
      </contour>
    </TTGlyph>
    <TTGlyph name="approxequal" xMin="60" yMin="100" xMax="566" yMax="410">
      <contour>
        <pt x="106" y="279" on="1"/>
        <pt x="60" y="310" on="1"/>
        <pt x="70" y="330" on="0"/>
        <pt x="91" y="355" on="0"/>
        <pt x="128" y="389" on="0"/>
        <pt x="182" y="410" on="0"/>
        <pt x="220" y="410" on="1"/>
        <pt x="238" y="410" on="0"/>
        <pt x="293" y="391" on="0"/>
        <pt x="353" y="360" on="0"/>
        <pt x="403" y="340" on="0"/>
        <pt x="419" y="340" on="1"/>
        <pt x="450" y="339" on="0"/>
        <pt x="496" y="370" on="0"/>
        <pt x="508" y="385" on="1"/>
        <pt x="520" y="400" on="1"/>
        <pt x="566" y="369" on="1"/>
        <pt x="559" y="355" on="0"/>
        <pt x="532" y="320" on="0"/>
        <pt x="495" y="287" on="0"/>
        <pt x="448" y="265" on="0"/>
        <pt x="421" y="265" on="1"/>
        <pt x="398" y="265" on="0"/>
        <pt x="336" y="284" on="0"/>
        <pt x="271" y="316" on="0"/>
        <pt x="220" y="335" on="0"/>
        <pt x="202" y="335" on="1"/>
        <pt x="172" y="335" on="0"/>
        <pt x="127" y="307" on="0"/>
        <pt x="116" y="293" on="1"/>
      </contour>
      <contour>
        <pt x="106" y="114" on="1"/>
        <pt x="60" y="145" on="1"/>
        <pt x="66" y="156" on="1"/>
        <pt x="70" y="164" on="0"/>
        <pt x="91" y="191" on="0"/>
        <pt x="127" y="223" on="0"/>
        <pt x="182" y="245" on="0"/>
        <pt x="220" y="245" on="1"/>
        <pt x="238" y="245" on="0"/>
        <pt x="293" y="227" on="0"/>
        <pt x="353" y="193" on="0"/>
        <pt x="406" y="175" on="0"/>
        <pt x="419" y="175" on="1"/>
        <pt x="450" y="174" on="0"/>
        <pt x="496" y="205" on="0"/>
        <pt x="508" y="220" on="1"/>
        <pt x="520" y="235" on="1"/>
        <pt x="566" y="204" on="1"/>
        <pt x="559" y="190" on="0"/>
        <pt x="532" y="155" on="0"/>
        <pt x="495" y="122" on="0"/>
        <pt x="448" y="100" on="0"/>
        <pt x="421" y="100" on="1"/>
        <pt x="400" y="100" on="0"/>
        <pt x="336" y="118" on="0"/>
        <pt x="271" y="151" on="0"/>
        <pt x="215" y="170" on="0"/>
        <pt x="202" y="170" on="1"/>
        <pt x="173" y="169" on="0"/>
        <pt x="127" y="143" on="0"/>
        <pt x="116" y="128" on="1"/>
      </contour>
    </TTGlyph>
    <TTGlyph name="aring" xMin="45" yMin="-10" xMax="535" yMax="820">
      <component glyphName="a" x="0" y="0" flags="0x204"/>
      <component glyphName="ring" x="87" y="0" flags="0x4"/>
    </TTGlyph>
    <TTGlyph name="asciicircum" xMin="60" yMin="320" xMax="510" yMax="700">
      <contour>
        <pt x="282" y="600" on="1"/>
        <pt x="145" y="320" on="1"/>
        <pt x="60" y="320" on="1"/>
        <pt x="250" y="700" on="1"/>
        <pt x="320" y="700" on="1"/>
        <pt x="510" y="320" on="1"/>
        <pt x="423" y="320" on="1"/>
      </contour>
    </TTGlyph>
    <TTGlyph name="asciitilde" xMin="60" yMin="195" xMax="566" yMax="345">
      <contour>
        <pt x="106" y="209" on="1"/>
        <pt x="60" y="245" on="1"/>
        <pt x="70" y="265" on="0"/>
        <pt x="91" y="291" on="0"/>
        <pt x="128" y="324" on="0"/>
        <pt x="182" y="345" on="0"/>
        <pt x="220" y="345" on="1"/>
        <pt x="238" y="345" on="0"/>
        <pt x="293" y="326" on="0"/>
        <pt x="353" y="294" on="0"/>
        <pt x="404" y="275" on="0"/>
        <pt x="419" y="275" on="1"/>
        <pt x="450" y="274" on="0"/>
        <pt x="496" y="305" on="0"/>
        <pt x="508" y="320" on="1"/>
        <pt x="520" y="335" on="1"/>
        <pt x="566" y="299" on="1"/>
        <pt x="559" y="285" on="0"/>
        <pt x="532" y="249" on="0"/>
        <pt x="495" y="217" on="0"/>
        <pt x="448" y="195" on="0"/>
        <pt x="421" y="195" on="1"/>
        <pt x="393" y="195" on="0"/>
        <pt x="336" y="215" on="0"/>
        <pt x="271" y="246" on="0"/>
        <pt x="218" y="265" on="0"/>
        <pt x="202" y="265" on="1"/>
        <pt x="173" y="264" on="0"/>
        <pt x="127" y="238" on="0"/>
        <pt x="116" y="223" on="1"/>
      </contour>
    </TTGlyph>
    <TTGlyph name="asterisk" xMin="25" yMin="415" xMax="363" yMax="735">
      <contour>
        <pt x="196" y="586" on="1"/>
        <pt x="170" y="609" on="1"/>
        <pt x="157" y="733" on="1"/>
        <pt x="230" y="735" on="1"/>
        <pt x="223" y="608" on="1"/>
        <pt x="338" y="657" on="1"/>
        <pt x="363" y="587" on="1"/>
        <pt x="238" y="558" on="1"/>
        <pt x="322" y="459" on="1"/>
        <pt x="264" y="415" on="1"/>
        <pt x="195" y="528" on="1"/>
        <pt x="204" y="562" on="1"/>
        <pt x="238" y="558" on="1"/>
        <pt x="209" y="577" on="1"/>
        <pt x="223" y="608" on="1"/>
      </contour>
      <contour>
        <pt x="170" y="609" on="1"/>
        <pt x="183" y="577" on="1"/>
        <pt x="153" y="560" on="1"/>
        <pt x="188" y="562" on="1"/>
        <pt x="195" y="528" on="1"/>
        <pt x="130" y="415" on="1"/>
        <pt x="70" y="457" on="1"/>
        <pt x="153" y="560" on="1"/>
        <pt x="25" y="585" on="1"/>
        <pt x="49" y="655" on="1"/>
      </contour>
    </TTGlyph>
    <TTGlyph name="asterisk.alt" xMin="25" yMin="414" xMax="361" yMax="736">
      <contour>
        <pt x="25" y="525" on="1"/>
        <pt x="142" y="575" on="1"/>
        <pt x="25" y="626" on="1"/>
        <pt x="64" y="695" on="1"/>
        <pt x="167" y="619" on="1"/>
        <pt x="153" y="736" on="1"/>
        <pt x="233" y="736" on="1"/>
        <pt x="219" y="619" on="1"/>
        <pt x="322" y="695" on="1"/>
        <pt x="361" y="626" on="1"/>
        <pt x="244" y="575" on="1"/>
        <pt x="361" y="525" on="1"/>
        <pt x="322" y="456" on="1"/>
        <pt x="219" y="531" on="1"/>
        <pt x="233" y="414" on="1"/>
        <pt x="153" y="414" on="1"/>
        <pt x="167" y="532" on="1"/>
        <pt x="64" y="456" on="1"/>
      </contour>
      <contour>
        <pt x="182" y="581" on="1"/>
        <pt x="142" y="575" on="1"/>
        <pt x="182" y="570" on="1"/>
        <pt x="167" y="532" on="1"/>
        <pt x="192" y="563" on="1"/>
        <pt x="219" y="531" on="1"/>
        <pt x="203" y="570" on="1"/>
        <pt x="244" y="575" on="1"/>
        <pt x="203" y="581" on="1"/>
        <pt x="219" y="619" on="1"/>
        <pt x="192" y="588" on="1"/>
        <pt x="167" y="619" on="1"/>
      </contour>
    </TTGlyph>
    <TTGlyph name="at" xMin="65" yMin="-10" xMax="760" yMax="710">
      <contour>
        <pt x="555" y="30" on="1"/>
        <pt x="485" y="-10" on="0"/>
        <pt x="390" y="-10" on="1"/>
        <pt x="231" y="-10" on="0"/>
        <pt x="65" y="173" on="0"/>
        <pt x="65" y="341" on="1"/>
        <pt x="65" y="425" on="0"/>
        <pt x="116" y="562" on="0"/>
        <pt x="209" y="658" on="0"/>
        <pt x="339" y="710" on="0"/>
        <pt x="418" y="710" on="1"/>
        <pt x="497" y="710" on="0"/>
        <pt x="624" y="661" on="0"/>
        <pt x="712" y="570" on="0"/>
        <pt x="760" y="440" on="0"/>
        <pt x="760" y="360" on="1"/>
        <pt x="760" y="264" on="0"/>
        <pt x="669" y="155" on="0"/>
        <pt x="591" y="155" on="1"/>
        <pt x="554" y="155" on="0"/>
        <pt x="493" y="187" on="0"/>
        <pt x="482" y="221" on="1"/>
        <pt x="473" y="209" on="0"/>
        <pt x="444" y="187" on="0"/>
        <pt x="411" y="170" on="0"/>
        <pt x="378" y="159" on="0"/>
        <pt x="364" y="159" on="1"/>
        <pt x="310" y="159" on="0"/>
        <pt x="253" y="216" on="0"/>
        <pt x="253" y="271" on="1"/>
        <pt x="253" y="382" on="0"/>
        <pt x="415" y="382" on="1"/>
        <pt x="469" y="382" on="1"/>
        <pt x="469" y="430" on="1"/>
        <pt x="469" y="485" on="0"/>
        <pt x="401" y="485" on="1"/>
        <pt x="367" y="485" on="0"/>
        <pt x="316" y="470" on="1"/>
        <pt x="299" y="465" on="1"/>
        <pt x="281" y="522" on="1"/>
        <pt x="355" y="553" on="0"/>
        <pt x="421" y="553" on="1"/>
        <pt x="549" y="553" on="0"/>
        <pt x="549" y="438" on="1"/>
        <pt x="549" y="259" on="1"/>
        <pt x="549" y="238" on="0"/>
        <pt x="574" y="215" on="0"/>
        <pt x="596" y="215" on="1"/>
        <pt x="635" y="215" on="0"/>
        <pt x="680" y="289" on="0"/>
        <pt x="680" y="355" on="1"/>
        <pt x="680" y="419" on="0"/>
        <pt x="643" y="522" on="0"/>
        <pt x="574" y="595" on="0"/>
        <pt x="475" y="635" on="0"/>
        <pt x="413" y="635" on="1"/>
        <pt x="352" y="635" on="0"/>
        <pt x="253" y="596" on="0"/>
        <pt x="183" y="522" on="0"/>
        <pt x="145" y="416" on="0"/>
        <pt x="145" y="349" on="1"/>
        <pt x="145" y="214" on="0"/>
        <pt x="277" y="65" on="0"/>
        <pt x="395" y="65" on="1"/>
        <pt x="452" y="65" on="0"/>
        <pt x="500" y="84" on="1"/>
        <pt x="515" y="90" on="1"/>
      </contour>
      <contour>
        <pt x="469" y="328" on="1"/>
        <pt x="421" y="328" on="1"/>
        <pt x="372" y="328" on="0"/>
        <pt x="331" y="302" on="0"/>
        <pt x="331" y="276" on="1"/>
        <pt x="331" y="225" on="0"/>
        <pt x="383" y="225" on="1"/>
        <pt x="403" y="225" on="0"/>
        <pt x="447" y="246" on="0"/>
        <pt x="458" y="258" on="1"/>
        <pt x="469" y="270" on="1"/>
      </contour>
    </TTGlyph>
    <TTGlyph name="atilde" xMin="45" yMin="-10" xMax="535" yMax="764">
      <component glyphName="a" x="0" y="0" flags="0x204"/>
      <component glyphName="tilde" x="-22" y="0" flags="0x4"/>
    </TTGlyph>
    <TTGlyph name="b" xMin="0" yMin="-10" xMax="540" yMax="770">
      <contour>
        <pt x="180" y="770" on="1"/>
        <pt x="180" y="482" on="1"/>
        <pt x="253" y="540" on="0"/>
        <pt x="330" y="540" on="1"/>
        <pt x="436" y="540" on="0"/>
        <pt x="540" y="402" on="0"/>
        <pt x="540" y="275" on="1"/>
        <pt x="540" y="213" on="0"/>
        <pt x="504" y="108" on="0"/>
        <pt x="434" y="32" on="0"/>
        <pt x="332" y="-10" on="0"/>
        <pt x="265" y="-10" on="1"/>
        <pt x="214" y="-9" on="0"/>
        <pt x="133" y="-2" on="0"/>
        <pt x="102" y="8" on="1"/>
        <pt x="80" y="15" on="1"/>
        <pt x="80" y="690" on="1"/>
        <pt x="0" y="710" on="1"/>
        <pt x="0" y="765" on="1"/>
      </contour>
      <contour>
        <pt x="180" y="80" on="1"/>
        <pt x="204" y="70" on="0"/>
        <pt x="284" y="70" on="1"/>
        <pt x="324" y="70" on="0"/>
        <pt x="381" y="100" on="0"/>
        <pt x="418" y="153" on="0"/>
        <pt x="435" y="226" on="0"/>
        <pt x="435" y="269" on="1"/>
        <pt x="435" y="359" on="0"/>
        <pt x="374" y="460" on="0"/>
        <pt x="310" y="460" on="1"/>
        <pt x="260" y="460" on="0"/>
        <pt x="199" y="421" on="0"/>
        <pt x="180" y="395" on="1"/>
      </contour>
    </TTGlyph>
    <TTGlyph name="backslash" xMin="30" yMin="0" xMax="466" yMax="700">
      <contour>
        <pt x="135" y="700" on="1"/>
        <pt x="466" y="0" on="1"/>
        <pt x="361" y="0" on="1"/>
        <pt x="30" y="700" on="1"/>
      </contour>
    </TTGlyph>
    <TTGlyph name="bar" xMin="100" yMin="-230" xMax="180" yMax="755">
      <contour>
        <pt x="180" y="755" on="1"/>
        <pt x="180" y="-230" on="1"/>
        <pt x="100" y="-230" on="1"/>
        <pt x="100" y="755" on="1"/>
      </contour>
    </TTGlyph>
    <TTGlyph name="braceleft" xMin="30" yMin="-225" xMax="340" yMax="775">
      <contour>
        <pt x="340" y="775" on="1"/>
        <pt x="340" y="710" on="1"/>
        <pt x="269" y="710" on="0"/>
        <pt x="217" y="665" on="0"/>
        <pt x="217" y="605" on="1"/>
        <pt x="217" y="434" on="1"/>
        <pt x="217" y="330" on="0"/>
        <pt x="124" y="295" on="1"/>
        <pt x="217" y="260" on="0"/>
        <pt x="217" y="156" on="1"/>
        <pt x="217" y="-55" on="1"/>
        <pt x="217" y="-115" on="0"/>
        <pt x="269" y="-160" on="0"/>
        <pt x="340" y="-160" on="1"/>
        <pt x="340" y="-225" on="1"/>
        <pt x="295" y="-225" on="1"/>
        <pt x="204" y="-225" on="0"/>
        <pt x="125" y="-148" on="0"/>
        <pt x="125" y="-55" on="1"/>
        <pt x="125" y="156" on="1"/>
        <pt x="125" y="206" on="0"/>
        <pt x="83" y="260" on="0"/>
        <pt x="30" y="260" on="1"/>
        <pt x="30" y="330" on="1"/>
        <pt x="83" y="330" on="0"/>
        <pt x="125" y="384" on="0"/>
        <pt x="125" y="434" on="1"/>
        <pt x="125" y="605" on="1"/>
        <pt x="125" y="698" on="0"/>
        <pt x="204" y="775" on="0"/>
        <pt x="295" y="775" on="1"/>
      </contour>
    </TTGlyph>
    <TTGlyph name="braceright" xMin="40" yMin="-225" xMax="350" yMax="775">
      <contour>
        <pt x="40" y="775" on="1"/>
        <pt x="85" y="775" on="1"/>
        <pt x="176" y="775" on="0"/>
        <pt x="255" y="698" on="0"/>
        <pt x="255" y="605" on="1"/>
        <pt x="255" y="434" on="1"/>
        <pt x="255" y="384" on="0"/>
        <pt x="297" y="330" on="0"/>
        <pt x="350" y="330" on="1"/>
        <pt x="350" y="260" on="1"/>
        <pt x="297" y="260" on="0"/>
        <pt x="255" y="206" on="0"/>
        <pt x="255" y="156" on="1"/>
        <pt x="255" y="-55" on="1"/>
        <pt x="255" y="-148" on="0"/>
        <pt x="176" y="-225" on="0"/>
        <pt x="85" y="-225" on="1"/>
        <pt x="40" y="-225" on="1"/>
        <pt x="40" y="-160" on="1"/>
        <pt x="111" y="-160" on="0"/>
        <pt x="163" y="-115" on="0"/>
        <pt x="163" y="-55" on="1"/>
        <pt x="163" y="156" on="1"/>
        <pt x="163" y="260" on="0"/>
        <pt x="256" y="295" on="1"/>
        <pt x="163" y="330" on="0"/>
        <pt x="163" y="434" on="1"/>
        <pt x="163" y="605" on="1"/>
        <pt x="163" y="665" on="0"/>
        <pt x="111" y="710" on="0"/>
        <pt x="40" y="710" on="1"/>
      </contour>
    </TTGlyph>
    <TTGlyph name="bracketleft" xMin="90" yMin="-230" xMax="305" yMax="770">
      <contour>
        <pt x="305" y="-160" on="1"/>
        <pt x="305" y="-225" on="1"/>
        <pt x="90" y="-230" on="1"/>
        <pt x="90" y="770" on="1"/>
        <pt x="305" y="765" on="1"/>
        <pt x="305" y="700" on="1"/>
        <pt x="185" y="689" on="1"/>
        <pt x="185" y="-149" on="1"/>
      </contour>
    </TTGlyph>
    <TTGlyph name="bracketright" xMin="40" yMin="-230" xMax="255" yMax="770">
      <contour>
        <pt x="255" y="-230" on="1"/>
        <pt x="40" y="-225" on="1"/>
        <pt x="40" y="-160" on="1"/>
        <pt x="160" y="-149" on="1"/>
        <pt x="160" y="689" on="1"/>
        <pt x="40" y="700" on="1"/>
        <pt x="40" y="765" on="1"/>
        <pt x="255" y="770" on="1"/>
      </contour>
    </TTGlyph>
    <TTGlyph name="breve" xMin="80" yMin="620" xMax="360" yMax="770">
      <contour>
        <pt x="300" y="765" on="1"/>
        <pt x="360" y="770" on="1"/>
        <pt x="360" y="737" on="0"/>
        <pt x="337" y="682" on="0"/>
        <pt x="298" y="642" on="0"/>
        <pt x="247" y="620" on="0"/>
        <pt x="218" y="620" on="1"/>
        <pt x="189" y="620" on="0"/>
        <pt x="138" y="642" on="0"/>
        <pt x="101" y="681" on="0"/>
        <pt x="80" y="734" on="0"/>
        <pt x="80" y="765" on="1"/>
        <pt x="140" y="770" on="1"/>
        <pt x="140" y="760" on="0"/>
        <pt x="151" y="734" on="0"/>
        <pt x="171" y="711" on="0"/>
        <pt x="199" y="695" on="0"/>
        <pt x="217" y="695" on="1"/>
        <pt x="254" y="695" on="0"/>
        <pt x="291" y="730" on="0"/>
        <pt x="296" y="748" on="1"/>
      </contour>
    </TTGlyph>
    <TTGlyph name="brokenbar" xMin="105" yMin="-265" xMax="185" yMax="765">
      <contour>
        <pt x="185" y="365" on="1"/>
        <pt x="105" y="365" on="1"/>
        <pt x="105" y="765" on="1"/>
        <pt x="185" y="765" on="1"/>
      </contour>
      <contour>
        <pt x="185" y="-265" on="1"/>
        <pt x="105" y="-265" on="1"/>
        <pt x="105" y="145" on="1"/>
        <pt x="185" y="145" on="1"/>
      </contour>
    </TTGlyph>
    <TTGlyph name="bullet" xMin="85" yMin="155" xMax="405" yMax="475">
      <contour>
        <pt x="132" y="202" on="1"/>
        <pt x="85" y="249" on="0"/>
        <pt x="85" y="315" on="1"/>
        <pt x="85" y="348" on="0"/>
        <pt x="110" y="406" on="0"/>
        <pt x="154" y="449" on="0"/>
        <pt x="212" y="475" on="0"/>
        <pt x="245" y="475" on="1"/>
        <pt x="278" y="475" on="0"/>
        <pt x="336" y="449" on="0"/>
        <pt x="379" y="406" on="0"/>
        <pt x="405" y="348" on="0"/>
        <pt x="405" y="315" on="1"/>
        <pt x="405" y="282" on="0"/>
        <pt x="379" y="224" on="0"/>
        <pt x="336" y="180" on="0"/>
        <pt x="278" y="155" on="0"/>
        <pt x="245" y="155" on="1"/>
        <pt x="179" y="155" on="0"/>
      </contour>
    </TTGlyph>
    <TTGlyph name="c" xMin="40" yMin="-10" xMax="490" yMax="540">
      <contour>
        <pt x="465" y="365" on="1"/>
        <pt x="400" y="365" on="1"/>
        <pt x="385" y="450" on="1"/>
        <pt x="346" y="460" on="0"/>
        <pt x="295" y="460" on="1"/>
        <pt x="223" y="460" on="0"/>
        <pt x="145" y="368" on="0"/>
        <pt x="145" y="271" on="1"/>
        <pt x="145" y="174" on="0"/>
        <pt x="227" y="70" on="0"/>
        <pt x="300" y="70" on="1"/>
        <pt x="321" y="70" on="0"/>
        <pt x="362" y="78" on="0"/>
        <pt x="399" y="91" on="0"/>
        <pt x="429" y="107" on="0"/>
        <pt x="438" y="115" on="1"/>
        <pt x="455" y="130" on="1"/>
        <pt x="490" y="70" on="1"/>
        <pt x="479" y="61" on="1"/>
        <pt x="467" y="51" on="0"/>
        <pt x="425" y="26" on="0"/>
        <pt x="374" y="5" on="0"/>
        <pt x="317" y="-10" on="0"/>
        <pt x="290" y="-10" on="1"/>
        <pt x="168" y="-10" on="0"/>
        <pt x="40" y="135" on="0"/>
        <pt x="40" y="261" on="1"/>
        <pt x="40" y="323" on="0"/>
        <pt x="77" y="426" on="0"/>
        <pt x="145" y="499" on="0"/>
        <pt x="241" y="540" on="0"/>
        <pt x="300" y="540" on="1"/>
        <pt x="320" y="540" on="0"/>
        <pt x="362" y="534" on="0"/>
        <pt x="402" y="526" on="0"/>
        <pt x="436" y="515" on="0"/>
        <pt x="448" y="510" on="1"/>
        <pt x="470" y="500" on="1"/>
      </contour>
    </TTGlyph>
    <TTGlyph name="caron" xMin="80" yMin="635" xMax="437" yMax="820">
      <contour>
        <pt x="262" y="710" on="1"/>
        <pt x="402" y="820" on="1"/>
        <pt x="437" y="775" on="1"/>
        <pt x="292" y="635" on="1"/>
        <pt x="232" y="635" on="1"/>
        <pt x="80" y="775" on="1"/>
        <pt x="122" y="820" on="1"/>
      </contour>
    </TTGlyph>
    <TTGlyph name="ccedilla" xMin="40" yMin="-219" xMax="490" yMax="540">
      <contour>
        <pt x="465" y="365" on="1"/>
        <pt x="400" y="365" on="1"/>
        <pt x="385" y="450" on="1"/>
        <pt x="346" y="460" on="0"/>
        <pt x="295" y="460" on="1"/>
        <pt x="223" y="460" on="0"/>
        <pt x="145" y="368" on="0"/>
        <pt x="145" y="271" on="1"/>
        <pt x="145" y="174" on="0"/>
        <pt x="227" y="70" on="0"/>
        <pt x="300" y="70" on="1"/>
        <pt x="321" y="70" on="0"/>
        <pt x="362" y="78" on="0"/>
        <pt x="399" y="91" on="0"/>
        <pt x="429" y="107" on="0"/>
        <pt x="438" y="115" on="1"/>
        <pt x="455" y="130" on="1"/>
        <pt x="490" y="70" on="1"/>
        <pt x="476" y="58" on="0"/>
        <pt x="435" y="32" on="0"/>
        <pt x="388" y="10" on="0"/>
        <pt x="340" y="-6" on="0"/>
        <pt x="320" y="-8" on="1"/>
        <pt x="320" y="-44" on="1"/>
        <pt x="360" y="-52" on="0"/>
        <pt x="407" y="-98" on="0"/>
        <pt x="407" y="-134" on="1"/>
        <pt x="407" y="-152" on="0"/>
        <pt x="390" y="-184" on="0"/>
        <pt x="362" y="-206" on="0"/>
        <pt x="326" y="-219" on="0"/>
        <pt x="308" y="-219" on="1"/>
        <pt x="242" y="-219" on="0"/>
        <pt x="200" y="-198" on="1"/>
        <pt x="186" y="-191" on="1"/>
        <pt x="210" y="-150" on="1"/>
        <pt x="255" y="-171" on="0"/>
        <pt x="285" y="-171" on="1"/>
        <pt x="342" y="-171" on="0"/>
        <pt x="342" y="-130" on="1"/>
        <pt x="342" y="-107" on="0"/>
        <pt x="297" y="-79" on="0"/>
        <pt x="260" y="-79" on="1"/>
        <pt x="260" y="-8" on="1"/>
        <pt x="151" y="0" on="0"/>
        <pt x="40" y="142" on="0"/>
        <pt x="40" y="265" on="1"/>
        <pt x="40" y="325" on="0"/>
        <pt x="77" y="426" on="0"/>
        <pt x="145" y="499" on="0"/>
        <pt x="241" y="540" on="0"/>
        <pt x="300" y="540" on="1"/>
        <pt x="320" y="540" on="0"/>
        <pt x="362" y="534" on="0"/>
        <pt x="402" y="526" on="0"/>
        <pt x="436" y="515" on="0"/>
        <pt x="448" y="510" on="1"/>
        <pt x="470" y="500" on="1"/>
      </contour>
    </TTGlyph>
    <TTGlyph name="cedilla" xMin="110" yMin="-219" xMax="331" yMax="0">
      <contour>
        <pt x="184" y="0" on="1"/>
        <pt x="244" y="0" on="1"/>
        <pt x="244" y="-43" on="1"/>
        <pt x="286" y="-50" on="0"/>
        <pt x="331" y="-96" on="0"/>
        <pt x="331" y="-133" on="1"/>
        <pt x="331" y="-151" on="0"/>
        <pt x="315" y="-183" on="0"/>
        <pt x="287" y="-206" on="0"/>
        <pt x="251" y="-219" on="0"/>
        <pt x="232" y="-219" on="1"/>
        <pt x="164" y="-219" on="0"/>
        <pt x="124" y="-198" on="1"/>
        <pt x="110" y="-191" on="1"/>
        <pt x="134" y="-150" on="1"/>
        <pt x="156" y="-161" on="0"/>
        <pt x="191" y="-171" on="0"/>
        <pt x="210" y="-171" on="1"/>
        <pt x="235" y="-171" on="0"/>
        <pt x="266" y="-147" on="0"/>
        <pt x="266" y="-130" on="1"/>
        <pt x="266" y="-103" on="0"/>
        <pt x="219" y="-79" on="0"/>
        <pt x="193" y="-79" on="1"/>
        <pt x="184" y="-79" on="1"/>
      </contour>
    </TTGlyph>
    <TTGlyph name="cent" xMin="45" yMin="0" xMax="479" yMax="700">
      <contour>
        <pt x="315" y="700" on="1"/>
        <pt x="315" y="608" on="1"/>
        <pt x="351" y="606" on="0"/>
        <pt x="426" y="584" on="0"/>
        <pt x="446" y="574" on="1"/>
        <pt x="465" y="565" on="1"/>
        <pt x="460" y="435" on="1"/>
        <pt x="395" y="435" on="1"/>
        <pt x="380" y="520" on="1"/>
        <pt x="347" y="530" on="0"/>
        <pt x="295" y="530" on="1"/>
        <pt x="220" y="530" on="0"/>
        <pt x="150" y="454" on="0"/>
        <pt x="150" y="370" on="1"/>
        <pt x="150" y="190" on="0"/>
        <pt x="300" y="190" on="1"/>
        <pt x="319" y="190" on="0"/>
        <pt x="356" y="197" on="0"/>
        <pt x="389" y="208" on="0"/>
        <pt x="416" y="222" on="0"/>
        <pt x="424" y="228" on="1"/>
        <pt x="440" y="240" on="1"/>
        <pt x="479" y="185" on="1"/>
        <pt x="465" y="173" on="0"/>
        <pt x="425" y="149" on="0"/>
        <pt x="380" y="128" on="0"/>
        <pt x="334" y="113" on="0"/>
        <pt x="315" y="111" on="1"/>
        <pt x="315" y="0" on="1"/>
        <pt x="240" y="0" on="1"/>
        <pt x="240" y="113" on="1"/>
        <pt x="144" y="127" on="0"/>
        <pt x="45" y="257" on="0"/>
        <pt x="45" y="356" on="1"/>
        <pt x="45" y="456" on="0"/>
        <pt x="146" y="588" on="0"/>
        <pt x="240" y="604" on="1"/>
        <pt x="240" y="700" on="1"/>
      </contour>
    </TTGlyph>
    <TTGlyph name="circumflex" xMin="85" yMin="650" xMax="435" yMax="820">
      <contour>
        <pt x="395" y="650" on="1"/>
        <pt x="262" y="743" on="1"/>
        <pt x="125" y="650" on="1"/>
        <pt x="85" y="695" on="1"/>
        <pt x="230" y="815" on="1"/>
        <pt x="290" y="820" on="1"/>
        <pt x="435" y="695" on="1"/>
      </contour>
    </TTGlyph>
    <TTGlyph name="circumflex.x" xMin="80" yMin="635" xMax="440" yMax="820">
      <contour>
        <pt x="400" y="635" on="1"/>
        <pt x="262" y="743" on="1"/>
        <pt x="120" y="635" on="1"/>
        <pt x="80" y="680" on="1"/>
        <pt x="230" y="815" on="1"/>
        <pt x="290" y="820" on="1"/>
        <pt x="440" y="680" on="1"/>
      </contour>
    </TTGlyph>
    <TTGlyph name="colon" xMin="75" yMin="-10" xMax="205" yMax="455">
      <contour>
        <pt x="139" y="-10" on="1"/>
        <pt x="110" y="-10" on="0"/>
        <pt x="75" y="27" on="0"/>
        <pt x="75" y="59" on="1"/>
        <pt x="75" y="92" on="0"/>
        <pt x="112" y="130" on="0"/>
        <pt x="141" y="130" on="1"/>
        <pt x="170" y="130" on="0"/>
        <pt x="205" y="93" on="0"/>
        <pt x="205" y="60" on="1"/>
        <pt x="205" y="28" on="0"/>
        <pt x="168" y="-10" on="0"/>
      </contour>
      <contour>
        <pt x="92" y="333" on="1"/>
        <pt x="75" y="353" on="0"/>
        <pt x="75" y="385" on="1"/>
        <pt x="75" y="420" on="0"/>
        <pt x="114" y="455" on="0"/>
        <pt x="141" y="455" on="1"/>
        <pt x="168" y="455" on="0"/>
        <pt x="205" y="418" on="0"/>
        <pt x="205" y="385" on="1"/>
        <pt x="205" y="353" on="0"/>
        <pt x="168" y="315" on="0"/>
        <pt x="139" y="315" on="1"/>
        <pt x="110" y="315" on="0"/>
      </contour>
    </TTGlyph>
    <TTGlyph name="comma" xMin="40" yMin="-154" xMax="200" yMax="130">
      <contour>
        <pt x="135" y="130" on="1"/>
        <pt x="200" y="130" on="0"/>
        <pt x="200" y="56" on="1"/>
        <pt x="200" y="-32" on="0"/>
        <pt x="85" y="-154" on="1"/>
        <pt x="40" y="-116" on="1"/>
        <pt x="93" y="-45" on="0"/>
        <pt x="93" y="-10" on="1"/>
        <pt x="93" y="-5" on="0"/>
        <pt x="87" y="10" on="0"/>
        <pt x="76" y="32" on="0"/>
        <pt x="70" y="56" on="0"/>
        <pt x="70" y="68" on="1"/>
        <pt x="70" y="92" on="0"/>
        <pt x="106" y="130" on="0"/>
      </contour>
    </TTGlyph>
    <TTGlyph name="copyright" xMin="45" yMin="-10" xMax="775" yMax="710">
      <contour>
        <pt x="143" y="89" on="1"/>
        <pt x="45" y="189" on="0"/>
        <pt x="45" y="345" on="1"/>
        <pt x="45" y="423" on="0"/>
        <pt x="100" y="557" on="0"/>
        <pt x="197" y="655" on="0"/>
        <pt x="331" y="710" on="0"/>
        <pt x="410" y="710" on="1"/>
        <pt x="488" y="710" on="0"/>
        <pt x="622" y="658" on="0"/>
        <pt x="719" y="564" on="0"/>
        <pt x="775" y="433" on="0"/>
        <pt x="775" y="354" on="1"/>
        <pt x="775" y="276" on="0"/>
        <pt x="717" y="143" on="0"/>
        <pt x="616" y="45" on="0"/>
        <pt x="479" y="-10" on="0"/>
        <pt x="400" y="-10" on="1"/>
        <pt x="242" y="-10" on="0"/>
      </contour>
      <contour>
        <pt x="201" y="558" on="1"/>
        <pt x="125" y="479" on="0"/>
        <pt x="125" y="350" on="1"/>
        <pt x="125" y="286" on="0"/>
        <pt x="165" y="180" on="0"/>
        <pt x="238" y="104" on="0"/>
        <pt x="341" y="62" on="0"/>
        <pt x="405" y="62" on="1"/>
        <pt x="469" y="62" on="0"/>
        <pt x="575" y="104" on="0"/>
        <pt x="652" y="181" on="0"/>
        <pt x="695" y="287" on="0"/>
        <pt x="695" y="350" on="1"/>
        <pt x="695" y="414" on="0"/>
        <pt x="652" y="520" on="0"/>
        <pt x="574" y="596" on="0"/>
        <pt x="468" y="638" on="0"/>
        <pt x="405" y="638" on="1"/>
        <pt x="278" y="638" on="0"/>
      </contour>
      <contour>
        <pt x="542" y="414" on="1"/>
        <pt x="486" y="414" on="1"/>
        <pt x="472" y="482" on="1"/>
        <pt x="443" y="490" on="0"/>
        <pt x="410" y="490" on="1"/>
        <pt x="315" y="490" on="0"/>
        <pt x="315" y="348" on="1"/>
        <pt x="315" y="220" on="0"/>
        <pt x="415" y="220" on="1"/>
        <pt x="439" y="220" on="0"/>
        <pt x="492" y="242" on="0"/>
        <pt x="507" y="253" on="1"/>
        <pt x="522" y="264" on="1"/>
        <pt x="549" y="218" on="1"/>
        <pt x="530" y="200" on="1"/>
        <pt x="525" y="195" on="0"/>
        <pt x="499" y="180" on="0"/>
        <pt x="465" y="165" on="0"/>
        <pt x="427" y="155" on="0"/>
        <pt x="410" y="155" on="1"/>
        <pt x="325" y="155" on="0"/>
        <pt x="230" y="250" on="0"/>
        <pt x="230" y="344" on="1"/>
        <pt x="230" y="391" on="0"/>
        <pt x="256" y="467" on="0"/>
        <pt x="304" y="521" on="0"/>
        <pt x="373" y="551" on="0"/>
        <pt x="417" y="551" on="1"/>
        <pt x="431" y="551" on="0"/>
        <pt x="462" y="547" on="0"/>
        <pt x="492" y="540" on="0"/>
        <pt x="517" y="532" on="0"/>
        <pt x="526" y="528" on="1"/>
        <pt x="544" y="520" on="1"/>
      </contour>
    </TTGlyph>
    <TTGlyph name="currency" xMin="50" yMin="58" xMax="528" yMax="538">
      <contour>
        <pt x="528" y="486" on="1"/>
        <pt x="452" y="410" on="1"/>
        <pt x="481" y="363" on="0"/>
        <pt x="481" y="301" on="1"/>
        <pt x="481" y="239" on="0"/>
        <pt x="449" y="189" on="1"/>
        <pt x="528" y="110" on="1"/>
        <pt x="479" y="58" on="1"/>
        <pt x="398" y="138" on="1"/>
        <pt x="348" y="105" on="0"/>
        <pt x="286" y="105" on="1"/>
        <pt x="223" y="105" on="0"/>
        <pt x="177" y="135" on="1"/>
        <pt x="99" y="58" on="1"/>
        <pt x="50" y="110" on="1"/>
        <pt x="128" y="188" on="1"/>
        <pt x="101" y="233" on="0"/>
        <pt x="101" y="294" on="1"/>
        <pt x="101" y="357" on="0"/>
        <pt x="132" y="404" on="1"/>
        <pt x="50" y="486" on="1"/>
        <pt x="99" y="538" on="1"/>
        <pt x="182" y="456" on="1"/>
        <pt x="231" y="490" on="0"/>
        <pt x="294" y="490" on="1"/>
        <pt x="355" y="490" on="0"/>
        <pt x="401" y="461" on="1"/>
        <pt x="479" y="538" on="1"/>
      </contour>
      <contour>
        <pt x="186" y="298" on="1"/>
        <pt x="186" y="240" on="0"/>
        <pt x="237" y="175" on="0"/>
        <pt x="291" y="175" on="1"/>
        <pt x="345" y="175" on="0"/>
        <pt x="396" y="240" on="0"/>
        <pt x="396" y="298" on="1"/>
        <pt x="396" y="420" on="0"/>
        <pt x="291" y="420" on="1"/>
        <pt x="186" y="420" on="0"/>
      </contour>
    </TTGlyph>
    <TTGlyph name="d" xMin="45" yMin="-10" xMax="590" yMax="770">
      <contour>
        <pt x="505" y="770" on="1"/>
        <pt x="505" y="80" on="1"/>
        <pt x="590" y="60" on="1"/>
        <pt x="590" y="5" on="1"/>
        <pt x="420" y="0" on="1"/>
        <pt x="412" y="57" on="1"/>
        <pt x="345" y="-10" on="0"/>
        <pt x="247" y="-10" on="1"/>
        <pt x="150" y="-10" on="0"/>
        <pt x="45" y="129" on="0"/>
        <pt x="45" y="252" on="1"/>
        <pt x="45" y="383" on="0"/>
        <pt x="179" y="540" on="0"/>
        <pt x="310" y="540" on="1"/>
        <pt x="359" y="540" on="0"/>
        <pt x="405" y="524" on="1"/>
        <pt x="405" y="690" on="1"/>
        <pt x="320" y="710" on="1"/>
        <pt x="320" y="765" on="1"/>
      </contour>
      <contour>
        <pt x="405" y="145" on="1"/>
        <pt x="405" y="440" on="1"/>
        <pt x="370" y="460" on="0"/>
        <pt x="300" y="460" on="1"/>
        <pt x="150" y="460" on="0"/>
        <pt x="150" y="260" on="1"/>
        <pt x="150" y="172" on="0"/>
        <pt x="211" y="70" on="0"/>
        <pt x="275" y="70" on="1"/>
        <pt x="324" y="70" on="0"/>
        <pt x="358" y="96" on="1"/>
        <pt x="390" y="122" on="0"/>
      </contour>
    </TTGlyph>
    <TTGlyph name="dagger" xMin="40" yMin="0" xMax="455" yMax="755">
      <contour>
        <pt x="290" y="755" on="1"/>
        <pt x="285" y="600" on="1"/>
        <pt x="455" y="600" on="1"/>
        <pt x="455" y="530" on="1"/>
        <pt x="247" y="505" on="1"/>
        <pt x="40" y="530" on="1"/>
        <pt x="40" y="600" on="1"/>
        <pt x="209" y="600" on="1"/>
        <pt x="205" y="750" on="1"/>
      </contour>
      <contour>
        <pt x="195" y="455" on="1"/>
        <pt x="205" y="40" on="1"/>
        <pt x="247" y="0" on="1"/>
        <pt x="290" y="40" on="1"/>
        <pt x="300" y="455" on="1"/>
        <pt x="247" y="445" on="1"/>
      </contour>
    </TTGlyph>
    <TTGlyph name="daggerdbl" xMin="40" yMin="0" xMax="455" yMax="755">
      <contour>
        <pt x="40" y="530" on="1"/>
        <pt x="40" y="600" on="1"/>
        <pt x="209" y="600" on="1"/>
        <pt x="205" y="750" on="1"/>
        <pt x="290" y="755" on="1"/>
        <pt x="285" y="600" on="1"/>
        <pt x="455" y="600" on="1"/>
        <pt x="455" y="530" on="1"/>
        <pt x="247" y="505" on="1"/>
      </contour>
      <contour>
        <pt x="199" y="303" on="1"/>
        <pt x="205" y="40" on="1"/>
        <pt x="247" y="0" on="1"/>
        <pt x="290" y="40" on="1"/>
        <pt x="296" y="303" on="1"/>
        <pt x="247" y="293" on="1"/>
      </contour>
      <contour>
        <pt x="81" y="396" on="1"/>
        <pt x="81" y="469" on="1"/>
        <pt x="247" y="445" on="1"/>
        <pt x="413" y="469" on="1"/>
        <pt x="413" y="396" on="1"/>
        <pt x="247" y="354" on="1"/>
      </contour>
    </TTGlyph>
    <TTGlyph name="degree" xMin="50" yMin="435" xMax="360" yMax="735">
      <contour>
        <pt x="204" y="435" on="1"/>
        <pt x="135" y="435" on="0"/>
        <pt x="50" y="514" on="0"/>
        <pt x="50" y="583" on="1"/>
        <pt x="50" y="617" on="0"/>
        <pt x="73" y="674" on="0"/>
        <pt x="114" y="713" on="0"/>
        <pt x="171" y="735" on="0"/>
        <pt x="205" y="735" on="1"/>
        <pt x="274" y="735" on="0"/>
        <pt x="360" y="657" on="0"/>
        <pt x="360" y="588" on="1"/>
        <pt x="360" y="554" on="0"/>
        <pt x="337" y="498" on="0"/>
        <pt x="296" y="457" on="0"/>
        <pt x="238" y="435" on="0"/>
      </contour>
      <contour>
        <pt x="205" y="675" on="1"/>
        <pt x="167" y="675" on="0"/>
        <pt x="120" y="630" on="0"/>
        <pt x="120" y="587" on="1"/>
        <pt x="120" y="545" on="0"/>
        <pt x="163" y="495" on="0"/>
        <pt x="205" y="495" on="1"/>
        <pt x="247" y="495" on="0"/>
        <pt x="290" y="545" on="0"/>
        <pt x="290" y="587" on="1"/>
        <pt x="290" y="630" on="0"/>
        <pt x="243" y="675" on="0"/>
      </contour>
    </TTGlyph>
    <TTGlyph name="dieresis" xMin="100" yMin="640" xMax="415" yMax="760">
      <contour>
        <pt x="114" y="656" on="1"/>
        <pt x="100" y="672" on="0"/>
        <pt x="100" y="699" on="1"/>
        <pt x="100" y="726" on="0"/>
        <pt x="131" y="760" on="0"/>
        <pt x="156" y="760" on="1"/>
        <pt x="181" y="760" on="0"/>
        <pt x="210" y="726" on="0"/>
        <pt x="210" y="700" on="1"/>
        <pt x="210" y="673" on="0"/>
        <pt x="178" y="640" on="0"/>
        <pt x="153" y="640" on="1"/>
        <pt x="129" y="640" on="0"/>
      </contour>
      <contour>
        <pt x="319" y="656" on="1"/>
        <pt x="305" y="672" on="0"/>
        <pt x="305" y="699" on="1"/>
        <pt x="305" y="726" on="0"/>
        <pt x="336" y="760" on="0"/>
        <pt x="361" y="760" on="1"/>
        <pt x="386" y="760" on="0"/>
        <pt x="415" y="726" on="0"/>
        <pt x="415" y="700" on="1"/>
        <pt x="415" y="673" on="0"/>
        <pt x="383" y="640" on="0"/>
        <pt x="358" y="640" on="1"/>
        <pt x="334" y="640" on="0"/>
      </contour>
    </TTGlyph>
    <TTGlyph name="divide" xMin="50" yMin="-10" xMax="570" yMax="540">
      <contour>
        <pt x="309" y="-10" on="1"/>
        <pt x="280" y="-10" on="0"/>
        <pt x="245" y="27" on="0"/>
        <pt x="245" y="59" on="1"/>
        <pt x="245" y="92" on="0"/>
        <pt x="282" y="130" on="0"/>
        <pt x="311" y="130" on="1"/>
        <pt x="340" y="130" on="0"/>
        <pt x="375" y="93" on="0"/>
        <pt x="375" y="60" on="1"/>
        <pt x="375" y="28" on="0"/>
        <pt x="338" y="-10" on="0"/>
      </contour>
      <contour>
        <pt x="309" y="400" on="1"/>
        <pt x="280" y="400" on="0"/>
        <pt x="245" y="437" on="0"/>
        <pt x="245" y="469" on="1"/>
        <pt x="245" y="502" on="0"/>
        <pt x="282" y="540" on="0"/>
        <pt x="311" y="540" on="1"/>
        <pt x="340" y="540" on="0"/>
        <pt x="375" y="503" on="0"/>
        <pt x="375" y="470" on="1"/>
        <pt x="375" y="438" on="0"/>
        <pt x="338" y="400" on="0"/>
      </contour>
      <contour>
        <pt x="50" y="225" on="1"/>
        <pt x="50" y="305" on="1"/>
        <pt x="570" y="305" on="1"/>
        <pt x="570" y="225" on="1"/>
      </contour>
    </TTGlyph>
    <TTGlyph name="dollar" xMin="65" yMin="-140" xMax="490" yMax="750">
      <contour>
        <pt x="315" y="-140" on="1"/>
        <pt x="240" y="-140" on="1"/>
        <pt x="240" y="-10" on="1"/>
        <pt x="219" y="-10" on="0"/>
        <pt x="174" y="-5" on="0"/>
        <pt x="133" y="3" on="0"/>
        <pt x="99" y="12" on="0"/>
        <pt x="88" y="16" on="1"/>
        <pt x="65" y="25" on="1"/>
        <pt x="65" y="185" on="1"/>
        <pt x="135" y="185" on="1"/>
        <pt x="155" y="93" on="1"/>
        <pt x="192" y="73" on="0"/>
        <pt x="249" y="73" on="1"/>
        <pt x="279" y="73" on="0"/>
        <pt x="330" y="85" on="0"/>
        <pt x="369" y="108" on="0"/>
        <pt x="391" y="142" on="0"/>
        <pt x="391" y="165" on="1"/>
        <pt x="391" y="200" on="0"/>
        <pt x="343" y="240" on="0"/>
        <pt x="272" y="270" on="0"/>
        <pt x="189" y="297" on="0"/>
        <pt x="118" y="339" on="0"/>
        <pt x="70" y="406" on="0"/>
        <pt x="70" y="460" on="1"/>
        <pt x="70" y="536" on="0"/>
        <pt x="165" y="623" on="0"/>
        <pt x="240" y="634" on="1"/>
        <pt x="240" y="750" on="1"/>
        <pt x="315" y="750" on="1"/>
        <pt x="315" y="637" on="1"/>
        <pt x="390" y="631" on="0"/>
        <pt x="453" y="608" on="1"/>
        <pt x="475" y="600" on="1"/>
        <pt x="470" y="450" on="1"/>
        <pt x="410" y="450" on="1"/>
        <pt x="385" y="540" on="1"/>
        <pt x="339" y="560" on="0"/>
        <pt x="286" y="560" on="1"/>
        <pt x="233" y="560" on="0"/>
        <pt x="170" y="510" on="0"/>
        <pt x="170" y="475" on="1"/>
        <pt x="170" y="440" on="0"/>
        <pt x="217" y="399" on="0"/>
        <pt x="289" y="368" on="0"/>
        <pt x="371" y="340" on="0"/>
        <pt x="443" y="299" on="0"/>
        <pt x="490" y="235" on="0"/>
        <pt x="490" y="185" on="1"/>
        <pt x="490" y="106" on="0"/>
        <pt x="393" y="10" on="0"/>
        <pt x="315" y="-4" on="1"/>
      </contour>
    </TTGlyph>
    <TTGlyph name="dotaccent" xMin="90" yMin="640" xMax="200" yMax="760">
      <contour>
        <pt x="104" y="656" on="1"/>
        <pt x="90" y="672" on="0"/>
        <pt x="90" y="699" on="1"/>
        <pt x="90" y="726" on="0"/>
        <pt x="121" y="760" on="0"/>
        <pt x="146" y="760" on="1"/>
        <pt x="171" y="760" on="0"/>
        <pt x="200" y="726" on="0"/>
        <pt x="200" y="700" on="1"/>
        <pt x="200" y="673" on="0"/>
        <pt x="168" y="640" on="0"/>
        <pt x="143" y="640" on="1"/>
        <pt x="119" y="640" on="0"/>
      </contour>
    </TTGlyph>
    <TTGlyph name="dotlessi" xMin="40" yMin="0" xMax="300" yMax="530">
      <contour>
        <pt x="225" y="530" on="1"/>
        <pt x="225" y="80" on="1"/>
        <pt x="300" y="55" on="1"/>
        <pt x="300" y="0" on="1"/>
        <pt x="40" y="0" on="1"/>
        <pt x="40" y="55" on="1"/>
        <pt x="125" y="80" on="1"/>
        <pt x="125" y="450" on="1"/>
        <pt x="40" y="470" on="1"/>
        <pt x="40" y="525" on="1"/>
      </contour>
    </TTGlyph>
    <TTGlyph name="e" xMin="40" yMin="-10" xMax="495" yMax="540">
      <contour>
        <pt x="490" y="252" on="1"/>
        <pt x="145" y="250" on="1"/>
        <pt x="145" y="168" on="0"/>
        <pt x="224" y="70" on="0"/>
        <pt x="290" y="70" on="1"/>
        <pt x="312" y="70" on="0"/>
        <pt x="356" y="78" on="0"/>
        <pt x="395" y="90" on="0"/>
        <pt x="427" y="105" on="0"/>
        <pt x="438" y="112" on="1"/>
        <pt x="458" y="125" on="1"/>
        <pt x="493" y="73" on="1"/>
        <pt x="459" y="46" on="0"/>
        <pt x="402" y="15" on="0"/>
        <pt x="325" y="-10" on="0"/>
        <pt x="280" y="-10" on="1"/>
        <pt x="162" y="-10" on="0"/>
        <pt x="40" y="133" on="0"/>
        <pt x="40" y="257" on="1"/>
        <pt x="40" y="319" on="0"/>
        <pt x="76" y="423" on="0"/>
        <pt x="141" y="498" on="0"/>
        <pt x="231" y="540" on="0"/>
        <pt x="285" y="540" on="1"/>
        <pt x="495" y="540" on="0"/>
        <pt x="495" y="305" on="1"/>
      </contour>
      <contour>
        <pt x="149" y="325" on="1"/>
        <pt x="389" y="325" on="1"/>
        <pt x="389" y="386" on="0"/>
        <pt x="337" y="462" on="0"/>
        <pt x="279" y="462" on="1"/>
        <pt x="222" y="462" on="0"/>
        <pt x="154" y="385" on="0"/>
      </contour>
    </TTGlyph>
    <TTGlyph name="eacute" xMin="40" yMin="-10" xMax="495" yMax="801">
      <component glyphName="e" x="0" y="0" flags="0x204"/>
      <component glyphName="acute.x" x="145" y="-4" flags="0x4"/>
    </TTGlyph>
    <TTGlyph name="ecircumflex" xMin="40" yMin="-10" xMax="495" yMax="786">
      <component glyphName="e" x="0" y="0" flags="0x204"/>
      <component glyphName="circumflex.x" x="10" y="-34" flags="0x4"/>
    </TTGlyph>
    <TTGlyph name="edieresis" xMin="40" yMin="-10" xMax="495" yMax="760">
      <component glyphName="e" x="0" y="0" flags="0x204"/>
      <component glyphName="dieresis" x="15" y="0" flags="0x4"/>
    </TTGlyph>
    <TTGlyph name="egrave" xMin="40" yMin="-10" xMax="495" yMax="801">
      <component glyphName="e" x="0" y="0" flags="0x204"/>
      <component glyphName="grave.x" x="90" y="-4" flags="0x4"/>
    </TTGlyph>
    <TTGlyph name="eight" xMin="50" yMin="-10" xMax="540" yMax="710">
      <contour>
        <pt x="530" y="530" on="1"/>
        <pt x="530" y="496" on="0"/>
        <pt x="505" y="443" on="0"/>
        <pt x="467" y="404" on="0"/>
        <pt x="422" y="378" on="0"/>
        <pt x="401" y="371" on="1"/>
        <pt x="466" y="344" on="0"/>
        <pt x="540" y="265" on="0"/>
        <pt x="540" y="200" on="1"/>
        <pt x="540" y="154" on="0"/>
        <pt x="504" y="77" on="0"/>
        <pt x="438" y="21" on="0"/>
        <pt x="344" y="-10" on="0"/>
        <pt x="287" y="-10" on="1"/>
        <pt x="230" y="-10" on="0"/>
        <pt x="141" y="19" on="0"/>
        <pt x="81" y="72" on="0"/>
        <pt x="50" y="145" on="0"/>
        <pt x="50" y="190" on="1"/>
        <pt x="50" y="228" on="0"/>
        <pt x="80" y="289" on="0"/>
        <pt x="127" y="332" on="0"/>
        <pt x="173" y="360" on="0"/>
        <pt x="188" y="367" on="1"/>
        <pt x="131" y="395" on="0"/>
        <pt x="70" y="467" on="0"/>
        <pt x="70" y="525" on="1"/>
        <pt x="70" y="616" on="0"/>
        <pt x="198" y="710" on="0"/>
        <pt x="307" y="710" on="1"/>
        <pt x="416" y="710" on="0"/>
        <pt x="530" y="611" on="0"/>
      </contour>
      <contour>
        <pt x="430" y="195" on="1"/>
        <pt x="430" y="231" on="0"/>
        <pt x="377" y="291" on="0"/>
        <pt x="323" y="312" on="1"/>
        <pt x="275" y="331" on="1"/>
        <pt x="160" y="279" on="0"/>
        <pt x="160" y="195" on="1"/>
        <pt x="160" y="138" on="0"/>
        <pt x="231" y="76" on="0"/>
        <pt x="295" y="76" on="1"/>
        <pt x="359" y="76" on="0"/>
        <pt x="430" y="138" on="0"/>
      </contour>
      <contour>
        <pt x="318" y="400" on="1"/>
        <pt x="425" y="444" on="0"/>
        <pt x="425" y="525" on="1"/>
        <pt x="425" y="571" on="0"/>
        <pt x="360" y="625" on="0"/>
        <pt x="300" y="625" on="1"/>
        <pt x="240" y="625" on="0"/>
        <pt x="175" y="571" on="0"/>
        <pt x="175" y="525" on="1"/>
        <pt x="175" y="500" on="0"/>
        <pt x="197" y="463" on="0"/>
        <pt x="235" y="435" on="0"/>
        <pt x="288" y="410" on="0"/>
      </contour>
    </TTGlyph>
    <TTGlyph name="ellipsis" xMin="55" yMin="-10" xMax="665" yMax="130">
      <contour>
        <pt x="119" y="-10" on="1"/>
        <pt x="90" y="-10" on="0"/>
        <pt x="55" y="27" on="0"/>
        <pt x="55" y="59" on="1"/>
        <pt x="55" y="92" on="0"/>
        <pt x="92" y="130" on="0"/>
        <pt x="121" y="130" on="1"/>
        <pt x="150" y="130" on="0"/>
        <pt x="185" y="93" on="0"/>
        <pt x="185" y="60" on="1"/>
        <pt x="185" y="28" on="0"/>
        <pt x="148" y="-10" on="0"/>
      </contour>
      <contour>
        <pt x="359" y="-10" on="1"/>
        <pt x="330" y="-10" on="0"/>
        <pt x="295" y="27" on="0"/>
        <pt x="295" y="59" on="1"/>
        <pt x="295" y="92" on="0"/>
        <pt x="332" y="130" on="0"/>
        <pt x="361" y="130" on="1"/>
        <pt x="390" y="130" on="0"/>
        <pt x="425" y="93" on="0"/>
        <pt x="425" y="60" on="1"/>
        <pt x="425" y="28" on="0"/>
        <pt x="388" y="-10" on="0"/>
      </contour>
      <contour>
        <pt x="599" y="-10" on="1"/>
        <pt x="570" y="-10" on="0"/>
        <pt x="535" y="27" on="0"/>
        <pt x="535" y="59" on="1"/>
        <pt x="535" y="92" on="0"/>
        <pt x="572" y="130" on="0"/>
        <pt x="601" y="130" on="1"/>
        <pt x="630" y="130" on="0"/>
        <pt x="665" y="93" on="0"/>
        <pt x="665" y="60" on="1"/>
        <pt x="665" y="28" on="0"/>
        <pt x="628" y="-10" on="0"/>
      </contour>
    </TTGlyph>
    <TTGlyph name="emdash" xMin="0" yMin="285" xMax="970" yMax="365">
      <contour>
        <pt x="0" y="285" on="1"/>
        <pt x="0" y="365" on="1"/>
        <pt x="970" y="365" on="1"/>
        <pt x="970" y="285" on="1"/>
      </contour>
    </TTGlyph>
    <TTGlyph name="endash" xMin="0" yMin="285" xMax="500" yMax="365">
      <contour>
        <pt x="0" y="285" on="1"/>
        <pt x="0" y="365" on="1"/>
        <pt x="500" y="365" on="1"/>
        <pt x="500" y="285" on="1"/>
      </contour>
    </TTGlyph>
    <TTGlyph name="eogonek" xMin="40" yMin="-220" xMax="495" yMax="540">
      <contour>
        <pt x="458" y="125" on="1"/>
        <pt x="493" y="73" on="1"/>
        <pt x="454" y="48" on="0"/>
        <pt x="391" y="-4" on="0"/>
        <pt x="348" y="-54" on="0"/>
        <pt x="324" y="-99" on="0"/>
        <pt x="324" y="-115" on="1"/>
        <pt x="324" y="-137" on="0"/>
        <pt x="349" y="-160" on="0"/>
        <pt x="369" y="-160" on="1"/>
        <pt x="414" y="-153" on="1"/>
        <pt x="424" y="-200" on="1"/>
        <pt x="406" y="-211" on="0"/>
        <pt x="367" y="-220" on="0"/>
        <pt x="348" y="-220" on="1"/>
        <pt x="305" y="-220" on="0"/>
        <pt x="244" y="-173" on="0"/>
        <pt x="244" y="-125" on="1"/>
        <pt x="244" y="-69" on="0"/>
        <pt x="312" y="-7" on="1"/>
        <pt x="295" y="-10" on="0"/>
        <pt x="280" y="-10" on="1"/>
        <pt x="162" y="-10" on="0"/>
        <pt x="40" y="133" on="0"/>
        <pt x="40" y="257" on="1"/>
        <pt x="40" y="319" on="0"/>
        <pt x="76" y="423" on="0"/>
        <pt x="141" y="498" on="0"/>
        <pt x="231" y="540" on="0"/>
        <pt x="285" y="540" on="1"/>
        <pt x="495" y="540" on="0"/>
        <pt x="495" y="305" on="1"/>
        <pt x="490" y="252" on="1"/>
        <pt x="145" y="250" on="1"/>
        <pt x="145" y="168" on="0"/>
        <pt x="224" y="70" on="0"/>
        <pt x="290" y="70" on="1"/>
        <pt x="312" y="70" on="0"/>
        <pt x="356" y="78" on="0"/>
        <pt x="396" y="90" on="0"/>
        <pt x="428" y="105" on="0"/>
        <pt x="438" y="112" on="1"/>
      </contour>
      <contour>
        <pt x="149" y="325" on="1"/>
        <pt x="389" y="325" on="1"/>
        <pt x="389" y="386" on="0"/>
        <pt x="337" y="462" on="0"/>
        <pt x="279" y="462" on="1"/>
        <pt x="222" y="462" on="0"/>
        <pt x="154" y="385" on="0"/>
      </contour>
    </TTGlyph>
    <TTGlyph name="equal" xMin="55" yMin="135" xMax="545" yMax="410">
      <contour>
        <pt x="55" y="135" on="1"/>
        <pt x="55" y="215" on="1"/>
        <pt x="545" y="215" on="1"/>
        <pt x="545" y="135" on="1"/>
      </contour>
      <contour>
        <pt x="55" y="330" on="1"/>
        <pt x="55" y="410" on="1"/>
        <pt x="545" y="410" on="1"/>
        <pt x="545" y="330" on="1"/>
      </contour>
    </TTGlyph>
    <TTGlyph name="eth" xMin="45" yMin="-10" xMax="535" yMax="783">
      <contour>
        <pt x="471" y="727" on="1"/>
        <pt x="377" y="676" on="1"/>
        <pt x="535" y="533" on="0"/>
        <pt x="535" y="265" on="1"/>
        <pt x="535" y="203" on="0"/>
        <pt x="499" y="102" on="0"/>
        <pt x="433" y="30" on="0"/>
        <pt x="341" y="-10" on="0"/>
        <pt x="284" y="-10" on="1"/>
        <pt x="172" y="-10" on="0"/>
        <pt x="45" y="121" on="0"/>
        <pt x="45" y="247" on="1"/>
        <pt x="45" y="310" on="0"/>
        <pt x="79" y="409" on="0"/>
        <pt x="143" y="478" on="0"/>
        <pt x="233" y="515" on="0"/>
        <pt x="290" y="515" on="1"/>
        <pt x="359" y="515" on="0"/>
        <pt x="413" y="473" on="1"/>
        <pt x="377" y="573" on="0"/>
        <pt x="301" y="635" on="1"/>
        <pt x="170" y="565" on="1"/>
        <pt x="130" y="620" on="1"/>
        <pt x="238" y="678" on="1"/>
        <pt x="193" y="703" on="0"/>
        <pt x="140" y="720" on="1"/>
        <pt x="170" y="783" on="1"/>
        <pt x="251" y="763" on="0"/>
        <pt x="318" y="722" on="1"/>
        <pt x="430" y="783" on="1"/>
      </contour>
      <contour>
        <pt x="295" y="435" on="1"/>
        <pt x="150" y="435" on="0"/>
        <pt x="150" y="250" on="1"/>
        <pt x="150" y="165" on="0"/>
        <pt x="219" y="70" on="0"/>
        <pt x="291" y="70" on="1"/>
        <pt x="363" y="70" on="0"/>
        <pt x="430" y="162" on="0"/>
        <pt x="430" y="255" on="1"/>
        <pt x="430" y="435" on="0"/>
      </contour>
    </TTGlyph>
    <TTGlyph name="exclam" xMin="95" yMin="-10" xMax="225" yMax="750">
      <contour>
        <pt x="220" y="750" on="1"/>
        <pt x="205" y="250" on="1"/>
        <pt x="120" y="245" on="1"/>
        <pt x="105" y="750" on="1"/>
      </contour>
      <contour>
        <pt x="159" y="-10" on="1"/>
        <pt x="130" y="-10" on="0"/>
        <pt x="95" y="27" on="0"/>
        <pt x="95" y="59" on="1"/>
        <pt x="95" y="92" on="0"/>
        <pt x="132" y="130" on="0"/>
        <pt x="161" y="130" on="1"/>
        <pt x="190" y="130" on="0"/>
        <pt x="225" y="93" on="0"/>
        <pt x="225" y="60" on="1"/>
        <pt x="225" y="28" on="0"/>
        <pt x="188" y="-10" on="0"/>
      </contour>
    </TTGlyph>
    <TTGlyph name="exclamdown" xMin="90" yMin="-210" xMax="220" yMax="550">
      <contour>
        <pt x="156" y="550" on="1"/>
        <pt x="185" y="550" on="0"/>
        <pt x="220" y="513" on="0"/>
        <pt x="220" y="480" on="1"/>
        <pt x="220" y="448" on="0"/>
        <pt x="182" y="410" on="0"/>
        <pt x="153" y="410" on="1"/>
        <pt x="125" y="410" on="0"/>
        <pt x="90" y="447" on="0"/>
        <pt x="90" y="479" on="1"/>
        <pt x="90" y="512" on="0"/>
        <pt x="128" y="550" on="0"/>
      </contour>
      <contour>
        <pt x="100" y="-210" on="1"/>
        <pt x="115" y="290" on="1"/>
        <pt x="200" y="295" on="1"/>
        <pt x="215" y="-210" on="1"/>
      </contour>
    </TTGlyph>
    <TTGlyph name="f" xMin="70" yMin="0" xMax="495" yMax="780">
      <contour>
        <pt x="70" y="515" on="1"/>
        <pt x="160" y="525" on="1"/>
        <pt x="160" y="585" on="1"/>
        <pt x="160" y="676" on="0"/>
        <pt x="256" y="780" on="0"/>
        <pt x="345" y="780" on="1"/>
        <pt x="387" y="780" on="0"/>
        <pt x="462" y="763" on="0"/>
        <pt x="478" y="754" on="1"/>
        <pt x="495" y="745" on="1"/>
        <pt x="495" y="620" on="1"/>
        <pt x="425" y="620" on="1"/>
        <pt x="410" y="700" on="1"/>
        <pt x="385" y="705" on="0"/>
        <pt x="342" y="705" on="1"/>
        <pt x="260" y="705" on="0"/>
        <pt x="260" y="605" on="1"/>
        <pt x="260" y="525" on="1"/>
        <pt x="392" y="525" on="1"/>
        <pt x="389" y="450" on="1"/>
        <pt x="260" y="450" on="1"/>
        <pt x="260" y="80" on="1"/>
        <pt x="357" y="55" on="1"/>
        <pt x="357" y="0" on="1"/>
        <pt x="75" y="0" on="1"/>
        <pt x="75" y="55" on="1"/>
        <pt x="160" y="80" on="1"/>
        <pt x="160" y="450" on="1"/>
        <pt x="70" y="450" on="1"/>
      </contour>
    </TTGlyph>
    <TTGlyph name="fi" xMin="70" yMin="0" xMax="680" yMax="780">
      <contour>
        <pt x="70" y="450" on="1"/>
        <pt x="70" y="515" on="1"/>
        <pt x="160" y="525" on="1"/>
        <pt x="160" y="575" on="1"/>
        <pt x="160" y="678" on="0"/>
        <pt x="272" y="780" on="0"/>
        <pt x="390" y="780" on="1"/>
        <pt x="437" y="780" on="0"/>
        <pt x="537" y="763" on="0"/>
        <pt x="564" y="754" on="1"/>
        <pt x="590" y="746" on="1"/>
        <pt x="590" y="625" on="1"/>
        <pt x="510" y="625" on="1"/>
        <pt x="495" y="697" on="1"/>
        <pt x="450" y="705" on="0"/>
        <pt x="395" y="705" on="1"/>
        <pt x="260" y="705" on="0"/>
        <pt x="260" y="595" on="1"/>
        <pt x="260" y="525" on="1"/>
        <pt x="605" y="530" on="1"/>
        <pt x="605" y="80" on="1"/>
        <pt x="680" y="55" on="1"/>
        <pt x="680" y="0" on="1"/>
        <pt x="430" y="0" on="1"/>
        <pt x="430" y="55" on="1"/>
        <pt x="505" y="80" on="1"/>
        <pt x="505" y="450" on="1"/>
        <pt x="260" y="450" on="1"/>
        <pt x="260" y="80" on="1"/>
        <pt x="342" y="55" on="1"/>
        <pt x="342" y="0" on="1"/>
        <pt x="75" y="0" on="1"/>
        <pt x="75" y="55" on="1"/>
        <pt x="160" y="80" on="1"/>
        <pt x="160" y="450" on="1"/>
      </contour>
    </TTGlyph>
    <TTGlyph name="five" xMin="20" yMin="-10" xMax="480" yMax="700">
      <contour>
        <pt x="452" y="700" on="1"/>
        <pt x="449" y="615" on="1"/>
        <pt x="167" y="615" on="1"/>
        <pt x="158" y="425" on="1"/>
        <pt x="190" y="425" on="1"/>
        <pt x="257" y="425" on="0"/>
        <pt x="365" y="395" on="0"/>
        <pt x="440" y="339" on="0"/>
        <pt x="480" y="262" on="0"/>
        <pt x="480" y="215" on="1"/>
        <pt x="480" y="162" on="0"/>
        <pt x="440" y="79" on="0"/>
        <pt x="371" y="19" on="0"/>
        <pt x="282" y="-10" on="0"/>
        <pt x="230" y="-10" on="1"/>
        <pt x="201" y="-10" on="0"/>
        <pt x="144" y="-3" on="0"/>
        <pt x="94" y="8" on="0"/>
        <pt x="54" y="22" on="0"/>
        <pt x="44" y="28" on="1"/>
        <pt x="20" y="40" on="1"/>
        <pt x="50" y="120" on="1"/>
        <pt x="129" y="75" on="0"/>
        <pt x="225" y="75" on="1"/>
        <pt x="255" y="75" on="0"/>
        <pt x="308" y="93" on="0"/>
        <pt x="347" y="128" on="0"/>
        <pt x="370" y="178" on="0"/>
        <pt x="370" y="211" on="1"/>
        <pt x="370" y="277" on="0"/>
        <pt x="262" y="345" on="0"/>
        <pt x="165" y="345" on="1"/>
        <pt x="60" y="345" on="1"/>
        <pt x="73" y="700" on="1"/>
      </contour>
    </TTGlyph>
    <TTGlyph name="fl" xMin="70" yMin="0" xMax="680" yMax="780">
      <contour>
        <pt x="70" y="450" on="1"/>
        <pt x="70" y="515" on="1"/>
        <pt x="160" y="525" on="1"/>
        <pt x="160" y="585" on="1"/>
        <pt x="160" y="678" on="0"/>
        <pt x="272" y="780" on="0"/>
        <pt x="370" y="780" on="1"/>
        <pt x="455" y="780" on="0"/>
        <pt x="569" y="772" on="1"/>
        <pt x="607" y="770" on="1"/>
        <pt x="607" y="80" on="1"/>
        <pt x="680" y="55" on="1"/>
        <pt x="680" y="0" on="1"/>
        <pt x="430" y="0" on="1"/>
        <pt x="430" y="55" on="1"/>
        <pt x="505" y="80" on="1"/>
        <pt x="505" y="695" on="1"/>
        <pt x="435" y="705" on="0"/>
        <pt x="383" y="705" on="1"/>
        <pt x="327" y="705" on="0"/>
        <pt x="260" y="650" on="0"/>
        <pt x="260" y="605" on="1"/>
        <pt x="260" y="525" on="1"/>
        <pt x="392" y="525" on="1"/>
        <pt x="389" y="450" on="1"/>
        <pt x="260" y="450" on="1"/>
        <pt x="260" y="80" on="1"/>
        <pt x="342" y="55" on="1"/>
        <pt x="342" y="0" on="1"/>
        <pt x="75" y="0" on="1"/>
        <pt x="75" y="55" on="1"/>
        <pt x="160" y="80" on="1"/>
        <pt x="160" y="450" on="1"/>
      </contour>
    </TTGlyph>
    <TTGlyph name="florin" xMin="-60" yMin="-200" xMax="420" yMax="780">
      <contour>
        <pt x="-50" y="-120" on="1"/>
        <pt x="5" y="-120" on="1"/>
        <pt x="51" y="-120" on="0"/>
        <pt x="91" y="-73" on="0"/>
        <pt x="95" y="-25" on="1"/>
        <pt x="131" y="375" on="1"/>
        <pt x="45" y="375" on="1"/>
        <pt x="47" y="440" on="1"/>
        <pt x="138" y="450" on="1"/>
        <pt x="150" y="585" on="1"/>
        <pt x="158" y="677" on="0"/>
        <pt x="257" y="780" on="0"/>
        <pt x="345" y="780" on="1"/>
        <pt x="420" y="774" on="1"/>
        <pt x="415" y="700" on="1"/>
        <pt x="345" y="700" on="1"/>
        <pt x="299" y="700" on="0"/>
        <pt x="259" y="653" on="0"/>
        <pt x="255" y="605" on="1"/>
        <pt x="243" y="450" on="1"/>
        <pt x="385" y="450" on="1"/>
        <pt x="383" y="375" on="1"/>
        <pt x="236" y="375" on="1"/>
        <pt x="202" y="-5" on="1"/>
        <pt x="194" y="-97" on="0"/>
        <pt x="93" y="-200" on="0"/>
        <pt x="5" y="-200" on="1"/>
        <pt x="-60" y="-194" on="1"/>
      </contour>
    </TTGlyph>
    <TTGlyph name="four" xMin="20" yMin="0" xMax="570" yMax="715">
      <contour>
        <pt x="20" y="240" on="1"/>
        <pt x="340" y="715" on="1"/>
        <pt x="455" y="700" on="1"/>
        <pt x="455" y="250" on="1"/>
        <pt x="570" y="250" on="1"/>
        <pt x="570" y="165" on="1"/>
        <pt x="455" y="165" on="1"/>
        <pt x="455" y="0" on="1"/>
        <pt x="352" y="0" on="1"/>
        <pt x="352" y="165" on="1"/>
        <pt x="30" y="165" on="1"/>
      </contour>
      <contour>
        <pt x="352" y="580" on="1"/>
        <pt x="130" y="250" on="1"/>
        <pt x="352" y="250" on="1"/>
      </contour>
    </TTGlyph>
    <TTGlyph name="fraction" xMin="-15" yMin="0" xMax="480" yMax="700">
      <contour>
        <pt x="-15" y="0" on="1"/>
        <pt x="390" y="700" on="1"/>
        <pt x="480" y="700" on="1"/>
        <pt x="75" y="0" on="1"/>
      </contour>
    </TTGlyph>
    <TTGlyph name="fraction.alt" xMin="-15" yMin="-45" xMax="575" yMax="750">
      <contour>
        <pt x="-15" y="0" on="1"/>
        <pt x="505" y="750" on="1"/>
        <pt x="575" y="705" on="1"/>
        <pt x="55" y="-45" on="1"/>
      </contour>
    </TTGlyph>
    <TTGlyph name="g" xMin="45" yMin="-250" xMax="560" yMax="540">
      <contour>
        <pt x="270" y="160" on="1"/>
        <pt x="226" y="160" on="0"/>
        <pt x="195" y="169" on="1"/>
        <pt x="190" y="75" on="1"/>
        <pt x="345" y="75" on="1"/>
        <pt x="443" y="75" on="0"/>
        <pt x="545" y="1" on="0"/>
        <pt x="545" y="-74" on="1"/>
        <pt x="545" y="-155" on="0"/>
        <pt x="413" y="-250" on="0"/>
        <pt x="285" y="-250" on="1"/>
        <pt x="45" y="-250" on="0"/>
        <pt x="45" y="-105" on="1"/>
        <pt x="45" y="-42" on="0"/>
        <pt x="112" y="2" on="1"/>
        <pt x="128" y="12" on="0"/>
        <pt x="150" y="20" on="1"/>
        <pt x="123" y="24" on="0"/>
        <pt x="90" y="54" on="0"/>
        <pt x="90" y="73" on="1"/>
        <pt x="90" y="106" on="0"/>
        <pt x="129" y="169" on="1"/>
        <pt x="142" y="190" on="1"/>
        <pt x="133" y="193" on="0"/>
        <pt x="102" y="223" on="0"/>
        <pt x="92" y="238" on="1"/>
        <pt x="65" y="280" on="0"/>
        <pt x="65" y="345" on="1"/>
        <pt x="65" y="440" on="0"/>
        <pt x="184" y="540" on="0"/>
        <pt x="285" y="540" on="1"/>
        <pt x="341" y="540" on="0"/>
        <pt x="374" y="526" on="1"/>
        <pt x="385" y="521" on="1"/>
        <pt x="560" y="525" on="1"/>
        <pt x="560" y="470" on="1"/>
        <pt x="463" y="456" on="1"/>
        <pt x="490" y="420" on="0"/>
        <pt x="490" y="355" on="1"/>
        <pt x="490" y="257" on="0"/>
        <pt x="372" y="160" on="0"/>
      </contour>
      <contour>
        <pt x="320" y="0" on="1"/>
        <pt x="210" y="0" on="1"/>
        <pt x="205" y="-2" on="0"/>
        <pt x="176" y="-23" on="0"/>
        <pt x="168" y="-32" on="1"/>
        <pt x="145" y="-58" on="0"/>
        <pt x="145" y="-90" on="1"/>
        <pt x="145" y="-139" on="0"/>
        <pt x="222" y="-175" on="0"/>
        <pt x="300" y="-175" on="1"/>
        <pt x="450" y="-175" on="0"/>
        <pt x="450" y="-80" on="1"/>
        <pt x="450" y="-34" on="0"/>
        <pt x="385" y="0" on="0"/>
      </contour>
      <contour>
        <pt x="280" y="470" on="1"/>
        <pt x="165" y="470" on="0"/>
        <pt x="165" y="350" on="1"/>
        <pt x="165" y="295" on="0"/>
        <pt x="221" y="230" on="0"/>
        <pt x="274" y="230" on="1"/>
        <pt x="335" y="230" on="0"/>
        <pt x="390" y="287" on="0"/>
        <pt x="390" y="350" on="1"/>
        <pt x="390" y="470" on="0"/>
      </contour>
    </TTGlyph>
    <TTGlyph name="germandbls" xMin="70" yMin="-10" xMax="730" yMax="780">
      <contour>
        <pt x="70" y="450" on="1"/>
        <pt x="70" y="515" on="1"/>
        <pt x="180" y="525" on="1"/>
        <pt x="180" y="580" on="1"/>
        <pt x="180" y="674" on="0"/>
        <pt x="296" y="780" on="0"/>
        <pt x="399" y="780" on="1"/>
        <pt x="450" y="780" on="0"/>
        <pt x="535" y="761" on="0"/>
        <pt x="596" y="723" on="0"/>
        <pt x="630" y="664" on="0"/>
        <pt x="630" y="625" on="1"/>
        <pt x="630" y="586" on="0"/>
        <pt x="589" y="521" on="0"/>
        <pt x="564" y="502" on="1"/>
        <pt x="499" y="452" on="0"/>
        <pt x="499" y="410" on="1"/>
        <pt x="499" y="384" on="0"/>
        <pt x="533" y="349" on="0"/>
        <pt x="585" y="321" on="0"/>
        <pt x="644" y="296" on="0"/>
        <pt x="696" y="258" on="0"/>
        <pt x="730" y="203" on="0"/>
        <pt x="730" y="161" on="1"/>
        <pt x="730" y="124" on="0"/>
        <pt x="695" y="61" on="0"/>
        <pt x="638" y="16" on="0"/>
        <pt x="563" y="-10" on="0"/>
        <pt x="523" y="-10" on="1"/>
        <pt x="485" y="-9" on="0"/>
        <pt x="421" y="-3" on="0"/>
        <pt x="394" y="6" on="1"/>
        <pt x="376" y="12" on="1"/>
        <pt x="376" y="156" on="1"/>
        <pt x="440" y="156" on="1"/>
        <pt x="455" y="75" on="1"/>
        <pt x="475" y="65" on="0"/>
        <pt x="513" y="65" on="1"/>
        <pt x="563" y="65" on="0"/>
        <pt x="625" y="105" on="0"/>
        <pt x="625" y="141" on="1"/>
        <pt x="625" y="169" on="0"/>
        <pt x="591" y="204" on="0"/>
        <pt x="540" y="231" on="0"/>
        <pt x="480" y="256" on="0"/>
        <pt x="429" y="292" on="0"/>
        <pt x="395" y="345" on="0"/>
        <pt x="395" y="386" on="1"/>
        <pt x="395" y="417" on="0"/>
        <pt x="411" y="461" on="0"/>
        <pt x="437" y="494" on="0"/>
        <pt x="467" y="519" on="0"/>
        <pt x="482" y="530" on="1"/>
        <pt x="530" y="566" on="0"/>
        <pt x="530" y="615" on="1"/>
        <pt x="530" y="639" on="0"/>
        <pt x="510" y="674" on="0"/>
        <pt x="475" y="695" on="0"/>
        <pt x="428" y="705" on="0"/>
        <pt x="401" y="705" on="1"/>
        <pt x="347" y="705" on="0"/>
        <pt x="280" y="648" on="0"/>
        <pt x="280" y="600" on="1"/>
        <pt x="280" y="0" on="1"/>
        <pt x="95" y="0" on="1"/>
        <pt x="95" y="55" on="1"/>
        <pt x="180" y="80" on="1"/>
        <pt x="180" y="450" on="1"/>
      </contour>
    </TTGlyph>
    <TTGlyph name="grave" xMin="95" yMin="635" xMax="330" yMax="835">
      <contour>
        <pt x="290" y="635" on="1"/>
        <pt x="95" y="760" on="1"/>
        <pt x="145" y="835" on="1"/>
        <pt x="330" y="690" on="1"/>
      </contour>
    </TTGlyph>
    <TTGlyph name="grave.x" xMin="45" yMin="600" xMax="290" yMax="805">
      <contour>
        <pt x="255" y="600" on="1"/>
        <pt x="45" y="730" on="1"/>
        <pt x="95" y="805" on="1"/>
        <pt x="290" y="650" on="1"/>
      </contour>
    </TTGlyph>
    <TTGlyph name="greater" xMin="50" yMin="-5" xMax="560" yMax="530">
      <contour>
        <pt x="50" y="80" on="1"/>
        <pt x="450" y="265" on="1"/>
        <pt x="50" y="445" on="1"/>
        <pt x="50" y="530" on="1"/>
        <pt x="560" y="300" on="1"/>
        <pt x="560" y="230" on="1"/>
        <pt x="50" y="-5" on="1"/>
      </contour>
    </TTGlyph>
    <TTGlyph name="greaterequal" xMin="55" yMin="0" xMax="560" yMax="550">
      <contour>
        <pt x="560" y="78" on="1"/>
        <pt x="560" y="0" on="1"/>
        <pt x="55" y="0" on="1"/>
        <pt x="55" y="78" on="1"/>
      </contour>
      <contour>
        <pt x="55" y="215" on="1"/>
        <pt x="450" y="345" on="1"/>
        <pt x="55" y="470" on="1"/>
        <pt x="55" y="550" on="1"/>
        <pt x="560" y="380" on="1"/>
        <pt x="560" y="310" on="1"/>
        <pt x="55" y="135" on="1"/>
      </contour>
    </TTGlyph>
    <TTGlyph name="guillemotleft" xMin="60" yMin="75" xMax="480" yMax="455">
      <contour>
        <pt x="365" y="265" on="1"/>
        <pt x="480" y="115" on="1"/>
        <pt x="420" y="75" on="1"/>
        <pt x="275" y="235" on="1"/>
        <pt x="275" y="295" on="1"/>
        <pt x="420" y="455" on="1"/>
        <pt x="480" y="415" on="1"/>
      </contour>
      <contour>
        <pt x="150" y="265" on="1"/>
        <pt x="260" y="115" on="1"/>
        <pt x="200" y="75" on="1"/>
        <pt x="60" y="235" on="1"/>
        <pt x="60" y="295" on="1"/>
        <pt x="200" y="455" on="1"/>
        <pt x="260" y="415" on="1"/>
      </contour>
    </TTGlyph>
    <TTGlyph name="guillemotright" xMin="60" yMin="75" xMax="480" yMax="455">
      <contour>
        <pt x="60" y="115" on="1"/>
        <pt x="175" y="265" on="1"/>
        <pt x="60" y="415" on="1"/>
        <pt x="120" y="455" on="1"/>
        <pt x="265" y="295" on="1"/>
        <pt x="265" y="235" on="1"/>
        <pt x="120" y="75" on="1"/>
      </contour>
      <contour>
        <pt x="280" y="115" on="1"/>
        <pt x="390" y="265" on="1"/>
        <pt x="280" y="415" on="1"/>
        <pt x="340" y="455" on="1"/>
        <pt x="480" y="295" on="1"/>
        <pt x="480" y="235" on="1"/>
        <pt x="340" y="75" on="1"/>
      </contour>
    </TTGlyph>
    <TTGlyph name="guilsinglleft" xMin="55" yMin="75" xMax="260" yMax="455">
      <contour>
        <pt x="145" y="265" on="1"/>
        <pt x="260" y="115" on="1"/>
        <pt x="200" y="75" on="1"/>
        <pt x="55" y="235" on="1"/>
        <pt x="55" y="295" on="1"/>
        <pt x="200" y="455" on="1"/>
        <pt x="260" y="415" on="1"/>
      </contour>
    </TTGlyph>
    <TTGlyph name="guilsinglright" xMin="60" yMin="75" xMax="265" yMax="455">
      <contour>
        <pt x="60" y="115" on="1"/>
        <pt x="175" y="265" on="1"/>
        <pt x="60" y="415" on="1"/>
        <pt x="120" y="455" on="1"/>
        <pt x="265" y="295" on="1"/>
        <pt x="265" y="235" on="1"/>
        <pt x="120" y="75" on="1"/>
      </contour>
    </TTGlyph>
    <TTGlyph name="h" xMin="25" yMin="0" xMax="620" yMax="770">
      <contour>
        <pt x="210" y="770" on="1"/>
        <pt x="210" y="468" on="1"/>
        <pt x="295" y="540" on="0"/>
        <pt x="380" y="540" on="1"/>
        <pt x="465" y="540" on="0"/>
        <pt x="545" y="445" on="0"/>
        <pt x="545" y="360" on="1"/>
        <pt x="545" y="80" on="1"/>
        <pt x="620" y="55" on="1"/>
        <pt x="620" y="0" on="1"/>
        <pt x="380" y="0" on="1"/>
        <pt x="380" y="55" on="1"/>
        <pt x="445" y="79" on="1"/>
        <pt x="445" y="350" on="1"/>
        <pt x="445" y="404" on="0"/>
        <pt x="405" y="455" on="0"/>
        <pt x="362" y="455" on="1"/>
        <pt x="341" y="455" on="0"/>
        <pt x="301" y="444" on="0"/>
        <pt x="265" y="426" on="0"/>
        <pt x="237" y="405" on="0"/>
        <pt x="228" y="395" on="1"/>
        <pt x="210" y="375" on="1"/>
        <pt x="210" y="80" on="1"/>
        <pt x="275" y="55" on="1"/>
        <pt x="275" y="0" on="1"/>
        <pt x="25" y="0" on="1"/>
        <pt x="25" y="55" on="1"/>
        <pt x="110" y="80" on="1"/>
        <pt x="110" y="690" on="1"/>
        <pt x="25" y="710" on="1"/>
        <pt x="25" y="765" on="1"/>
      </contour>
    </TTGlyph>
    <TTGlyph name="hungarumlaut" xMin="85" yMin="635" xMax="510" yMax="850">
      <contour>
        <pt x="510" y="785" on="1"/>
        <pt x="330" y="635" on="1"/>
        <pt x="285" y="685" on="1"/>
        <pt x="450" y="850" on="1"/>
      </contour>
      <contour>
        <pt x="310" y="785" on="1"/>
        <pt x="130" y="635" on="1"/>
        <pt x="85" y="685" on="1"/>
        <pt x="250" y="850" on="1"/>
      </contour>
    </TTGlyph>
    <TTGlyph name="hyphen" xMin="60" yMin="230" xMax="320" yMax="315">
      <contour>
        <pt x="60" y="230" on="1"/>
        <pt x="60" y="315" on="1"/>
        <pt x="320" y="315" on="1"/>
        <pt x="320" y="230" on="1"/>
      </contour>
    </TTGlyph>
    <TTGlyph name="i" xMin="40" yMin="0" xMax="300" yMax="765">
      <contour>
        <pt x="170" y="765" on="1"/>
        <pt x="235" y="765" on="0"/>
        <pt x="235" y="690" on="1"/>
        <pt x="235" y="659" on="0"/>
        <pt x="191" y="625" on="0"/>
        <pt x="166" y="625" on="1"/>
        <pt x="139" y="625" on="0"/>
        <pt x="105" y="662" on="0"/>
        <pt x="105" y="695" on="1"/>
        <pt x="105" y="728" on="0"/>
        <pt x="142" y="765" on="0"/>
      </contour>
      <contour>
        <pt x="225" y="530" on="1"/>
        <pt x="225" y="80" on="1"/>
        <pt x="300" y="55" on="1"/>
        <pt x="300" y="0" on="1"/>
        <pt x="40" y="0" on="1"/>
        <pt x="40" y="55" on="1"/>
        <pt x="125" y="80" on="1"/>
        <pt x="125" y="450" on="1"/>
        <pt x="40" y="470" on="1"/>
        <pt x="40" y="525" on="1"/>
      </contour>
    </TTGlyph>
    <TTGlyph name="iacute" xMin="40" yMin="0" xMax="310" yMax="810">
      <component glyphName="dotlessi" x="0" y="0" flags="0x204"/>
      <component glyphName="acute.x" x="35" y="5" flags="0x4"/>
    </TTGlyph>
    <TTGlyph name="icircumflex" xMin="-5" yMin="0" xMax="335" yMax="785">
      <contour>
        <pt x="225" y="530" on="1"/>
        <pt x="225" y="80" on="1"/>
        <pt x="300" y="55" on="1"/>
        <pt x="300" y="0" on="1"/>
        <pt x="40" y="0" on="1"/>
        <pt x="40" y="55" on="1"/>
        <pt x="125" y="80" on="1"/>
        <pt x="125" y="450" on="1"/>
        <pt x="40" y="470" on="1"/>
        <pt x="40" y="525" on="1"/>
      </contour>
      <contour>
        <pt x="295" y="600" on="1"/>
        <pt x="167" y="708" on="1"/>
        <pt x="35" y="600" on="1"/>
        <pt x="-5" y="645" on="1"/>
        <pt x="135" y="780" on="1"/>
        <pt x="195" y="785" on="1"/>
        <pt x="335" y="645" on="1"/>
      </contour>
    </TTGlyph>
    <TTGlyph name="idieresis" xMin="15" yMin="0" xMax="320" yMax="760">
      <contour>
        <pt x="225" y="530" on="1"/>
        <pt x="225" y="80" on="1"/>
        <pt x="300" y="55" on="1"/>
        <pt x="300" y="0" on="1"/>
        <pt x="40" y="0" on="1"/>
        <pt x="40" y="55" on="1"/>
        <pt x="125" y="80" on="1"/>
        <pt x="125" y="450" on="1"/>
        <pt x="40" y="470" on="1"/>
        <pt x="40" y="525" on="1"/>
      </contour>
      <contour>
        <pt x="29" y="656" on="1"/>
        <pt x="15" y="672" on="0"/>
        <pt x="15" y="699" on="1"/>
        <pt x="15" y="726" on="0"/>
        <pt x="46" y="760" on="0"/>
        <pt x="71" y="760" on="1"/>
        <pt x="96" y="760" on="0"/>
        <pt x="125" y="726" on="0"/>
        <pt x="125" y="700" on="1"/>
        <pt x="125" y="673" on="0"/>
        <pt x="93" y="640" on="0"/>
        <pt x="68" y="640" on="1"/>
        <pt x="44" y="640" on="0"/>
      </contour>
      <contour>
        <pt x="224" y="656" on="1"/>
        <pt x="210" y="672" on="0"/>
        <pt x="210" y="699" on="1"/>
        <pt x="210" y="726" on="0"/>
        <pt x="241" y="760" on="0"/>
        <pt x="266" y="760" on="1"/>
        <pt x="291" y="760" on="0"/>
        <pt x="320" y="726" on="0"/>
        <pt x="320" y="700" on="1"/>
        <pt x="320" y="673" on="0"/>
        <pt x="288" y="640" on="0"/>
        <pt x="263" y="640" on="1"/>
        <pt x="239" y="640" on="0"/>
      </contour>
    </TTGlyph>
    <TTGlyph name="igrave" xMin="16" yMin="0" xMax="300" yMax="801">
      <component glyphName="dotlessi" x="0" y="0" flags="0x204"/>
      <component glyphName="grave.x" x="-29" y="-4" flags="0x4"/>
    </TTGlyph>
    <TTGlyph name="infinity" xMin="55" yMin="130" xMax="825" yMax="460">
      <contour>
        <pt x="645" y="130" on="1"/>
        <pt x="588" y="130" on="0"/>
        <pt x="490" y="188" on="0"/>
        <pt x="435" y="240" on="1"/>
        <pt x="428" y="233" on="0"/>
        <pt x="389" y="197" on="0"/>
        <pt x="332" y="159" on="0"/>
        <pt x="262" y="130" on="0"/>
        <pt x="225" y="130" on="1"/>
        <pt x="144" y="130" on="0"/>
        <pt x="55" y="217" on="0"/>
        <pt x="55" y="290" on="1"/>
        <pt x="55" y="327" on="0"/>
        <pt x="80" y="390" on="0"/>
        <pt x="126" y="435" on="0"/>
        <pt x="193" y="460" on="0"/>
        <pt x="235" y="460" on="1"/>
        <pt x="290" y="460" on="0"/>
        <pt x="387" y="402" on="0"/>
        <pt x="444" y="350" on="1"/>
        <pt x="554" y="460" on="0"/>
        <pt x="655" y="460" on="1"/>
        <pt x="736" y="460" on="0"/>
        <pt x="825" y="374" on="0"/>
        <pt x="825" y="299" on="1"/>
        <pt x="825" y="263" on="0"/>
        <pt x="800" y="201" on="0"/>
        <pt x="754" y="156" on="0"/>
        <pt x="687" y="130" on="0"/>
      </contour>
      <contour>
        <pt x="650" y="385" on="1"/>
        <pt x="584" y="385" on="0"/>
        <pt x="499" y="297" on="1"/>
        <pt x="546" y="251" on="0"/>
        <pt x="615" y="205" on="0"/>
        <pt x="650" y="205" on="1"/>
        <pt x="740" y="205" on="0"/>
        <pt x="740" y="295" on="1"/>
        <pt x="740" y="385" on="0"/>
      </contour>
      <contour>
        <pt x="230" y="205" on="1"/>
        <pt x="295" y="205" on="0"/>
        <pt x="380" y="293" on="1"/>
        <pt x="334" y="338" on="0"/>
        <pt x="264" y="385" on="0"/>
        <pt x="230" y="385" on="1"/>
        <pt x="140" y="385" on="0"/>
        <pt x="140" y="295" on="1"/>
        <pt x="140" y="205" on="0"/>
      </contour>
    </TTGlyph>
    <TTGlyph name="integral" xMin="5" yMin="-240" xMax="367" yMax="731">
      <contour>
        <pt x="367" y="715" on="1"/>
        <pt x="360" y="647" on="1"/>
        <pt x="333" y="655" on="0"/>
        <pt x="299" y="655" on="1"/>
        <pt x="264" y="655" on="0"/>
        <pt x="230" y="600" on="0"/>
        <pt x="230" y="527" on="1"/>
        <pt x="230" y="509" on="0"/>
        <pt x="231" y="431" on="0"/>
        <pt x="234" y="331" on="0"/>
        <pt x="236" y="217" on="0"/>
        <pt x="239" y="106" on="0"/>
        <pt x="240" y="8" on="0"/>
        <pt x="240" y="-25" on="1"/>
        <pt x="240" y="-240" on="0"/>
        <pt x="80" y="-240" on="1"/>
        <pt x="56" y="-240" on="0"/>
        <pt x="17" y="-228" on="1"/>
        <pt x="5" y="-225" on="1"/>
        <pt x="10" y="-160" on="1"/>
        <pt x="25" y="-162" on="0"/>
        <pt x="52" y="-165" on="0"/>
        <pt x="65" y="-165" on="1"/>
        <pt x="106" y="-165" on="0"/>
        <pt x="140" y="-110" on="0"/>
        <pt x="140" y="-37" on="1"/>
        <pt x="140" y="-19" on="0"/>
        <pt x="139" y="59" on="0"/>
        <pt x="136" y="160" on="0"/>
        <pt x="134" y="274" on="0"/>
        <pt x="131" y="383" on="0"/>
        <pt x="130" y="476" on="0"/>
        <pt x="130" y="506" on="1"/>
        <pt x="130" y="614" on="0"/>
        <pt x="206" y="730" on="0"/>
        <pt x="291" y="730" on="1"/>
        <pt x="302" y="731" on="0"/>
        <pt x="333" y="723" on="0"/>
        <pt x="354" y="718" on="1"/>
      </contour>
    </TTGlyph>
    <TTGlyph name="j" xMin="-40" yMin="-240" xMax="214" yMax="765">
      <contour>
        <pt x="209" y="530" on="1"/>
        <pt x="209" y="-45" on="1"/>
        <pt x="209" y="-136" on="0"/>
        <pt x="114" y="-240" on="0"/>
        <pt x="24" y="-240" on="1"/>
        <pt x="-40" y="-235" on="1"/>
        <pt x="-31" y="-165" on="1"/>
        <pt x="19" y="-165" on="1"/>
        <pt x="70" y="-165" on="0"/>
        <pt x="109" y="-114" on="0"/>
        <pt x="109" y="-65" on="1"/>
        <pt x="109" y="450" on="1"/>
        <pt x="24" y="470" on="1"/>
        <pt x="24" y="525" on="1"/>
      </contour>
      <contour>
        <pt x="149" y="765" on="1"/>
        <pt x="214" y="765" on="0"/>
        <pt x="214" y="690" on="1"/>
        <pt x="214" y="659" on="0"/>
        <pt x="170" y="625" on="0"/>
        <pt x="145" y="625" on="1"/>
        <pt x="118" y="625" on="0"/>
        <pt x="84" y="662" on="0"/>
        <pt x="84" y="695" on="1"/>
        <pt x="84" y="728" on="0"/>
        <pt x="122" y="765" on="0"/>
      </contour>
    </TTGlyph>
    <TTGlyph name="k" xMin="25" yMin="0" xMax="575" yMax="770">
      <contour>
        <pt x="210" y="770" on="1"/>
        <pt x="210" y="330" on="1"/>
        <pt x="295" y="330" on="1"/>
        <pt x="370" y="456" on="1"/>
        <pt x="325" y="470" on="1"/>
        <pt x="325" y="525" on="1"/>
        <pt x="545" y="530" on="1"/>
        <pt x="545" y="470" on="1"/>
        <pt x="474" y="458" on="1"/>
        <pt x="473" y="458" on="1"/>
        <pt x="370" y="305" on="1"/>
        <pt x="499" y="80" on="1"/>
        <pt x="500" y="80" on="1"/>
        <pt x="575" y="55" on="1"/>
        <pt x="575" y="0" on="1"/>
        <pt x="440" y="0" on="1"/>
        <pt x="297" y="255" on="1"/>
        <pt x="210" y="255" on="1"/>
        <pt x="210" y="80" on="1"/>
        <pt x="275" y="55" on="1"/>
        <pt x="275" y="0" on="1"/>
        <pt x="25" y="0" on="1"/>
        <pt x="25" y="55" on="1"/>
        <pt x="110" y="80" on="1"/>
        <pt x="110" y="690" on="1"/>
        <pt x="25" y="710" on="1"/>
        <pt x="25" y="765" on="1"/>
      </contour>
    </TTGlyph>
    <TTGlyph name="l" xMin="25" yMin="0" xMax="312" yMax="770">
      <contour>
        <pt x="212" y="770" on="1"/>
        <pt x="212" y="80" on="1"/>
        <pt x="312" y="55" on="1"/>
        <pt x="312" y="0" on="1"/>
        <pt x="25" y="0" on="1"/>
        <pt x="25" y="55" on="1"/>
        <pt x="110" y="80" on="1"/>
        <pt x="110" y="690" on="1"/>
        <pt x="25" y="710" on="1"/>
        <pt x="25" y="765" on="1"/>
      </contour>
    </TTGlyph>
    <TTGlyph name="less" xMin="50" yMin="-5" xMax="560" yMax="530">
      <contour>
        <pt x="160" y="265" on="1"/>
        <pt x="560" y="80" on="1"/>
        <pt x="560" y="-5" on="1"/>
        <pt x="50" y="230" on="1"/>
        <pt x="50" y="300" on="1"/>
        <pt x="560" y="530" on="1"/>
        <pt x="560" y="445" on="1"/>
      </contour>
    </TTGlyph>
    <TTGlyph name="lessequal" xMin="55" yMin="0" xMax="560" yMax="550">
      <contour>
        <pt x="55" y="0" on="1"/>
        <pt x="55" y="78" on="1"/>
        <pt x="560" y="78" on="1"/>
        <pt x="560" y="0" on="1"/>
      </contour>
      <contour>
        <pt x="165" y="345" on="1"/>
        <pt x="560" y="215" on="1"/>
        <pt x="560" y="135" on="1"/>
        <pt x="55" y="310" on="1"/>
        <pt x="55" y="380" on="1"/>
        <pt x="560" y="550" on="1"/>
        <pt x="560" y="470" on="1"/>
      </contour>
    </TTGlyph>
    <TTGlyph name="logicalnot" xMin="60" yMin="85" xMax="560" yMax="355">
      <contour>
        <pt x="60" y="275" on="1"/>
        <pt x="60" y="355" on="1"/>
        <pt x="560" y="355" on="1"/>
        <pt x="560" y="85" on="1"/>
        <pt x="475" y="85" on="1"/>
        <pt x="475" y="275" on="1"/>
      </contour>
    </TTGlyph>
    <TTGlyph name="lozenge" xMin="17" yMin="-40" xMax="490" yMax="770">
      <contour>
        <pt x="210" y="-40" on="1"/>
        <pt x="17" y="366" on="1"/>
        <pt x="207" y="770" on="1"/>
        <pt x="297" y="770" on="1"/>
        <pt x="490" y="365" on="1"/>
        <pt x="300" y="-40" on="1"/>
      </contour>
      <contour>
        <pt x="246" y="684" on="1"/>
        <pt x="110" y="380" on="1"/>
        <pt x="261" y="46" on="1"/>
        <pt x="398" y="351" on="1"/>
      </contour>
    </TTGlyph>
    <TTGlyph name="lslash" xMin="20" yMin="0" xMax="356" yMax="770">
      <contour>
        <pt x="237" y="770" on="1"/>
        <pt x="237" y="433" on="1"/>
        <pt x="336" y="480" on="1"/>
        <pt x="356" y="405" on="1"/>
        <pt x="237" y="348" on="1"/>
        <pt x="237" y="80" on="1"/>
        <pt x="337" y="55" on="1"/>
        <pt x="337" y="0" on="1"/>
        <pt x="50" y="0" on="1"/>
        <pt x="50" y="55" on="1"/>
        <pt x="135" y="80" on="1"/>
        <pt x="135" y="307" on="1"/>
        <pt x="41" y="262" on="1"/>
        <pt x="20" y="336" on="1"/>
        <pt x="135" y="391" on="1"/>
        <pt x="135" y="690" on="1"/>
        <pt x="50" y="710" on="1"/>
        <pt x="50" y="765" on="1"/>
      </contour>
    </TTGlyph>
    <TTGlyph name="m" xMin="40" yMin="0" xMax="950" yMax="540">
      <contour>
        <pt x="205" y="530" on="1"/>
        <pt x="214" y="459" on="1"/>
        <pt x="228" y="472" on="0"/>
        <pt x="268" y="501" on="0"/>
        <pt x="316" y="525" on="0"/>
        <pt x="369" y="540" on="0"/>
        <pt x="395" y="540" on="1"/>
        <pt x="496" y="540" on="0"/>
        <pt x="534" y="454" on="1"/>
        <pt x="552" y="472" on="0"/>
        <pt x="600" y="503" on="0"/>
        <pt x="651" y="527" on="0"/>
        <pt x="700" y="540" on="0"/>
        <pt x="720" y="540" on="1"/>
        <pt x="875" y="540" on="0"/>
        <pt x="875" y="360" on="1"/>
        <pt x="875" y="80" on="1"/>
        <pt x="950" y="55" on="1"/>
        <pt x="950" y="0" on="1"/>
        <pt x="710" y="0" on="1"/>
        <pt x="710" y="55" on="1"/>
        <pt x="775" y="80" on="1"/>
        <pt x="775" y="350" on="1"/>
        <pt x="775" y="405" on="0"/>
        <pt x="737" y="455" on="0"/>
        <pt x="694" y="455" on="1"/>
        <pt x="673" y="455" on="0"/>
        <pt x="634" y="444" on="0"/>
        <pt x="600" y="426" on="0"/>
        <pt x="574" y="405" on="0"/>
        <pt x="566" y="395" on="1"/>
        <pt x="550" y="375" on="1"/>
        <pt x="550" y="80" on="1"/>
        <pt x="615" y="55" on="1"/>
        <pt x="615" y="0" on="1"/>
        <pt x="385" y="0" on="1"/>
        <pt x="385" y="55" on="1"/>
        <pt x="450" y="80" on="1"/>
        <pt x="450" y="350" on="1"/>
        <pt x="450" y="405" on="0"/>
        <pt x="412" y="455" on="0"/>
        <pt x="369" y="455" on="1"/>
        <pt x="348" y="455" on="0"/>
        <pt x="309" y="444" on="0"/>
        <pt x="275" y="426" on="0"/>
        <pt x="249" y="405" on="0"/>
        <pt x="241" y="395" on="1"/>
        <pt x="225" y="375" on="1"/>
        <pt x="225" y="80" on="1"/>
        <pt x="290" y="55" on="1"/>
        <pt x="290" y="0" on="1"/>
        <pt x="40" y="0" on="1"/>
        <pt x="40" y="55" on="1"/>
        <pt x="125" y="80" on="1"/>
        <pt x="125" y="450" on="1"/>
        <pt x="40" y="470" on="1"/>
        <pt x="40" y="525" on="1"/>
      </contour>
    </TTGlyph>
    <TTGlyph name="macron" xMin="40" yMin="660" xMax="310" yMax="735">
      <contour>
        <pt x="40" y="660" on="1"/>
        <pt x="40" y="735" on="1"/>
        <pt x="310" y="735" on="1"/>
        <pt x="310" y="660" on="1"/>
      </contour>
    </TTGlyph>
    <TTGlyph name="minus" xMin="50" yMin="230" xMax="530" yMax="310">
      <contour>
        <pt x="50" y="230" on="1"/>
        <pt x="50" y="310" on="1"/>
        <pt x="530" y="310" on="1"/>
        <pt x="530" y="230" on="1"/>
      </contour>
    </TTGlyph>
    <TTGlyph name="mu" xMin="25" yMin="-230" xMax="630" yMax="530">
      <contour>
        <pt x="545" y="530" on="1"/>
        <pt x="545" y="80" on="1"/>
        <pt x="630" y="60" on="1"/>
        <pt x="630" y="5" on="1"/>
        <pt x="465" y="0" on="1"/>
        <pt x="455" y="70" on="1"/>
        <pt x="359" y="-10" on="0"/>
        <pt x="270" y="-10" on="1"/>
        <pt x="240" y="-10" on="0"/>
        <pt x="210" y="0" on="1"/>
        <pt x="210" y="-230" on="1"/>
        <pt x="110" y="-230" on="1"/>
        <pt x="110" y="450" on="1"/>
        <pt x="25" y="470" on="1"/>
        <pt x="25" y="525" on="1"/>
        <pt x="210" y="530" on="1"/>
        <pt x="210" y="169" on="1"/>
        <pt x="212" y="121" on="0"/>
        <pt x="254" y="75" on="0"/>
        <pt x="296" y="75" on="1"/>
        <pt x="338" y="75" on="0"/>
        <pt x="410" y="115" on="0"/>
        <pt x="428" y="134" on="1"/>
        <pt x="445" y="154" on="1"/>
        <pt x="445" y="450" on="1"/>
        <pt x="360" y="470" on="1"/>
        <pt x="360" y="525" on="1"/>
      </contour>
    </TTGlyph>
    <TTGlyph name="multiply" xMin="60" yMin="25" xMax="540" yMax="505">
      <contour>
        <pt x="60" y="449" on="1"/>
        <pt x="116" y="505" on="1"/>
        <pt x="300" y="321" on="1"/>
        <pt x="484" y="505" on="1"/>
        <pt x="540" y="449" on="1"/>
        <pt x="356" y="265" on="1"/>
        <pt x="540" y="81" on="1"/>
        <pt x="484" y="25" on="1"/>
        <pt x="300" y="209" on="1"/>
        <pt x="116" y="25" on="1"/>
        <pt x="60" y="81" on="1"/>
        <pt x="244" y="265" on="1"/>
      </contour>
    </TTGlyph>
    <TTGlyph name="n" xMin="40" yMin="0" xMax="635" yMax="540">
      <contour>
        <pt x="205" y="530" on="1"/>
        <pt x="214" y="459" on="1"/>
        <pt x="224" y="467" on="0"/>
        <pt x="260" y="495" on="0"/>
        <pt x="309" y="521" on="0"/>
        <pt x="368" y="540" on="0"/>
        <pt x="400" y="540" on="1"/>
        <pt x="481" y="540" on="0"/>
        <pt x="560" y="445" on="0"/>
        <pt x="560" y="360" on="1"/>
        <pt x="560" y="80" on="1"/>
        <pt x="635" y="55" on="1"/>
        <pt x="635" y="0" on="1"/>
        <pt x="395" y="0" on="1"/>
        <pt x="395" y="55" on="1"/>
        <pt x="460" y="80" on="1"/>
        <pt x="460" y="350" on="1"/>
        <pt x="460" y="404" on="0"/>
        <pt x="418" y="455" on="0"/>
        <pt x="375" y="455" on="1"/>
        <pt x="354" y="455" on="0"/>
        <pt x="313" y="444" on="0"/>
        <pt x="278" y="426" on="0"/>
        <pt x="251" y="405" on="0"/>
        <pt x="242" y="395" on="1"/>
        <pt x="225" y="375" on="1"/>
        <pt x="225" y="80" on="1"/>
        <pt x="290" y="55" on="1"/>
        <pt x="290" y="0" on="1"/>
        <pt x="40" y="0" on="1"/>
        <pt x="40" y="55" on="1"/>
        <pt x="125" y="80" on="1"/>
        <pt x="125" y="450" on="1"/>
        <pt x="40" y="470" on="1"/>
        <pt x="40" y="525" on="1"/>
      </contour>
    </TTGlyph>
    <TTGlyph name="nine" xMin="45" yMin="-10" xMax="540" yMax="710">
      <contour>
        <pt x="180" y="-10" on="1"/>
        <pt x="134" y="-10" on="0"/>
        <pt x="100" y="0" on="1"/>
        <pt x="105" y="80" on="1"/>
        <pt x="121" y="78" on="0"/>
        <pt x="156" y="74" on="0"/>
        <pt x="176" y="74" on="1"/>
        <pt x="229" y="74" on="0"/>
        <pt x="307" y="101" on="0"/>
        <pt x="363" y="144" on="0"/>
        <pt x="398" y="197" on="0"/>
        <pt x="419" y="250" on="0"/>
        <pt x="428" y="296" on="0"/>
        <pt x="429" y="311" on="1"/>
        <pt x="430" y="325" on="1"/>
        <pt x="419" y="316" on="0"/>
        <pt x="379" y="299" on="0"/>
        <pt x="331" y="284" on="0"/>
        <pt x="281" y="275" on="0"/>
        <pt x="260" y="275" on="1"/>
        <pt x="215" y="275" on="0"/>
        <pt x="136" y="302" on="0"/>
        <pt x="78" y="355" on="0"/>
        <pt x="45" y="433" on="0"/>
        <pt x="45" y="484" on="1"/>
        <pt x="45" y="535" on="0"/>
        <pt x="83" y="618" on="0"/>
        <pt x="149" y="678" on="0"/>
        <pt x="236" y="710" on="0"/>
        <pt x="285" y="710" on="1"/>
        <pt x="348" y="710" on="0"/>
        <pt x="443" y="666" on="0"/>
        <pt x="507" y="586" on="0"/>
        <pt x="540" y="473" on="0"/>
        <pt x="540" y="405" on="1"/>
        <pt x="540" y="313" on="0"/>
        <pt x="494" y="160" on="0"/>
        <pt x="404" y="50" on="0"/>
        <pt x="269" y="-10" on="0"/>
      </contour>
      <contour>
        <pt x="435" y="405" on="1"/>
        <pt x="435" y="435" on="1"/>
        <pt x="435" y="531" on="0"/>
        <pt x="350" y="625" on="0"/>
        <pt x="287" y="625" on="1"/>
        <pt x="224" y="625" on="0"/>
        <pt x="150" y="553" on="0"/>
        <pt x="150" y="490" on="1"/>
        <pt x="150" y="360" on="0"/>
        <pt x="290" y="360" on="1"/>
        <pt x="327" y="359" on="0"/>
        <pt x="397" y="383" on="0"/>
        <pt x="416" y="394" on="1"/>
      </contour>
    </TTGlyph>
    <TTGlyph name="notequal" xMin="65" yMin="0" xMax="570" yMax="540">
      <contour>
        <pt x="65" y="330" on="1"/>
        <pt x="65" y="410" on="1"/>
        <pt x="337" y="410" on="1"/>
        <pt x="400" y="540" on="1"/>
        <pt x="480" y="540" on="1"/>
        <pt x="417" y="410" on="1"/>
        <pt x="570" y="410" on="1"/>
        <pt x="570" y="330" on="1"/>
        <pt x="379" y="330" on="1"/>
        <pt x="323" y="215" on="1"/>
        <pt x="570" y="215" on="1"/>
        <pt x="570" y="135" on="1"/>
        <pt x="285" y="135" on="1"/>
        <pt x="220" y="0" on="1"/>
        <pt x="140" y="0" on="1"/>
        <pt x="205" y="135" on="1"/>
        <pt x="65" y="135" on="1"/>
        <pt x="65" y="215" on="1"/>
        <pt x="243" y="215" on="1"/>
        <pt x="299" y="330" on="1"/>
      </contour>
    </TTGlyph>
    <TTGlyph name="ntilde" xMin="40" yMin="0" xMax="635" yMax="764">
      <component glyphName="n" x="0" y="0" flags="0x204"/>
      <component glyphName="tilde" x="47" y="0" flags="0x4"/>
    </TTGlyph>
    <TTGlyph name="numbersign" xMin="65" yMin="0" xMax="625" yMax="600">
      <contour>
        <pt x="90" y="380" on="1"/>
        <pt x="90" y="445" on="1"/>
        <pt x="209" y="445" on="1"/>
        <pt x="230" y="600" on="1"/>
        <pt x="310" y="600" on="1"/>
        <pt x="289" y="445" on="1"/>
        <pt x="434" y="445" on="1"/>
        <pt x="455" y="600" on="1"/>
        <pt x="535" y="600" on="1"/>
        <pt x="514" y="445" on="1"/>
        <pt x="625" y="445" on="1"/>
        <pt x="625" y="380" on="1"/>
        <pt x="505" y="380" on="1"/>
        <pt x="486" y="235" on="1"/>
        <pt x="600" y="235" on="1"/>
        <pt x="600" y="170" on="1"/>
        <pt x="477" y="170" on="1"/>
        <pt x="455" y="0" on="1"/>
        <pt x="375" y="0" on="1"/>
        <pt x="397" y="170" on="1"/>
        <pt x="252" y="170" on="1"/>
        <pt x="230" y="0" on="1"/>
        <pt x="150" y="0" on="1"/>
        <pt x="172" y="170" on="1"/>
        <pt x="65" y="170" on="1"/>
        <pt x="65" y="235" on="1"/>
        <pt x="181" y="235" on="1"/>
        <pt x="200" y="380" on="1"/>
      </contour>
      <contour>
        <pt x="280" y="380" on="1"/>
        <pt x="261" y="235" on="1"/>
        <pt x="406" y="235" on="1"/>
        <pt x="425" y="380" on="1"/>
      </contour>
    </TTGlyph>
    <TTGlyph name="o" xMin="40" yMin="-10" xMax="530" yMax="540">
      <contour>
        <pt x="40" y="257" on="1"/>
        <pt x="40" y="321" on="0"/>
        <pt x="77" y="426" on="0"/>
        <pt x="145" y="500" on="0"/>
        <pt x="238" y="540" on="0"/>
        <pt x="294" y="540" on="1"/>
        <pt x="406" y="540" on="0"/>
        <pt x="530" y="398" on="0"/>
        <pt x="530" y="272" on="1"/>
        <pt x="530" y="210" on="0"/>
        <pt x="494" y="107" on="0"/>
        <pt x="429" y="32" on="0"/>
        <pt x="336" y="-10" on="0"/>
        <pt x="279" y="-10" on="1"/>
        <pt x="165" y="-10" on="0"/>
        <pt x="40" y="126" on="0"/>
      </contour>
      <contour>
        <pt x="290" y="460" on="1"/>
        <pt x="145" y="460" on="0"/>
        <pt x="145" y="265" on="1"/>
        <pt x="145" y="70" on="0"/>
        <pt x="285" y="70" on="1"/>
        <pt x="358" y="70" on="0"/>
        <pt x="425" y="170" on="0"/>
        <pt x="425" y="270" on="1"/>
        <pt x="425" y="460" on="0"/>
      </contour>
    </TTGlyph>
    <TTGlyph name="oacute" xMin="40" yMin="-10" xMax="530" yMax="801">
      <component glyphName="o" x="0" y="0" flags="0x204"/>
      <component glyphName="acute.x" x="149" y="-4" flags="0x4"/>
    </TTGlyph>
    <TTGlyph name="ocircumflex" xMin="40" yMin="-10" xMax="530" yMax="786">
      <component glyphName="o" x="0" y="0" flags="0x204"/>
      <component glyphName="circumflex.x" x="30" y="-34" flags="0x4"/>
    </TTGlyph>
    <TTGlyph name="odieresis" xMin="40" yMin="-10" xMax="530" yMax="760">
      <component glyphName="o" x="0" y="0" flags="0x204"/>
      <component glyphName="dieresis" x="25" y="0" flags="0x4"/>
    </TTGlyph>
    <TTGlyph name="oe" xMin="40" yMin="-10" xMax="880" yMax="540">
      <contour>
        <pt x="484" y="436" on="1"/>
        <pt x="547" y="540" on="0"/>
        <pt x="670" y="540" on="1"/>
        <pt x="880" y="540" on="0"/>
        <pt x="880" y="305" on="1"/>
        <pt x="875" y="252" on="1"/>
        <pt x="530" y="250" on="1"/>
        <pt x="530" y="168" on="0"/>
        <pt x="609" y="70" on="0"/>
        <pt x="675" y="70" on="1"/>
        <pt x="697" y="70" on="0"/>
        <pt x="741" y="78" on="0"/>
        <pt x="780" y="90" on="0"/>
        <pt x="812" y="105" on="0"/>
        <pt x="823" y="112" on="1"/>
        <pt x="843" y="125" on="1"/>
        <pt x="878" y="73" on="1"/>
        <pt x="844" y="45" on="0"/>
        <pt x="787" y="17" on="0"/>
        <pt x="710" y="-10" on="0"/>
        <pt x="665" y="-10" on="1"/>
        <pt x="534" y="-10" on="0"/>
        <pt x="477" y="93" on="1"/>
        <pt x="410" y="-10" on="0"/>
        <pt x="280" y="-10" on="1"/>
        <pt x="165" y="-10" on="0"/>
        <pt x="40" y="126" on="0"/>
        <pt x="40" y="257" on="1"/>
        <pt x="40" y="321" on="0"/>
        <pt x="77" y="426" on="0"/>
        <pt x="145" y="500" on="0"/>
        <pt x="241" y="540" on="0"/>
        <pt x="300" y="540" on="1"/>
        <pt x="419" y="540" on="0"/>
      </contour>
      <contour>
        <pt x="290" y="460" on="1"/>
        <pt x="145" y="460" on="0"/>
        <pt x="145" y="265" on="1"/>
        <pt x="145" y="70" on="0"/>
        <pt x="285" y="70" on="1"/>
        <pt x="430" y="70" on="0"/>
        <pt x="430" y="270" on="1"/>
        <pt x="430" y="358" on="0"/>
        <pt x="362" y="460" on="0"/>
      </contour>
      <contour>
        <pt x="534" y="325" on="1"/>
        <pt x="774" y="325" on="1"/>
        <pt x="774" y="386" on="0"/>
        <pt x="722" y="462" on="0"/>
        <pt x="664" y="462" on="1"/>
        <pt x="607" y="462" on="0"/>
        <pt x="539" y="385" on="0"/>
      </contour>
    </TTGlyph>
    <TTGlyph name="ogonek" xMin="70" yMin="-220" xMax="270" yMax="5">
      <contour>
        <pt x="240" y="-153" on="1"/>
        <pt x="250" y="-200" on="1"/>
        <pt x="232" y="-209" on="0"/>
        <pt x="193" y="-220" on="0"/>
        <pt x="174" y="-220" on="1"/>
        <pt x="129" y="-220" on="0"/>
        <pt x="70" y="-171" on="0"/>
        <pt x="70" y="-125" on="1"/>
        <pt x="70" y="-103" on="0"/>
        <pt x="88" y="-61" on="0"/>
        <pt x="121" y="-30" on="0"/>
        <pt x="155" y="-6" on="0"/>
        <pt x="168" y="0" on="1"/>
        <pt x="180" y="5" on="1"/>
        <pt x="270" y="5" on="1"/>
        <pt x="241" y="-7" on="0"/>
        <pt x="197" y="-39" on="0"/>
        <pt x="165" y="-73" on="0"/>
        <pt x="150" y="-104" on="0"/>
        <pt x="150" y="-115" on="1"/>
        <pt x="150" y="-137" on="0"/>
        <pt x="175" y="-160" on="0"/>
        <pt x="195" y="-160" on="1"/>
      </contour>
    </TTGlyph>
    <TTGlyph name="ograve" xMin="40" yMin="-10" xMax="530" yMax="801">
      <component glyphName="o" x="0" y="0" flags="0x204"/>
      <component glyphName="grave.x" x="100" y="-4" flags="0x4"/>
    </TTGlyph>
    <TTGlyph name="one" xMin="20" yMin="0" xMax="487" yMax="700">
      <contour>
        <pt x="487" y="85" on="1"/>
        <pt x="487" y="0" on="1"/>
        <pt x="78" y="0" on="1"/>
        <pt x="78" y="85" on="1"/>
        <pt x="232" y="85" on="1"/>
        <pt x="232" y="585" on="1"/>
        <pt x="62" y="475" on="1"/>
        <pt x="20" y="547" on="1"/>
        <pt x="253" y="700" on="1"/>
        <pt x="337" y="700" on="1"/>
        <pt x="337" y="85" on="1"/>
      </contour>
    </TTGlyph>
    <TTGlyph name="onehalf" xMin="40" yMin="0" xMax="895" yMax="700">
      <component glyphName="onesuperior" x="25" y="0" flags="0x4"/>
      <component glyphName="fraction" x="240" y="0" flags="0x4"/>
      <component glyphName="twosuperior" x="545" y="-279" flags="0x4"/>
    </TTGlyph>
    <TTGlyph name="onequarter" xMin="40" yMin="0" xMax="920" yMax="700">
      <component glyphName="onesuperior" x="25" y="0" flags="0x4"/>
      <component glyphName="fraction" x="240" y="0" flags="0x4"/>
      <component glyphName="uni2074" x="534" y="-279" flags="0x4"/>
    </TTGlyph>
    <TTGlyph name="onesuperior" xMin="15" yMin="280" xMax="330" yMax="700">
      <contour>
        <pt x="330" y="345" on="1"/>
        <pt x="330" y="280" on="1"/>
        <pt x="60" y="280" on="1"/>
        <pt x="60" y="345" on="1"/>
        <pt x="155" y="345" on="1"/>
        <pt x="155" y="610" on="1"/>
        <pt x="50" y="545" on="1"/>
        <pt x="15" y="605" on="1"/>
        <pt x="166" y="700" on="1"/>
        <pt x="240" y="700" on="1"/>
        <pt x="240" y="345" on="1"/>
      </contour>
    </TTGlyph>
    <TTGlyph name="ordfeminine" xMin="65" yMin="165" xMax="418" yMax="710">
      <contour>
        <pt x="83" y="580" on="1"/>
        <pt x="78" y="680" on="1"/>
        <pt x="173" y="710" on="0"/>
        <pt x="233" y="710" on="1"/>
        <pt x="361" y="710" on="0"/>
        <pt x="361" y="595" on="1"/>
        <pt x="361" y="387" on="1"/>
        <pt x="418" y="373" on="1"/>
        <pt x="418" y="328" on="1"/>
        <pt x="309" y="323" on="1"/>
        <pt x="293" y="375" on="1"/>
        <pt x="276" y="355" on="0"/>
        <pt x="204" y="316" on="0"/>
        <pt x="176" y="316" on="1"/>
        <pt x="122" y="316" on="0"/>
        <pt x="65" y="373" on="0"/>
        <pt x="65" y="428" on="1"/>
        <pt x="65" y="539" on="0"/>
        <pt x="227" y="539" on="1"/>
        <pt x="281" y="539" on="1"/>
        <pt x="281" y="589" on="1"/>
        <pt x="281" y="613" on="0"/>
        <pt x="248" y="642" on="0"/>
        <pt x="226" y="642" on="1"/>
        <pt x="186" y="642" on="0"/>
        <pt x="148" y="632" on="1"/>
        <pt x="138" y="580" on="1"/>
      </contour>
      <contour>
        <pt x="281" y="485" on="1"/>
        <pt x="233" y="485" on="1"/>
        <pt x="186" y="485" on="0"/>
        <pt x="143" y="460" on="0"/>
        <pt x="143" y="434" on="1"/>
        <pt x="143" y="382" on="0"/>
        <pt x="195" y="382" on="1"/>
        <pt x="216" y="382" on="0"/>
        <pt x="259" y="404" on="0"/>
        <pt x="270" y="416" on="1"/>
        <pt x="281" y="427" on="1"/>
      </contour>
      <contour>
        <pt x="73" y="165" on="1"/>
        <pt x="73" y="235" on="1"/>
        <pt x="418" y="235" on="1"/>
        <pt x="418" y="165" on="1"/>
      </contour>
    </TTGlyph>
    <TTGlyph name="ordmasculine" xMin="60" yMin="165" xMax="435" yMax="710">
      <contour>
        <pt x="60" y="505" on="1"/>
        <pt x="60" y="551" on="0"/>
        <pt x="89" y="627" on="0"/>
        <pt x="140" y="681" on="0"/>
        <pt x="211" y="710" on="0"/>
        <pt x="254" y="710" on="1"/>
        <pt x="342" y="710" on="0"/>
        <pt x="435" y="611" on="0"/>
        <pt x="435" y="518" on="1"/>
        <pt x="435" y="472" on="0"/>
        <pt x="408" y="397" on="0"/>
        <pt x="358" y="344" on="0"/>
        <pt x="287" y="315" on="0"/>
        <pt x="244" y="315" on="1"/>
        <pt x="157" y="315" on="0"/>
        <pt x="60" y="411" on="0"/>
      </contour>
      <contour>
        <pt x="350" y="512" on="1"/>
        <pt x="350" y="575" on="0"/>
        <pt x="297" y="640" on="0"/>
        <pt x="249" y="640" on="1"/>
        <pt x="203" y="640" on="0"/>
        <pt x="145" y="575" on="0"/>
        <pt x="145" y="512" on="1"/>
        <pt x="145" y="449" on="0"/>
        <pt x="202" y="385" on="0"/>
        <pt x="250" y="385" on="1"/>
        <pt x="298" y="385" on="0"/>
        <pt x="350" y="449" on="0"/>
      </contour>
      <contour>
        <pt x="70" y="165" on="1"/>
        <pt x="70" y="235" on="1"/>
        <pt x="425" y="235" on="1"/>
        <pt x="425" y="165" on="1"/>
      </contour>
    </TTGlyph>
    <TTGlyph name="oslash" xMin="45" yMin="-105" xMax="535" yMax="625">
      <contour>
        <pt x="50" y="-70" on="1"/>
        <pt x="119" y="46" on="1"/>
        <pt x="45" y="115" on="0"/>
        <pt x="45" y="251" on="1"/>
        <pt x="45" y="319" on="0"/>
        <pt x="83" y="426" on="0"/>
        <pt x="150" y="501" on="0"/>
        <pt x="244" y="540" on="0"/>
        <pt x="300" y="540" on="1"/>
        <pt x="354" y="540" on="0"/>
        <pt x="402" y="520" on="1"/>
        <pt x="465" y="625" on="1"/>
        <pt x="525" y="590" on="1"/>
        <pt x="460" y="481" on="1"/>
        <pt x="535" y="410" on="0"/>
        <pt x="535" y="279" on="1"/>
        <pt x="535" y="214" on="0"/>
        <pt x="499" y="107" on="0"/>
        <pt x="434" y="31" on="0"/>
        <pt x="342" y="-10" on="0"/>
        <pt x="285" y="-10" on="1"/>
        <pt x="226" y="-10" on="0"/>
        <pt x="178" y="9" on="1"/>
        <pt x="110" y="-105" on="1"/>
      </contour>
      <contour>
        <pt x="295" y="460" on="1"/>
        <pt x="150" y="460" on="0"/>
        <pt x="150" y="265" on="1"/>
        <pt x="150" y="185" on="0"/>
        <pt x="173" y="137" on="1"/>
        <pt x="358" y="446" on="1"/>
        <pt x="328" y="460" on="0"/>
      </contour>
      <contour>
        <pt x="290" y="70" on="1"/>
        <pt x="430" y="70" on="0"/>
        <pt x="430" y="258" on="1"/>
        <pt x="430" y="345" on="0"/>
        <pt x="407" y="393" on="1"/>
        <pt x="223" y="85" on="1"/>
        <pt x="251" y="70" on="0"/>
      </contour>
    </TTGlyph>
    <TTGlyph name="otilde" xMin="40" yMin="-10" xMax="530" yMax="764">
      <component glyphName="o" x="0" y="0" flags="0x204"/>
      <component glyphName="tilde" x="0" y="0" flags="0x4"/>
    </TTGlyph>
    <TTGlyph name="p" xMin="25" yMin="-230" xMax="570" yMax="540">
      <contour>
        <pt x="195" y="530" on="1"/>
        <pt x="203" y="474" on="1"/>
        <pt x="273" y="540" on="0"/>
        <pt x="355" y="540" on="1"/>
        <pt x="461" y="540" on="0"/>
        <pt x="570" y="401" on="0"/>
        <pt x="570" y="273" on="1"/>
        <pt x="570" y="211" on="0"/>
        <pt x="537" y="107" on="0"/>
        <pt x="469" y="32" on="0"/>
        <pt x="368" y="-10" on="0"/>
        <pt x="300" y="-10" on="1"/>
        <pt x="258" y="-10" on="0"/>
        <pt x="210" y="4" on="1"/>
        <pt x="210" y="-155" on="1"/>
        <pt x="315" y="-175" on="1"/>
        <pt x="315" y="-230" on="1"/>
        <pt x="30" y="-230" on="1"/>
        <pt x="30" y="-175" on="1"/>
        <pt x="110" y="-155" on="1"/>
        <pt x="110" y="450" on="1"/>
        <pt x="25" y="470" on="1"/>
        <pt x="25" y="525" on="1"/>
      </contour>
      <contour>
        <pt x="210" y="390" on="1"/>
        <pt x="210" y="90" on="1"/>
        <pt x="241" y="70" on="0"/>
        <pt x="315" y="70" on="1"/>
        <pt x="465" y="70" on="0"/>
        <pt x="465" y="270" on="1"/>
        <pt x="465" y="358" on="0"/>
        <pt x="401" y="460" on="0"/>
        <pt x="335" y="460" on="1"/>
        <pt x="297" y="460" on="0"/>
        <pt x="230" y="425" on="0"/>
      </contour>
    </TTGlyph>
    <TTGlyph name="paragraph" xMin="60" yMin="-170" xMax="565" yMax="700">
      <contour>
        <pt x="565" y="695" on="1"/>
        <pt x="565" y="640" on="1"/>
        <pt x="480" y="620" on="1"/>
        <pt x="480" y="-170" on="1"/>
        <pt x="393" y="-170" on="1"/>
        <pt x="393" y="620" on="1"/>
        <pt x="314" y="620" on="1"/>
        <pt x="314" y="-170" on="1"/>
        <pt x="140" y="-170" on="1"/>
        <pt x="140" y="-110" on="1"/>
        <pt x="230" y="-90" on="1"/>
        <pt x="230" y="306" on="1"/>
        <pt x="157" y="314" on="0"/>
        <pt x="60" y="425" on="0"/>
        <pt x="60" y="507" on="1"/>
        <pt x="60" y="590" on="0"/>
        <pt x="170" y="700" on="0"/>
        <pt x="265" y="700" on="1"/>
        <pt x="393" y="700" on="1"/>
      </contour>
    </TTGlyph>
    <TTGlyph name="parenleft" xMin="74" yMin="-230" xMax="330" yMax="770">
      <contour>
        <pt x="240" y="770" on="1"/>
        <pt x="330" y="770" on="1"/>
        <pt x="258" y="659" on="0"/>
        <pt x="174" y="404" on="0"/>
        <pt x="174" y="278" on="1"/>
        <pt x="174" y="218" on="0"/>
        <pt x="195" y="82" on="0"/>
        <pt x="235" y="-53" on="0"/>
        <pt x="293" y="-179" on="0"/>
        <pt x="329" y="-230" on="1"/>
        <pt x="240" y="-230" on="1"/>
        <pt x="196" y="-169" on="0"/>
        <pt x="133" y="-51" on="0"/>
        <pt x="93" y="71" on="0"/>
        <pt x="74" y="202" on="0"/>
        <pt x="74" y="276" on="1"/>
        <pt x="74" y="351" on="0"/>
        <pt x="93" y="476" on="0"/>
        <pt x="133" y="592" on="0"/>
        <pt x="196" y="707" on="0"/>
      </contour>
    </TTGlyph>
    <TTGlyph name="parenright" xMin="-1" yMin="-230" xMax="255" yMax="770">
      <contour>
        <pt x="-1" y="770" on="1"/>
        <pt x="89" y="770" on="1"/>
        <pt x="133" y="707" on="0"/>
        <pt x="196" y="592" on="0"/>
        <pt x="236" y="475" on="0"/>
        <pt x="255" y="350" on="0"/>
        <pt x="255" y="276" on="1"/>
        <pt x="255" y="203" on="0"/>
        <pt x="236" y="72" on="0"/>
        <pt x="195" y="-50" on="0"/>
        <pt x="132" y="-169" on="0"/>
        <pt x="89" y="-230" on="1"/>
        <pt x="0" y="-230" on="1"/>
        <pt x="36" y="-179" on="0"/>
        <pt x="93" y="-53" on="0"/>
        <pt x="134" y="82" on="0"/>
        <pt x="155" y="218" on="0"/>
        <pt x="155" y="278" on="1"/>
        <pt x="155" y="404" on="0"/>
        <pt x="71" y="659" on="0"/>
      </contour>
    </TTGlyph>
    <TTGlyph name="partialdiff" xMin="45" yMin="-10" xMax="545" yMax="780">
      <contour>
        <pt x="140" y="760" on="1"/>
        <pt x="209" y="780" on="0"/>
        <pt x="260" y="780" on="1"/>
        <pt x="545" y="780" on="0"/>
        <pt x="545" y="400" on="1"/>
        <pt x="545" y="316" on="0"/>
        <pt x="510" y="167" on="0"/>
        <pt x="440" y="55" on="0"/>
        <pt x="332" y="-10" on="0"/>
        <pt x="260" y="-10" on="1"/>
        <pt x="213" y="-10" on="0"/>
        <pt x="134" y="21" on="0"/>
        <pt x="77" y="78" on="0"/>
        <pt x="45" y="160" on="0"/>
        <pt x="45" y="210" on="1"/>
        <pt x="45" y="260" on="0"/>
        <pt x="77" y="344" on="0"/>
        <pt x="135" y="406" on="0"/>
        <pt x="216" y="440" on="0"/>
        <pt x="265" y="440" on="1"/>
        <pt x="289" y="440" on="0"/>
        <pt x="338" y="429" on="0"/>
        <pt x="380" y="414" on="0"/>
        <pt x="414" y="396" on="0"/>
        <pt x="423" y="388" on="1"/>
        <pt x="443" y="370" on="1"/>
        <pt x="444" y="385" on="0"/>
        <pt x="445" y="412" on="0"/>
        <pt x="445" y="425" on="1"/>
        <pt x="445" y="486" on="0"/>
        <pt x="422" y="587" on="0"/>
        <pt x="375" y="660" on="0"/>
        <pt x="301" y="700" on="0"/>
        <pt x="250" y="700" on="1"/>
        <pt x="228" y="701" on="0"/>
        <pt x="185" y="695" on="0"/>
        <pt x="164" y="692" on="1"/>
        <pt x="150" y="690" on="1"/>
      </contour>
      <contour>
        <pt x="435" y="285" on="1"/>
        <pt x="417" y="310" on="0"/>
        <pt x="332" y="353" on="0"/>
        <pt x="275" y="353" on="1"/>
        <pt x="214" y="353" on="0"/>
        <pt x="150" y="280" on="0"/>
        <pt x="150" y="217" on="1"/>
        <pt x="150" y="185" on="0"/>
        <pt x="167" y="133" on="0"/>
        <pt x="197" y="96" on="0"/>
        <pt x="237" y="75" on="0"/>
        <pt x="260" y="75" on="1"/>
        <pt x="304" y="75" on="0"/>
        <pt x="367" y="117" on="0"/>
        <pt x="407" y="176" on="0"/>
        <pt x="429" y="241" on="0"/>
        <pt x="432" y="264" on="1"/>
      </contour>
    </TTGlyph>
    <TTGlyph name="percent" xMin="45" yMin="-10" xMax="760" yMax="710">
      <contour>
        <pt x="155" y="0" on="1"/>
        <pt x="560" y="700" on="1"/>
        <pt x="650" y="700" on="1"/>
        <pt x="245" y="0" on="1"/>
      </contour>
      <contour>
        <pt x="201" y="360" on="1"/>
        <pt x="129" y="360" on="0"/>
        <pt x="45" y="444" on="0"/>
        <pt x="45" y="529" on="1"/>
        <pt x="45" y="571" on="0"/>
        <pt x="69" y="639" on="0"/>
        <pt x="113" y="685" on="0"/>
        <pt x="172" y="710" on="0"/>
        <pt x="208" y="710" on="1"/>
        <pt x="280" y="710" on="0"/>
        <pt x="365" y="623" on="0"/>
        <pt x="365" y="538" on="1"/>
        <pt x="365" y="453" on="0"/>
        <pt x="274" y="360" on="0"/>
      </contour>
      <contour>
        <pt x="205" y="645" on="1"/>
        <pt x="120" y="645" on="0"/>
        <pt x="120" y="535" on="1"/>
        <pt x="120" y="425" on="0"/>
        <pt x="205" y="425" on="1"/>
        <pt x="290" y="425" on="0"/>
        <pt x="290" y="535" on="1"/>
        <pt x="290" y="645" on="0"/>
      </contour>
      <contour>
        <pt x="596" y="-10" on="1"/>
        <pt x="524" y="-10" on="0"/>
        <pt x="440" y="74" on="0"/>
        <pt x="440" y="159" on="1"/>
        <pt x="440" y="201" on="0"/>
        <pt x="464" y="269" on="0"/>
        <pt x="508" y="315" on="0"/>
        <pt x="567" y="340" on="0"/>
        <pt x="603" y="340" on="1"/>
        <pt x="675" y="340" on="0"/>
        <pt x="760" y="253" on="0"/>
        <pt x="760" y="168" on="1"/>
        <pt x="760" y="83" on="0"/>
        <pt x="669" y="-10" on="0"/>
      </contour>
      <contour>
        <pt x="600" y="275" on="1"/>
        <pt x="515" y="275" on="0"/>
        <pt x="515" y="165" on="1"/>
        <pt x="515" y="55" on="0"/>
        <pt x="600" y="55" on="1"/>
        <pt x="685" y="55" on="0"/>
        <pt x="685" y="165" on="1"/>
        <pt x="685" y="275" on="0"/>
      </contour>
    </TTGlyph>
    <TTGlyph name="period" xMin="65" yMin="-10" xMax="195" yMax="130">
      <contour>
        <pt x="129" y="-10" on="1"/>
        <pt x="100" y="-10" on="0"/>
        <pt x="65" y="27" on="0"/>
        <pt x="65" y="59" on="1"/>
        <pt x="65" y="92" on="0"/>
        <pt x="102" y="130" on="0"/>
        <pt x="131" y="130" on="1"/>
        <pt x="160" y="130" on="0"/>
        <pt x="195" y="93" on="0"/>
        <pt x="195" y="60" on="1"/>
        <pt x="195" y="28" on="0"/>
        <pt x="158" y="-10" on="0"/>
      </contour>
    </TTGlyph>
    <TTGlyph name="periodcentered" xMin="63" yMin="233" xMax="197" yMax="377">
      <contour>
        <pt x="128" y="233" on="1"/>
        <pt x="98" y="233" on="0"/>
        <pt x="63" y="270" on="0"/>
        <pt x="63" y="304" on="1"/>
        <pt x="63" y="339" on="0"/>
        <pt x="101" y="377" on="0"/>
        <pt x="131" y="377" on="1"/>
        <pt x="162" y="377" on="0"/>
        <pt x="197" y="340" on="0"/>
        <pt x="197" y="305" on="1"/>
        <pt x="197" y="271" on="0"/>
        <pt x="159" y="233" on="0"/>
      </contour>
    </TTGlyph>
    <TTGlyph name="perthousand" xMin="45" yMin="-10" xMax="1125" yMax="710">
      <contour>
        <pt x="155" y="0" on="1"/>
        <pt x="560" y="700" on="1"/>
        <pt x="650" y="700" on="1"/>
        <pt x="245" y="0" on="1"/>
      </contour>
      <contour>
        <pt x="201" y="360" on="1"/>
        <pt x="129" y="360" on="0"/>
        <pt x="45" y="444" on="0"/>
        <pt x="45" y="529" on="1"/>
        <pt x="45" y="571" on="0"/>
        <pt x="69" y="639" on="0"/>
        <pt x="113" y="685" on="0"/>
        <pt x="172" y="710" on="0"/>
        <pt x="208" y="710" on="1"/>
        <pt x="280" y="710" on="0"/>
        <pt x="365" y="623" on="0"/>
        <pt x="365" y="538" on="1"/>
        <pt x="365" y="453" on="0"/>
        <pt x="274" y="360" on="0"/>
      </contour>
      <contour>
        <pt x="205" y="645" on="1"/>
        <pt x="120" y="645" on="0"/>
        <pt x="120" y="535" on="1"/>
        <pt x="120" y="425" on="0"/>
        <pt x="205" y="425" on="1"/>
        <pt x="290" y="425" on="0"/>
        <pt x="290" y="535" on="1"/>
        <pt x="290" y="645" on="0"/>
      </contour>
      <contour>
        <pt x="596" y="-10" on="1"/>
        <pt x="524" y="-10" on="0"/>
        <pt x="440" y="74" on="0"/>
        <pt x="440" y="159" on="1"/>
        <pt x="440" y="201" on="0"/>
        <pt x="464" y="269" on="0"/>
        <pt x="508" y="315" on="0"/>
        <pt x="567" y="340" on="0"/>
        <pt x="603" y="340" on="1"/>
        <pt x="675" y="340" on="0"/>
        <pt x="760" y="253" on="0"/>
        <pt x="760" y="168" on="1"/>
        <pt x="760" y="83" on="0"/>
        <pt x="669" y="-10" on="0"/>
      </contour>
      <contour>
        <pt x="600" y="275" on="1"/>
        <pt x="515" y="275" on="0"/>
        <pt x="515" y="165" on="1"/>
        <pt x="515" y="55" on="0"/>
        <pt x="600" y="55" on="1"/>
        <pt x="685" y="55" on="0"/>
        <pt x="685" y="165" on="1"/>
        <pt x="685" y="275" on="0"/>
      </contour>
      <contour>
        <pt x="961" y="-10" on="1"/>
        <pt x="889" y="-10" on="0"/>
        <pt x="805" y="74" on="0"/>
        <pt x="805" y="159" on="1"/>
        <pt x="805" y="201" on="0"/>
        <pt x="829" y="269" on="0"/>
        <pt x="873" y="315" on="0"/>
        <pt x="932" y="340" on="0"/>
        <pt x="968" y="340" on="1"/>
        <pt x="1040" y="340" on="0"/>
        <pt x="1125" y="253" on="0"/>
        <pt x="1125" y="168" on="1"/>
        <pt x="1125" y="83" on="0"/>
        <pt x="1034" y="-10" on="0"/>
      </contour>
      <contour>
        <pt x="965" y="275" on="1"/>
        <pt x="880" y="275" on="0"/>
        <pt x="880" y="165" on="1"/>
        <pt x="880" y="55" on="0"/>
        <pt x="965" y="55" on="1"/>
        <pt x="1050" y="55" on="0"/>
        <pt x="1050" y="165" on="1"/>
        <pt x="1050" y="275" on="0"/>
      </contour>
    </TTGlyph>
    <TTGlyph name="pi" xMin="40" yMin="-10" xMax="655" yMax="530">
      <contour>
        <pt x="570" y="68" on="1"/>
        <pt x="594" y="68" on="0"/>
        <pt x="630" y="80" on="1"/>
        <pt x="655" y="30" on="1"/>
        <pt x="600" y="-10" on="0"/>
        <pt x="535" y="-10" on="1"/>
        <pt x="488" y="-10" on="0"/>
        <pt x="425" y="58" on="0"/>
        <pt x="425" y="135" on="1"/>
        <pt x="425" y="450" on="1"/>
        <pt x="220" y="450" on="1"/>
        <pt x="220" y="0" on="1"/>
        <pt x="125" y="0" on="1"/>
        <pt x="125" y="450" on="1"/>
        <pt x="40" y="470" on="1"/>
        <pt x="40" y="525" on="1"/>
        <pt x="220" y="530" on="1"/>
        <pt x="605" y="530" on="1"/>
        <pt x="605" y="470" on="1"/>
        <pt x="520" y="455" on="1"/>
        <pt x="520" y="129" on="1"/>
        <pt x="520" y="68" on="0"/>
      </contour>
    </TTGlyph>
    <TTGlyph name="plus" xMin="50" yMin="0" xMax="570" yMax="530">
      <contour>
        <pt x="50" y="225" on="1"/>
        <pt x="50" y="305" on="1"/>
        <pt x="268" y="305" on="1"/>
        <pt x="268" y="530" on="1"/>
        <pt x="353" y="530" on="1"/>
        <pt x="353" y="305" on="1"/>
        <pt x="570" y="305" on="1"/>
        <pt x="570" y="225" on="1"/>
        <pt x="353" y="225" on="1"/>
        <pt x="353" y="0" on="1"/>
        <pt x="268" y="0" on="1"/>
        <pt x="268" y="225" on="1"/>
      </contour>
    </TTGlyph>
    <TTGlyph name="plusminus" xMin="55" yMin="0" xMax="560" yMax="540">
      <contour>
        <pt x="55" y="302" on="1"/>
        <pt x="55" y="380" on="1"/>
        <pt x="265" y="380" on="1"/>
        <pt x="265" y="540" on="1"/>
        <pt x="350" y="540" on="1"/>
        <pt x="350" y="380" on="1"/>
        <pt x="560" y="380" on="1"/>
        <pt x="560" y="302" on="1"/>
        <pt x="350" y="302" on="1"/>
        <pt x="350" y="140" on="1"/>
        <pt x="265" y="140" on="1"/>
        <pt x="265" y="302" on="1"/>
      </contour>
      <contour>
        <pt x="55" y="0" on="1"/>
        <pt x="55" y="78" on="1"/>
        <pt x="560" y="78" on="1"/>
        <pt x="560" y="0" on="1"/>
      </contour>
    </TTGlyph>
    <TTGlyph name="product" xMin="35" yMin="-230" xMax="685" yMax="700">
      <contour>
        <pt x="220" y="-230" on="1"/>
        <pt x="120" y="-230" on="1"/>
        <pt x="120" y="620" on="1"/>
        <pt x="35" y="640" on="1"/>
        <pt x="35" y="695" on="1"/>
        <pt x="220" y="700" on="1"/>
        <pt x="685" y="700" on="1"/>
        <pt x="685" y="640" on="1"/>
        <pt x="602" y="620" on="1"/>
        <pt x="600" y="620" on="1"/>
        <pt x="600" y="-230" on="1"/>
        <pt x="500" y="-230" on="1"/>
        <pt x="500" y="620" on="1"/>
        <pt x="220" y="620" on="1"/>
      </contour>
    </TTGlyph>
    <TTGlyph name="q" xMin="45" yMin="-230" xMax="585" yMax="540">
      <contour>
        <pt x="305" y="-230" on="1"/>
        <pt x="305" y="-175" on="1"/>
        <pt x="405" y="-155" on="1"/>
        <pt x="405" y="48" on="1"/>
        <pt x="332" y="-10" on="0"/>
        <pt x="255" y="-10" on="1"/>
        <pt x="45" y="-10" on="0"/>
        <pt x="45" y="250" on="1"/>
        <pt x="45" y="315" on="0"/>
        <pt x="81" y="422" on="0"/>
        <pt x="152" y="498" on="0"/>
        <pt x="254" y="540" on="0"/>
        <pt x="320" y="540" on="1"/>
        <pt x="417" y="540" on="0"/>
        <pt x="483" y="525" on="1"/>
        <pt x="505" y="520" on="1"/>
        <pt x="505" y="-155" on="1"/>
        <pt x="585" y="-175" on="1"/>
        <pt x="585" y="-230" on="1"/>
      </contour>
      <contour>
        <pt x="405" y="450" on="1"/>
        <pt x="376" y="460" on="0"/>
        <pt x="299" y="460" on="1"/>
        <pt x="260" y="460" on="0"/>
        <pt x="204" y="431" on="0"/>
        <pt x="168" y="378" on="0"/>
        <pt x="150" y="305" on="0"/>
        <pt x="150" y="261" on="1"/>
        <pt x="150" y="171" on="0"/>
        <pt x="211" y="70" on="0"/>
        <pt x="275" y="70" on="1"/>
        <pt x="325" y="70" on="0"/>
        <pt x="386" y="109" on="0"/>
        <pt x="405" y="135" on="1"/>
      </contour>
    </TTGlyph>
    <TTGlyph name="question" xMin="85" yMin="-10" xMax="416" yMax="745">
      <contour>
        <pt x="195" y="-10" on="1"/>
        <pt x="166" y="-10" on="0"/>
        <pt x="131" y="27" on="0"/>
        <pt x="131" y="59" on="1"/>
        <pt x="131" y="92" on="0"/>
        <pt x="168" y="130" on="0"/>
        <pt x="197" y="130" on="1"/>
        <pt x="226" y="130" on="0"/>
        <pt x="261" y="93" on="0"/>
        <pt x="261" y="60" on="1"/>
        <pt x="261" y="28" on="0"/>
        <pt x="224" y="-10" on="0"/>
      </contour>
      <contour>
        <pt x="233" y="234" on="1"/>
        <pt x="143" y="228" on="1"/>
        <pt x="134" y="295" on="0"/>
        <pt x="134" y="323" on="1"/>
        <pt x="134" y="343" on="0"/>
        <pt x="155" y="380" on="0"/>
        <pt x="188" y="416" on="0"/>
        <pt x="229" y="450" on="0"/>
        <pt x="248" y="467" on="1"/>
        <pt x="311" y="521" on="0"/>
        <pt x="311" y="580" on="1"/>
        <pt x="311" y="660" on="0"/>
        <pt x="206" y="660" on="1"/>
        <pt x="181" y="661" on="0"/>
        <pt x="136" y="654" on="0"/>
        <pt x="116" y="650" on="1"/>
        <pt x="101" y="647" on="1"/>
        <pt x="85" y="722" on="1"/>
        <pt x="152" y="745" on="0"/>
        <pt x="211" y="745" on="1"/>
        <pt x="255" y="745" on="0"/>
        <pt x="330" y="728" on="0"/>
        <pt x="386" y="691" on="0"/>
        <pt x="416" y="632" on="0"/>
        <pt x="416" y="590" on="1"/>
        <pt x="416" y="565" on="0"/>
        <pt x="400" y="516" on="0"/>
        <pt x="374" y="472" on="0"/>
        <pt x="341" y="434" on="0"/>
        <pt x="324" y="420" on="1"/>
        <pt x="278" y="382" on="0"/>
        <pt x="230" y="321" on="0"/>
        <pt x="231" y="296" on="1"/>
      </contour>
    </TTGlyph>
    <TTGlyph name="questiondown" xMin="65" yMin="-205" xMax="396" yMax="550">
      <contour>
        <pt x="286" y="550" on="1"/>
        <pt x="315" y="550" on="0"/>
        <pt x="350" y="513" on="0"/>
        <pt x="350" y="480" on="1"/>
        <pt x="350" y="448" on="0"/>
        <pt x="312" y="410" on="0"/>
        <pt x="283" y="410" on="1"/>
        <pt x="255" y="410" on="0"/>
        <pt x="220" y="447" on="0"/>
        <pt x="220" y="479" on="1"/>
        <pt x="220" y="512" on="0"/>
        <pt x="258" y="550" on="0"/>
      </contour>
      <contour>
        <pt x="248" y="306" on="1"/>
        <pt x="338" y="312" on="1"/>
        <pt x="347" y="244" on="0"/>
        <pt x="347" y="217" on="1"/>
        <pt x="347" y="196" on="0"/>
        <pt x="326" y="159" on="0"/>
        <pt x="293" y="124" on="0"/>
        <pt x="252" y="90" on="0"/>
        <pt x="232" y="73" on="1"/>
        <pt x="170" y="19" on="0"/>
        <pt x="170" y="-40" on="1"/>
        <pt x="170" y="-120" on="0"/>
        <pt x="275" y="-120" on="1"/>
        <pt x="300" y="-121" on="0"/>
        <pt x="345" y="-115" on="0"/>
        <pt x="365" y="-110" on="1"/>
        <pt x="380" y="-107" on="1"/>
        <pt x="396" y="-182" on="1"/>
        <pt x="329" y="-205" on="0"/>
        <pt x="270" y="-205" on="1"/>
        <pt x="226" y="-205" on="0"/>
        <pt x="152" y="-189" on="0"/>
        <pt x="96" y="-152" on="0"/>
        <pt x="65" y="-93" on="0"/>
        <pt x="65" y="-50" on="1"/>
        <pt x="65" y="-25" on="0"/>
        <pt x="81" y="24" on="0"/>
        <pt x="107" y="68" on="0"/>
        <pt x="140" y="106" on="0"/>
        <pt x="158" y="120" on="1"/>
        <pt x="250" y="194" on="0"/>
        <pt x="250" y="244" on="1"/>
      </contour>
    </TTGlyph>
    <TTGlyph name="quotedbl" xMin="65" yMin="520" xMax="332" yMax="770">
      <contour>
        <pt x="332" y="770" on="1"/>
        <pt x="312" y="520" on="1"/>
        <pt x="237" y="520" on="1"/>
        <pt x="237" y="770" on="1"/>
      </contour>
      <contour>
        <pt x="160" y="770" on="1"/>
        <pt x="140" y="520" on="1"/>
        <pt x="65" y="520" on="1"/>
        <pt x="65" y="770" on="1"/>
      </contour>
    </TTGlyph>
    <TTGlyph name="quotedblbase" xMin="55" yMin="-174" xMax="410" yMax="110">
      <contour>
        <pt x="55" y="-136" on="1"/>
        <pt x="108" y="-65" on="0"/>
        <pt x="108" y="-30" on="1"/>
        <pt x="108" y="-27" on="0"/>
        <pt x="102" y="-10" on="0"/>
        <pt x="91" y="12" on="0"/>
        <pt x="85" y="36" on="0"/>
        <pt x="85" y="48" on="1"/>
        <pt x="85" y="72" on="0"/>
        <pt x="121" y="110" on="0"/>
        <pt x="150" y="110" on="1"/>
        <pt x="215" y="110" on="0"/>
        <pt x="215" y="36" on="1"/>
        <pt x="215" y="-52" on="0"/>
        <pt x="100" y="-174" on="1"/>
      </contour>
      <contour>
        <pt x="250" y="-136" on="1"/>
        <pt x="303" y="-65" on="0"/>
        <pt x="303" y="-30" on="1"/>
        <pt x="303" y="-27" on="0"/>
        <pt x="296" y="-10" on="0"/>
        <pt x="286" y="12" on="0"/>
        <pt x="280" y="36" on="0"/>
        <pt x="280" y="48" on="1"/>
        <pt x="280" y="72" on="0"/>
        <pt x="316" y="110" on="0"/>
        <pt x="345" y="110" on="1"/>
        <pt x="410" y="110" on="0"/>
        <pt x="410" y="36" on="1"/>
        <pt x="410" y="-52" on="0"/>
        <pt x="295" y="-174" on="1"/>
      </contour>
    </TTGlyph>
    <TTGlyph name="quotedblleft" xMin="65" yMin="496" xMax="420" yMax="780">
      <contour>
        <pt x="325" y="496" on="1"/>
        <pt x="260" y="496" on="0"/>
        <pt x="260" y="570" on="1"/>
        <pt x="260" y="658" on="0"/>
        <pt x="375" y="780" on="1"/>
        <pt x="420" y="742" on="1"/>
        <pt x="367" y="671" on="0"/>
        <pt x="367" y="636" on="1"/>
        <pt x="367" y="630" on="0"/>
        <pt x="374" y="615" on="0"/>
        <pt x="384" y="594" on="0"/>
        <pt x="390" y="569" on="0"/>
        <pt x="390" y="558" on="1"/>
        <pt x="390" y="534" on="0"/>
        <pt x="354" y="496" on="0"/>
      </contour>
      <contour>
        <pt x="130" y="496" on="1"/>
        <pt x="65" y="496" on="0"/>
        <pt x="65" y="570" on="1"/>
        <pt x="65" y="658" on="0"/>
        <pt x="180" y="780" on="1"/>
        <pt x="225" y="742" on="1"/>
        <pt x="172" y="671" on="0"/>
        <pt x="172" y="636" on="1"/>
        <pt x="172" y="630" on="0"/>
        <pt x="179" y="615" on="0"/>
        <pt x="189" y="594" on="0"/>
        <pt x="195" y="569" on="0"/>
        <pt x="195" y="558" on="1"/>
        <pt x="195" y="534" on="0"/>
        <pt x="159" y="496" on="0"/>
      </contour>
    </TTGlyph>
    <TTGlyph name="quotedblright" xMin="55" yMin="496" xMax="410" yMax="780">
      <contour>
        <pt x="55" y="534" on="1"/>
        <pt x="108" y="605" on="0"/>
        <pt x="108" y="640" on="1"/>
        <pt x="108" y="645" on="0"/>
        <pt x="102" y="660" on="0"/>
        <pt x="91" y="682" on="0"/>
        <pt x="85" y="706" on="0"/>
        <pt x="85" y="718" on="1"/>
        <pt x="85" y="742" on="0"/>
        <pt x="121" y="780" on="0"/>
        <pt x="150" y="780" on="1"/>
        <pt x="215" y="780" on="0"/>
        <pt x="215" y="706" on="1"/>
        <pt x="215" y="618" on="0"/>
        <pt x="100" y="496" on="1"/>
      </contour>
      <contour>
        <pt x="250" y="534" on="1"/>
        <pt x="303" y="605" on="0"/>
        <pt x="303" y="640" on="1"/>
        <pt x="303" y="645" on="0"/>
        <pt x="297" y="660" on="0"/>
        <pt x="286" y="682" on="0"/>
        <pt x="280" y="706" on="0"/>
        <pt x="280" y="718" on="1"/>
        <pt x="280" y="742" on="0"/>
        <pt x="316" y="780" on="0"/>
        <pt x="345" y="780" on="1"/>
        <pt x="410" y="780" on="0"/>
        <pt x="410" y="706" on="1"/>
        <pt x="410" y="618" on="0"/>
        <pt x="295" y="496" on="1"/>
      </contour>
    </TTGlyph>
    <TTGlyph name="quoteleft" xMin="65" yMin="496" xMax="225" yMax="780">
      <contour>
        <pt x="130" y="496" on="1"/>
        <pt x="65" y="496" on="0"/>
        <pt x="65" y="570" on="1"/>
        <pt x="65" y="658" on="0"/>
        <pt x="180" y="780" on="1"/>
        <pt x="225" y="742" on="1"/>
        <pt x="172" y="671" on="0"/>
        <pt x="172" y="636" on="1"/>
        <pt x="172" y="630" on="0"/>
        <pt x="179" y="615" on="0"/>
        <pt x="189" y="594" on="0"/>
        <pt x="195" y="569" on="0"/>
        <pt x="195" y="558" on="1"/>
        <pt x="195" y="534" on="0"/>
        <pt x="159" y="496" on="0"/>
      </contour>
    </TTGlyph>
    <TTGlyph name="quoteright" xMin="55" yMin="496" xMax="215" yMax="780">
      <contour>
        <pt x="55" y="534" on="1"/>
        <pt x="108" y="605" on="0"/>
        <pt x="108" y="640" on="1"/>
        <pt x="108" y="646" on="0"/>
        <pt x="101" y="660" on="0"/>
        <pt x="92" y="682" on="0"/>
        <pt x="85" y="706" on="0"/>
        <pt x="85" y="718" on="1"/>
        <pt x="85" y="742" on="0"/>
        <pt x="121" y="780" on="0"/>
        <pt x="150" y="780" on="1"/>
        <pt x="215" y="780" on="0"/>
        <pt x="215" y="706" on="1"/>
        <pt x="215" y="618" on="0"/>
        <pt x="100" y="496" on="1"/>
      </contour>
    </TTGlyph>
    <TTGlyph name="quotesinglbase" xMin="55" yMin="-174" xMax="215" yMax="110">
      <contour>
        <pt x="55" y="-136" on="1"/>
        <pt x="108" y="-65" on="0"/>
        <pt x="108" y="-30" on="1"/>
        <pt x="108" y="-27" on="0"/>
        <pt x="102" y="-10" on="0"/>
        <pt x="91" y="12" on="0"/>
        <pt x="85" y="36" on="0"/>
        <pt x="85" y="48" on="1"/>
        <pt x="85" y="72" on="0"/>
        <pt x="121" y="110" on="0"/>
        <pt x="150" y="110" on="1"/>
        <pt x="215" y="110" on="0"/>
        <pt x="215" y="36" on="1"/>
        <pt x="215" y="-52" on="0"/>
        <pt x="100" y="-174" on="1"/>
      </contour>
    </TTGlyph>
    <TTGlyph name="quotesingle" xMin="65" yMin="520" xMax="160" yMax="770">
      <contour>
        <pt x="160" y="770" on="1"/>
        <pt x="140" y="520" on="1"/>
        <pt x="65" y="520" on="1"/>
        <pt x="65" y="770" on="1"/>
      </contour>
    </TTGlyph>
    <TTGlyph name="r" xMin="40" yMin="0" xMax="455" yMax="540">
      <contour>
        <pt x="205" y="530" on="1"/>
        <pt x="214" y="457" on="1"/>
        <pt x="288" y="540" on="0"/>
        <pt x="365" y="540" on="1"/>
        <pt x="406" y="540" on="0"/>
        <pt x="444" y="528" on="1"/>
        <pt x="455" y="525" on="1"/>
        <pt x="450" y="380" on="1"/>
        <pt x="385" y="380" on="1"/>
        <pt x="370" y="455" on="1"/>
        <pt x="284" y="455" on="0"/>
        <pt x="225" y="377" on="1"/>
        <pt x="225" y="80" on="1"/>
        <pt x="325" y="55" on="1"/>
        <pt x="325" y="0" on="1"/>
        <pt x="40" y="0" on="1"/>
        <pt x="40" y="55" on="1"/>
        <pt x="125" y="80" on="1"/>
        <pt x="125" y="450" on="1"/>
        <pt x="40" y="470" on="1"/>
        <pt x="40" y="525" on="1"/>
      </contour>
    </TTGlyph>
    <TTGlyph name="radical" xMin="15" yMin="0" xMax="665" yMax="770">
      <contour>
        <pt x="70" y="455" on="1"/>
        <pt x="15" y="470" on="1"/>
        <pt x="15" y="525" on="1"/>
        <pt x="150" y="530" on="1"/>
        <pt x="289" y="90" on="1"/>
        <pt x="475" y="765" on="1"/>
        <pt x="665" y="770" on="1"/>
        <pt x="665" y="715" on="1"/>
        <pt x="547" y="700" on="1"/>
        <pt x="340" y="0" on="1"/>
        <pt x="230" y="0" on="1"/>
      </contour>
    </TTGlyph>
    <TTGlyph name="registered" xMin="55" yMin="155" xMax="665" yMax="755">
      <contour>
        <pt x="137" y="237" on="1"/>
        <pt x="55" y="319" on="0"/>
        <pt x="55" y="450" on="1"/>
        <pt x="55" y="515" on="0"/>
        <pt x="101" y="626" on="0"/>
        <pt x="183" y="708" on="0"/>
        <pt x="295" y="755" on="0"/>
        <pt x="360" y="755" on="1"/>
        <pt x="425" y="755" on="0"/>
        <pt x="537" y="711" on="0"/>
        <pt x="619" y="632" on="0"/>
        <pt x="665" y="524" on="0"/>
        <pt x="665" y="460" on="1"/>
        <pt x="665" y="395" on="0"/>
        <pt x="616" y="284" on="0"/>
        <pt x="530" y="202" on="0"/>
        <pt x="416" y="155" on="0"/>
        <pt x="350" y="155" on="1"/>
        <pt x="219" y="155" on="0"/>
      </contour>
      <contour>
        <pt x="190" y="625" on="1"/>
        <pt x="130" y="560" on="0"/>
        <pt x="130" y="455" on="1"/>
        <pt x="130" y="401" on="0"/>
        <pt x="161" y="315" on="0"/>
        <pt x="220" y="253" on="0"/>
        <pt x="303" y="220" on="0"/>
        <pt x="355" y="220" on="1"/>
        <pt x="407" y="220" on="0"/>
        <pt x="494" y="254" on="0"/>
        <pt x="556" y="316" on="0"/>
        <pt x="590" y="402" on="0"/>
        <pt x="590" y="455" on="1"/>
        <pt x="590" y="507" on="0"/>
        <pt x="556" y="594" on="0"/>
        <pt x="494" y="656" on="0"/>
        <pt x="407" y="690" on="0"/>
        <pt x="355" y="690" on="1"/>
        <pt x="252" y="690" on="0"/>
      </contour>
      <contour>
        <pt x="215" y="295" on="1"/>
        <pt x="215" y="335" on="1"/>
        <pt x="255" y="345" on="1"/>
        <pt x="255" y="577" on="1"/>
        <pt x="215" y="585" on="1"/>
        <pt x="215" y="622" on="1"/>
        <pt x="365" y="625" on="1"/>
        <pt x="416" y="625" on="0"/>
        <pt x="482" y="576" on="0"/>
        <pt x="482" y="533" on="1"/>
        <pt x="482" y="468" on="0"/>
        <pt x="420" y="445" on="1"/>
        <pt x="437" y="427" on="0"/>
        <pt x="448" y="408" on="1"/>
        <pt x="480" y="345" on="1"/>
        <pt x="520" y="335" on="1"/>
        <pt x="520" y="295" on="1"/>
        <pt x="434" y="295" on="1"/>
        <pt x="394" y="380" on="1"/>
        <pt x="386" y="397" on="0"/>
        <pt x="374" y="418" on="0"/>
        <pt x="363" y="429" on="0"/>
        <pt x="349" y="432" on="0"/>
        <pt x="339" y="432" on="1"/>
        <pt x="320" y="432" on="1"/>
        <pt x="320" y="345" on="1"/>
        <pt x="360" y="335" on="1"/>
        <pt x="360" y="295" on="1"/>
      </contour>
      <contour>
        <pt x="320" y="575" on="1"/>
        <pt x="320" y="478" on="1"/>
        <pt x="355" y="478" on="1"/>
        <pt x="382" y="478" on="0"/>
        <pt x="415" y="504" on="0"/>
        <pt x="415" y="527" on="1"/>
        <pt x="415" y="575" on="0"/>
        <pt x="360" y="575" on="1"/>
      </contour>
    </TTGlyph>
    <TTGlyph name="ring" xMin="80" yMin="595" xMax="310" yMax="820">
      <contour>
        <pt x="114" y="624" on="1"/>
        <pt x="80" y="654" on="0"/>
        <pt x="80" y="705" on="1"/>
        <pt x="80" y="731" on="0"/>
        <pt x="100" y="774" on="0"/>
        <pt x="133" y="804" on="0"/>
        <pt x="175" y="820" on="0"/>
        <pt x="196" y="820" on="1"/>
        <pt x="217" y="820" on="0"/>
        <pt x="258" y="805" on="0"/>
        <pt x="290" y="776" on="0"/>
        <pt x="310" y="735" on="0"/>
        <pt x="310" y="710" on="1"/>
        <pt x="310" y="683" on="0"/>
        <pt x="289" y="641" on="0"/>
        <pt x="256" y="611" on="0"/>
        <pt x="214" y="595" on="0"/>
        <pt x="193" y="595" on="1"/>
        <pt x="149" y="595" on="0"/>
      </contour>
      <contour>
        <pt x="140" y="707" on="1"/>
        <pt x="140" y="645" on="0"/>
        <pt x="195" y="645" on="1"/>
        <pt x="219" y="645" on="0"/>
        <pt x="250" y="679" on="0"/>
        <pt x="250" y="708" on="1"/>
        <pt x="250" y="770" on="0"/>
        <pt x="195" y="770" on="1"/>
        <pt x="171" y="770" on="0"/>
        <pt x="140" y="736" on="0"/>
      </contour>
    </TTGlyph>
    <TTGlyph name="s" xMin="46" yMin="-11" xMax="425" yMax="540">
      <contour>
        <pt x="46" y="160" on="1"/>
        <pt x="116" y="160" on="1"/>
        <pt x="127" y="74" on="1"/>
        <pt x="137" y="70" on="0"/>
        <pt x="180" y="65" on="0"/>
        <pt x="201" y="65" on="1"/>
        <pt x="266" y="65" on="0"/>
        <pt x="325" y="104" on="0"/>
        <pt x="325" y="144" on="1"/>
        <pt x="325" y="171" on="0"/>
        <pt x="284" y="203" on="0"/>
        <pt x="222" y="225" on="0"/>
        <pt x="149" y="247" on="0"/>
        <pt x="87" y="282" on="0"/>
        <pt x="46" y="338" on="0"/>
        <pt x="46" y="384" on="1"/>
        <pt x="46" y="459" on="0"/>
        <pt x="146" y="538" on="0"/>
        <pt x="229" y="540" on="1"/>
        <pt x="264" y="539" on="0"/>
        <pt x="337" y="530" on="0"/>
        <pt x="375" y="518" on="1"/>
        <pt x="400" y="510" on="1"/>
        <pt x="397" y="375" on="1"/>
        <pt x="332" y="375" on="1"/>
        <pt x="316" y="453" on="1"/>
        <pt x="308" y="456" on="0"/>
        <pt x="262" y="465" on="0"/>
        <pt x="236" y="465" on="1"/>
        <pt x="218" y="465" on="0"/>
        <pt x="186" y="459" on="0"/>
        <pt x="161" y="445" on="0"/>
        <pt x="146" y="419" on="0"/>
        <pt x="146" y="400" on="1"/>
        <pt x="146" y="371" on="0"/>
        <pt x="187" y="338" on="0"/>
        <pt x="249" y="314" on="0"/>
        <pt x="322" y="292" on="0"/>
        <pt x="384" y="257" on="0"/>
        <pt x="425" y="203" on="0"/>
        <pt x="425" y="159" on="1"/>
        <pt x="425" y="117" on="0"/>
        <pt x="389" y="53" on="0"/>
        <pt x="328" y="10" on="0"/>
        <pt x="247" y="-11" on="0"/>
        <pt x="201" y="-11" on="1"/>
        <pt x="184" y="-11" on="0"/>
        <pt x="147" y="-8" on="0"/>
        <pt x="111" y="-3" on="0"/>
        <pt x="80" y="3" on="0"/>
        <pt x="70" y="6" on="1"/>
        <pt x="47" y="12" on="1"/>
      </contour>
    </TTGlyph>
    <TTGlyph name="scaron" xMin="46" yMin="-11" xMax="425" yMax="786">
      <component glyphName="s" x="0" y="0" flags="0x4"/>
      <component glyphName="caron" x="-31" y="-34" flags="0x4"/>
    </TTGlyph>
</ttFont>
